<?xml version="1.0" encoding="UTF-8" standalone="no"?><!-- Generator: Gravit.io --><svg xmlns="http://www.w3.org/2000/svg" xmlns:xlink="http://www.w3.org/1999/xlink" style="isolation:isolate" viewBox="0 0 660.013 459.162" width="660.013pt" height="459.162pt"><defs><clipPath id="_clipPath_9S6SgV5KbFl67n4yTVsm5YpswEzEBeiq"><rect width="660.013" height="459.162"/></clipPath></defs><g clip-path="url(#_clipPath_9S6SgV5KbFl67n4yTVsm5YpswEzEBeiq)"><g><g opacity="0.1"><path d=" M 339.716 79.882 C 298.221 86.809 256.662 83.078 216.654 77.917 C 176.647 72.757 136.732 66.166 95.15 67.445 C 68.416 68.276 38.678 73.53 20.18 89.651 C 2.384 105.168 -0.161 126.375 0.008 145.548 C 0.135 159.978 1.489 174.92 11.259 186.514 C 18.041 194.569 28.409 200.41 36.249 207.854 C 63.564 233.763 55.817 273.898 38.521 307.89 C 30.385 323.832 20.441 339.488 14.984 355.831 C 9.527 372.173 8.987 389.8 19.273 403.358 C 29.467 416.772 48.965 424.507 69.253 428.645 C 110.452 437.054 156.178 432.713 200.405 426.68 C 298.291 413.238 395.113 391.497 491.586 369.819 C 527.31 361.793 563.192 353.727 597.562 341.923 C 616.647 335.379 636.064 327.144 648.286 314.126 C 663.797 297.592 663.937 274.77 648.611 260.92 C 622.93 237.726 565.394 242.062 545.42 215.642 C 534.412 201.113 538.893 181.58 547.303 164.401 C 565.319 127.555 600.624 91.377 595.539 54.351 C 592.052 28.919 567.422 7.631 534.703 1.744 C 500.414 -4.428 456.588 5.876 437.195 31.157 C 417.197 57.181 376.353 73.768 339.716 79.882 Z " fill="rgb(0,71,187)"/></g><g opacity="0.1"><ellipse vector-effect="non-scaling-stroke" cx="392.78227892504367" cy="449.38078774663495" rx="205.44775241878747" ry="9.781012342531142" fill="rgb(0,71,187)"/></g><path d=" M 388.569 435.107 L 388.569 439.652 L 254.169 439.652 L 254.169 435.956 C 270.93 429.746 282.296 414.046 282.962 396.183 C 283.627 378.32 273.461 361.818 257.208 354.378 L 387.656 354.378 C 375.515 359.955 366.544 370.72 363.247 383.668 C 358.778 401.289 365.561 419.849 380.34 430.435 C 382.908 432.282 385.667 433.849 388.569 435.107 L 388.569 435.107 Z " fill="rgb(210,212,222)"/><g opacity="0.1"><path d=" M 387.656 354.378 C 375.515 359.955 366.544 370.72 363.247 383.668 L 281.629 383.668 C 278.332 370.72 269.361 359.955 257.22 354.378 L 387.656 354.378 Z " fill="rgb(0,0,0)"/></g><path d=" M 100.276 331.23 L 100.276 356.737 C 100.276 370.831 110.586 382.25 123.308 382.25 L 518.721 382.25 C 531.443 382.25 541.752 370.831 541.752 356.737 L 541.752 331.23 L 100.276 331.23 Z " fill="rgb(210,212,222)"/><g opacity="0.1"><path d=" M 388.569 435.107 L 388.569 439.652 L 254.169 439.652 L 254.169 435.956 C 257.856 434.587 261.343 432.73 264.537 430.435 L 380.328 430.435 C 382.9 432.283 385.663 433.849 388.569 435.107 L 388.569 435.107 Z " fill="rgb(0,0,0)"/></g><path d="M 215.277 431.853 L 427.455 431.853 C 430.502 431.853 432.976 434.327 432.976 437.374 L 432.976 439.797 C 432.976 442.845 430.502 445.318 427.455 445.318 L 215.277 445.318 C 212.23 445.318 209.756 442.845 209.756 439.797 L 209.756 437.374 C 209.756 434.327 212.23 431.853 215.277 431.853 Z" style="stroke:none;fill:#D2D4DE;stroke-miterlimit:10;"/><path d=" M 541.752 51.672 C 541.752 38.952 531.441 28.64 518.721 28.64 L 123.308 28.64 C 110.588 28.64 100.276 38.952 100.276 51.672 L 100.276 336.187 L 541.752 336.187 L 541.752 51.672 Z " fill="rgb(48,55,78)"/><path d=" M 529.711 61.947 L 529.711 306.426 C 529.711 312.688 524.634 317.764 518.372 317.764 L 123.662 317.764 C 120.654 317.766 117.77 316.572 115.643 314.445 C 113.516 312.318 112.322 309.433 112.324 306.426 L 112.324 61.947 C 112.319 58.937 113.511 56.048 115.638 53.918 C 117.765 51.788 120.652 50.591 123.662 50.591 L 518.372 50.591 C 521.382 50.592 524.268 51.79 526.394 53.92 C 528.521 56.05 529.714 58.937 529.711 61.947 L 529.711 61.947 Z " fill="rgb(223,227,239)"/><circle vector-effect="non-scaling-stroke" cx="321.0141735073863" cy="39.62436693706705" r="5.317662681768297" fill="rgb(255,255,255)"/><circle vector-effect="non-scaling-stroke" cx="321.0141735073863" cy="357.80075655613814" r="13.111089628490959" fill="rgb(255,255,255)"/><path d=" M 529.705 61.947 L 112.324 61.947 C 112.317 58.936 113.509 56.047 115.637 53.916 C 117.764 51.786 120.651 50.589 123.662 50.591 L 518.366 50.591 C 521.377 50.589 524.265 51.786 526.392 53.916 C 528.519 56.047 529.711 58.936 529.705 61.947 Z " fill="rgb(255,255,255)"/><circle vector-effect="non-scaling-stroke" cx="123.66205400193569" cy="56.274753366866136" r="2.8360867636097566" fill="rgb(223,227,239)"/><circle vector-effect="non-scaling-stroke" cx="132.16450263956077" cy="56.274753366866136" r="2.8360867636097566" fill="rgb(223,227,239)"/><circle vector-effect="non-scaling-stroke" cx="140.66695127718586" cy="56.274753366866136" r="2.8360867636097566" fill="rgb(223,227,239)"/><rect x="151.622" y="93.347" width="336.855" height="196.852" transform="matrix(1,0,0,1,0,0)" fill="rgb(255,255,255)"/><linearGradient id="_lgradient_2" x1="0.5009875616388317" y1="1.0000085485287977" x2="0.5009875616388318" y2="-0.0007286912230064502" gradientTransform="matrix(62.132,0,0,126.461,520.958,319.292)" gradientUnits="userSpaceOnUse"><stop offset="0%" stop-opacity="0.25" style="stop-color:rgb(128,128,128)"/><stop offset="54%" stop-opacity="0.12" style="stop-color:rgb(128,128,128)"/><stop offset="100%" stop-opacity="0.1" style="stop-color:rgb(128,128,128)"/></linearGradient><path d=" M 582.492 359.091 C 582.614 358.76 581.69 356.9 581.69 356.807 C 581.69 356.714 580.743 355.68 580.743 355.104 C 580.743 354.529 579.482 353.273 579.482 353.273 C 579.482 353.273 577.796 352.576 577.616 351.053 C 577.436 349.531 575.594 349.502 575.588 349.502 L 575.588 349.502 C 575.588 349.502 575.588 349.362 575.588 349.153 C 575.624 348.55 575.55 347.945 575.367 347.369 C 575.147 346.949 574.772 346.632 574.321 346.485 C 574.24 345.933 574.042 345.404 573.74 344.934 C 573.321 344.497 573.158 343.875 573.31 343.289 C 573.496 342.708 573.066 341.249 572.147 341.034 C 571.229 340.819 570.247 340.488 570.247 340.488 L 570.003 340.529 L 569.881 340.488 C 569.667 340.527 569.452 340.554 569.236 340.569 C 569.046 340.574 568.861 340.512 568.713 340.395 C 568.405 340.064 565.923 339.424 565.464 339.424 C 564.85 339.304 564.253 339.108 563.686 338.843 L 562.366 337.838 C 561.919 337.353 561.529 336.819 561.204 336.245 L 561.204 336.245 L 561.204 336.245 C 561.094 335.984 561 335.716 560.925 335.443 L 560.925 335.443 C 561.381 334.975 561.772 334.447 562.087 333.874 L 562.175 333.694 C 562.24 333.703 562.307 333.703 562.372 333.694 L 562.453 333.659 C 562.768 333.499 563.003 333.218 563.104 332.88 L 563.104 332.88 C 563.129 332.816 563.149 332.75 563.163 332.683 L 563.163 332.613 C 563.165 332.567 563.165 332.52 563.163 332.474 C 563.165 332.448 563.165 332.423 563.163 332.398 C 563.165 332.352 563.165 332.305 563.163 332.259 C 563.163 332.259 563.163 332.206 563.163 332.183 L 563.163 332.009 L 563.163 332.009 C 563.192 331.794 563.215 331.579 563.261 331.364 L 563.261 331.364 C 563.527 330.567 563.873 329.8 564.296 329.074 L 564.296 329.074 Q 564.377 328.911 564.435 328.742 C 564.482 328.62 564.522 328.493 564.557 328.371 C 564.56 328.332 564.56 328.293 564.557 328.254 C 564.557 328.167 564.604 328.074 564.621 327.981 C 564.639 327.888 564.621 327.9 564.621 327.859 C 564.621 327.731 564.656 327.603 564.668 327.476 C 564.733 326.748 564.625 326.015 564.354 325.337 C 564.127 324.756 563.773 324.25 563.552 323.681 C 563.197 322.815 563.104 321.832 562.674 321.007 C 561.953 319.625 560.338 318.966 558.856 319.45 C 558.188 319.7 557.612 320.182 556.932 320.397 C 556.026 320.688 555.061 320.467 554.12 320.339 C 553.178 320.211 552.144 320.199 551.394 320.81 C 550.522 321.513 550.284 322.838 549.47 323.617 C 549.127 323.942 548.703 324.145 548.343 324.448 C 548.083 324.649 547.883 324.916 547.762 325.221 L 547.762 325.285 C 547.76 325.312 547.76 325.339 547.762 325.366 C 547.759 325.397 547.759 325.428 547.762 325.459 C 547.762 325.459 547.762 325.5 547.762 325.523 C 547.759 325.577 547.759 325.631 547.762 325.686 L 547.762 325.686 C 547.769 325.736 547.778 325.787 547.791 325.837 C 547.791 325.837 547.791 325.837 547.791 325.877 C 547.801 325.921 547.814 325.964 547.831 326.005 L 547.831 326.005 L 547.884 326.145 L 547.919 326.214 C 547.915 326.234 547.915 326.253 547.919 326.273 C 548.037 326.499 548.133 326.736 548.203 326.982 C 548.25 327.133 548.25 327.295 548.203 327.446 C 548.122 327.618 548.005 327.771 547.86 327.894 C 547.253 328.53 546.782 329.283 546.477 330.108 C 546.442 330.201 546.413 330.3 546.378 330.393 L 546.378 330.393 L 546.419 330.393 C 546.506 330.421 546.596 330.44 546.686 330.451 L 546.843 330.451 C 547.052 330.462 547.261 330.446 547.465 330.405 L 547.622 330.37 C 547.836 330.311 548.044 330.233 548.244 330.137 C 548.244 330.201 548.244 330.265 548.244 330.329 L 548.244 330.434 C 548.247 333.18 549.805 335.688 552.266 336.908 C 552.266 336.972 552.266 337.042 552.266 337.105 C 552.268 337.16 552.268 337.214 552.266 337.268 L 552.184 337.193 C 552.184 337.193 551.603 336.919 551.109 337.71 C 550.725 338.229 550.204 338.632 549.604 338.872 C 549.604 338.872 544.025 339.756 543.792 340.488 L 541.189 340.639 C 541.189 340.639 540.27 340.761 540.177 342.679 C 540.177 342.679 539.596 344.777 539.596 344.777 C 539.596 344.777 538.521 346.666 538.614 347.642 C 538.638 348.247 538.316 348.813 537.783 349.101 L 537.661 350.844 C 537.353 350.81 537.045 350.9 536.804 351.094 C 536.562 351.288 536.409 351.571 536.377 351.879 C 536.258 352.511 535.996 353.108 535.609 353.622 C 535.609 353.622 533.924 355.023 533.831 356.208 L 532.785 356.848 C 532.785 356.848 530.367 356.301 529.815 355.325 L 529.641 355.168 L 529.641 355.168 L 529.641 355.168 C 529.329 354.843 528.991 354.543 528.63 354.273 C 528.699 354.426 528.716 354.598 528.676 354.761 L 528.496 354.564 L 528.2 353.959 C 528.2 353.959 524.596 349.821 522.301 349.531 L 522.301 349.531 C 521.803 349.657 521.409 350.037 521.266 350.53 C 520.976 351.518 520.685 353.157 521.429 353.965 L 525.061 357.836 L 525.154 357.905 L 525.945 358.917 C 525.811 359.236 525.695 359.544 525.602 359.829 L 525.602 359.829 C 525.602 359.893 525.561 359.951 525.544 360.009 L 525.544 360.067 L 525.491 360.236 C 525.491 360.271 525.491 360.306 525.462 360.335 L 525.462 360.393 C 525.375 360.701 525.323 360.933 525.294 361.067 L 525.09 361.003 L 525.288 361.09 L 525.288 361.09 C 525.285 361.111 525.285 361.133 525.288 361.154 L 525.474 361.235 C 526.549 361.706 531.907 364.054 532.186 364.414 C 533.34 365.411 534.971 365.638 536.353 364.996 C 537.393 364.499 538.197 363.614 538.591 362.531 C 539.253 361.651 539.859 360.729 540.404 359.771 C 540.462 359.411 541.845 358.981 541.845 358.981 C 541.845 358.981 541.967 363.049 541.264 364.554 C 540.561 366.059 539.242 372.644 539.242 372.644 C 539.329 372.632 539.416 372.632 539.503 372.644 L 539.428 373.027 C 539.535 373.008 539.646 373.008 539.753 373.027 C 539.654 373.783 539.091 377.27 539.091 377.27 C 539.016 377.998 538.852 378.714 538.602 379.403 C 538.294 379.949 538.26 382.808 538.26 382.808 L 537.771 384.883 C 537.771 384.883 537.835 385.023 537.957 385.238 L 537.957 385.238 C 538.287 385.941 538.77 386.563 539.37 387.057 C 539.33 387.382 539.246 387.701 539.12 388.004 C 538.93 388.468 538.847 388.968 538.876 389.468 C 538.639 390.459 538.486 391.468 538.417 392.485 C 538.385 393.269 538.272 394.048 538.079 394.809 L 537.498 400.11 C 537.498 400.11 537.132 404.701 537.312 405.921 C 537.403 406.906 537.362 407.899 537.19 408.874 C 537.19 408.874 537.556 412.5 537.469 412.895 C 537.469 412.895 536.888 414.999 537.19 415.941 C 537.19 415.941 537.312 419.474 537.312 419.474 C 537.312 419.474 537.498 422.885 537.713 423.978 C 537.828 424.809 537.807 425.653 537.649 426.477 C 537.592 427.257 537.489 428.033 537.341 428.802 C 537.254 428.802 536.452 430.417 538.079 432.004 C 539.707 433.591 538.695 433.341 538.695 433.341 C 538.695 433.341 537.405 432.701 537.533 434.009 C 537.661 435.317 537.882 434.933 537.899 434.898 L 537.597 435.898 L 537.812 435.927 C 537.754 435.997 537.696 436.072 537.632 436.142 C 537.447 436.374 537.241 436.588 537.016 436.781 C 536.776 437.015 536.633 437.33 536.615 437.665 C 535.308 439.073 533.837 440.32 532.233 441.378 C 531.34 441.838 530.503 442.4 529.74 443.052 C 529.362 443.465 529.426 443.802 530.21 444.057 C 532.37 444.73 534.676 444.772 536.859 444.179 C 538.104 443.766 539.223 443.045 540.113 442.081 C 540.922 441.692 541.826 441.543 542.717 441.651 C 544.007 441.895 546.582 440.222 546.582 440.222 L 546.535 439.792 L 546.396 438.548 C 546.221 438.335 546.143 438.059 546.181 437.787 C 546.196 437.419 546.16 437.052 546.076 436.694 C 546.076 436.572 546.03 436.45 546.007 436.339 L 546.245 436.293 C 546.245 436.293 545.937 434.741 546.489 434.439 C 546.489 434.439 546.884 430.144 546.884 430.144 C 546.585 429.736 546.224 429.378 545.815 429.081 C 545.449 428.924 545.78 427.035 545.815 426.797 C 545.85 426.558 546.396 421.828 546.396 421.828 C 546.298 421.12 546.32 420.401 546.46 419.701 C 546.704 419.061 546.152 416.597 546.152 416.597 C 546.049 416.364 546.11 416.09 546.303 415.923 C 546.64 415.557 546.518 412.302 546.518 412.302 C 546.518 412.302 546.489 410.658 546.489 410.228 C 546.577 409.362 546.815 408.519 547.192 407.734 C 547.529 407.217 547.32 405.602 547.32 405.602 L 547.32 405.602 L 547.32 405.48 C 547.32 405.433 547.32 405.375 547.32 405.305 L 547.32 405.142 C 547.463 404.253 547.658 403.372 547.901 402.504 C 548.302 401.225 548.761 398.971 548.761 398.971 L 551.615 391.537 L 551.615 391.45 C 552.38 392.903 552.83 394.501 552.934 396.14 C 553.089 397.281 553.171 398.43 553.178 399.581 C 553.199 400.974 553.292 402.364 553.457 403.748 C 553.457 403.748 553.852 408.682 553.852 408.897 C 553.852 408.897 554.346 412.913 554.654 413.494 C 554.654 413.494 554.346 415.818 554.16 416.022 C 554.16 416.022 554.218 420.671 554.218 420.671 C 554.218 420.671 553.759 424.205 553.666 424.937 C 553.666 424.937 553.207 428.47 553.515 429.586 C 553.515 429.586 553.701 430.83 553.701 430.83 C 553.701 430.83 554.805 431.957 554.16 432.05 C 553.686 432.154 553.279 432.457 553.044 432.882 C 552.809 433.308 552.769 433.814 552.934 434.27 C 553.317 435.384 553.767 436.472 554.282 437.531 L 554.794 437.426 L 554.794 437.787 L 554.829 439.6 C 554.93 440.306 554.962 441.02 554.922 441.733 C 554.834 442.023 554.707 443.389 554.648 444.098 C 554.648 444.36 554.614 444.534 554.614 444.534 C 554.614 444.534 554.614 446.15 558.019 445.661 C 561.425 445.173 562.035 443.836 562.035 443.836 C 562.035 443.836 562.035 443.773 562.035 443.668 C 562.087 443.36 562.198 442.703 562.285 442.343 C 562.407 441.855 561.309 439.664 561.309 439.664 C 561.309 439.664 561.123 438.17 560.815 437.833 C 560.687 437.64 560.604 437.422 560.571 437.194 C 560.571 437.072 560.518 436.944 560.495 436.822 L 560.722 436.863 C 560.722 436.863 560.541 435.793 561.245 435.462 C 561.728 435.205 561.918 434.61 561.675 434.119 C 561.699 433.442 561.79 432.768 561.948 432.109 C 561.85 431.765 561.943 431.395 562.192 431.138 C 562.628 430.708 562.959 427.727 562.959 427.727 L 563.023 416.214 C 563.137 415.263 563.127 414.302 562.994 413.354 C 562.744 412.529 562.5 410.948 562.837 410.518 C 563.174 410.088 562.872 408.118 562.872 408.118 C 562.872 408.118 562.872 403.945 563.331 402.888 C 563.79 401.83 563.639 395.303 563.639 395.303 L 563.761 391.009 C 563.761 391.009 564.761 390.067 564.522 385.121 C 565.592 385.057 566.795 385.017 566.981 385.162 C 567.318 385.435 569.491 386.842 570.782 385.958 C 571.312 385.588 571.822 385.19 572.31 384.767 L 571.77 375.637 C 572.107 376.148 572.316 376.485 572.316 376.485 C 572.316 375.207 575.931 371.063 575.931 371.063 C 575.931 371.063 579.302 366.71 580.04 366.193 C 580.778 365.676 582.219 362.938 582.219 362.938 C 582.43 362.415 582.675 361.907 582.951 361.416 C 583.468 360.887 582.364 359.428 582.492 359.091 Z  M 574.577 362.287 C 573.658 362.38 571.729 364.484 571.671 364.937 C 571.606 365.241 571.467 365.522 571.264 365.757 C 571.264 365.571 571.264 365.385 571.223 365.176 C 571.002 362.485 570.77 359.207 570.875 358.893 C 570.998 357.893 571.039 356.884 570.997 355.877 L 570.997 355.877 L 571.032 355.831 C 571.648 357.743 573.571 359.992 573.571 359.992 C 573.571 359.992 573.908 360.968 574.303 360.997 C 574.699 361.026 574.577 362.287 574.577 362.287 L 574.577 362.287 Z " fill="url(#_lgradient_2)"/><path d=" M 525.416 361.596 C 525.416 361.596 526.537 355.732 530.135 355.703 L 532.762 361.108 L 531.018 362.316 C 531.018 362.316 527.2 362.438 525.416 361.596 Z " fill="rgb(101,97,125)"/><g opacity="0.1"><path d=" M 532.762 361.108 L 531.018 362.316 C 529.478 362.361 527.938 362.232 526.427 361.933 C 526.084 361.851 525.75 361.739 525.427 361.596 C 525.427 361.596 525.427 361.561 525.427 361.497 C 525.59 360.76 525.817 360.038 526.107 359.341 C 526.218 359.079 526.34 358.806 526.479 358.539 C 526.953 357.484 527.751 356.608 528.758 356.04 C 529.131 355.854 529.538 355.747 529.955 355.726 L 530.117 355.726 L 530.17 355.842 L 531.059 357.673 L 532.762 361.108 Z " fill="rgb(0,0,0)"/></g><path d=" M 562.616 385.464 C 562.616 385.464 566.394 385.104 566.725 385.377 C 566.725 385.377 569.207 387.039 570.474 386.162 C 570.474 386.162 570.898 382.233 570.898 382.093 C 570.898 382.093 570.776 377.653 570.776 377.653 L 568.509 374.602 L 565.667 369.25 L 559.856 368.669 L 560.007 377.159 L 560.007 381.507 L 562.616 385.464 Z " fill="rgb(101,97,125)"/><g opacity="0.1"><path d=" M 562.616 385.464 C 562.616 385.464 566.394 385.104 566.725 385.377 C 566.725 385.377 569.207 387.039 570.474 386.162 C 570.474 386.162 570.898 382.233 570.898 382.093 C 570.898 382.093 570.776 377.653 570.776 377.653 L 568.509 374.602 L 565.667 369.25 L 559.856 368.669 L 560.007 377.159 L 560.007 381.507 L 562.616 385.464 Z " fill="rgb(0,0,0)"/></g><path d=" M 529.362 355.552 C 529.362 355.552 529.066 359.236 526.764 359.294 C 526.764 359.294 526.113 358.905 525.241 358.248 C 523.219 356.737 520.011 353.837 520.906 351.135 C 522.173 347.27 528.339 354.401 528.339 354.401 L 528.816 354.93 L 529.362 355.552 Z " fill="rgb(251,190,190)"/><g opacity="0.1"><path d=" M 529.362 355.552 C 529.362 355.552 529.066 359.236 526.764 359.294 C 526.764 359.294 526.113 358.905 525.241 358.248 L 525.044 357.998 C 525.433 358.201 525.861 358.316 526.299 358.335 C 527.011 358.373 527.67 357.959 527.944 357.301 C 528.188 356.827 528.401 356.338 528.583 355.836 C 528.691 355.543 528.769 355.239 528.816 354.93 L 529.362 355.552 Z " fill="rgb(0,0,0)"/></g><path d=" M 528.38 362.229 L 527.863 361.561 L 526.119 359.323 L 525.23 358.161 C 525.621 358.365 526.051 358.482 526.491 358.504 C 527.201 358.535 527.855 358.119 528.13 357.464 C 528.373 356.991 528.586 356.504 528.769 356.005 C 529.054 355.186 529.048 354.767 528.949 354.628 C 529.304 354.901 529.636 355.203 529.943 355.528 L 529.943 355.528 L 530.112 355.685 L 530.17 355.807 L 531.047 357.551 C 531.047 357.551 531.047 357.551 531.047 357.626 C 531.146 358.202 531.443 361.729 528.38 362.229 Z " fill="rgb(231,239,253)"/><path d=" M 546.483 440.012 C 546.483 440.012 543.943 441.675 542.671 441.43 C 541.791 441.318 540.898 441.466 540.102 441.855 C 539.229 442.81 538.127 443.528 536.9 443.941 C 534.848 444.633 531.977 444.36 530.344 443.819 C 529.571 443.563 529.507 443.238 529.879 442.819 C 530.632 442.173 531.457 441.615 532.338 441.157 C 533.922 440.107 535.373 438.87 536.661 437.473 C 536.676 437.142 536.815 436.828 537.051 436.595 C 537.264 436.402 537.458 436.19 537.632 435.962 C 537.957 435.578 538.26 435.177 538.26 435.177 L 545.728 435.415 C 545.728 435.415 545.855 435.956 545.954 436.508 C 546.038 436.864 546.074 437.229 546.059 437.595 C 546.021 437.865 546.096 438.138 546.268 438.35 L 546.402 439.582 L 546.483 440.012 Z " fill="rgb(101,97,125)"/><path d=" M 562.105 442.093 C 562.012 442.459 561.907 443.104 561.855 443.412 C 561.855 443.511 561.855 443.575 561.855 443.575 C 561.855 443.575 561.274 444.906 557.897 445.388 C 554.521 445.871 554.544 444.272 554.544 444.272 C 554.544 444.272 554.544 444.098 554.579 443.842 C 554.627 443.063 554.716 442.287 554.846 441.518 C 554.883 440.811 554.852 440.103 554.753 439.402 L 554.718 437.601 L 554.718 436.345 L 560.274 435.764 C 560.311 436.18 560.372 436.593 560.454 437.002 C 560.491 437.228 560.574 437.443 560.698 437.635 C 561.001 437.967 561.181 439.449 561.181 439.449 C 561.181 439.449 562.227 441.611 562.105 442.093 Z " fill="rgb(101,97,125)"/><g opacity="0.1"><path d=" M 545.757 435.415 C 545.757 435.415 545.884 435.956 545.983 436.508 C 545.175 436.653 541.654 437.264 540.753 436.839 C 539.739 436.463 538.683 436.21 537.609 436.084 L 537.644 435.962 C 537.969 435.578 538.271 435.177 538.271 435.177 L 545.757 435.415 Z " fill="rgb(0,0,0)"/></g><g opacity="0.1"><path d=" M 560.408 436.99 C 559.001 436.746 555.91 437.327 554.695 437.572 L 554.695 436.316 L 560.251 435.735 C 560.28 436.156 560.332 436.575 560.408 436.99 L 560.408 436.99 Z " fill="rgb(0,0,0)"/></g><path d=" M 563.552 391.154 L 563.436 395.414 C 563.436 395.414 563.587 401.911 563.133 402.969 C 563.133 402.969 562.68 408.135 562.68 408.135 C 562.68 408.135 562.982 410.1 562.645 410.524 C 562.645 410.524 562.558 412.517 562.796 413.331 C 562.93 414.273 562.939 415.228 562.825 416.173 L 562.767 427.599 C 562.767 427.599 562.436 430.557 562.012 430.981 C 561.762 431.235 561.671 431.605 561.774 431.946 C 561.616 432.601 561.524 433.271 561.5 433.945 C 561.74 434.429 561.552 435.015 561.076 435.27 C 560.379 435.607 560.559 436.665 560.559 436.665 C 558.903 436.27 554.166 437.327 554.166 437.327 C 553.655 436.277 553.21 435.196 552.835 434.09 C 552.67 433.638 552.708 433.137 552.939 432.714 C 553.171 432.292 553.574 431.991 554.044 431.888 C 554.678 431.795 553.591 430.679 553.591 430.679 C 553.591 430.679 553.713 430.528 553.405 429.441 C 553.097 428.354 553.469 425.57 553.556 424.844 L 554.102 420.619 C 554.102 420.619 553.858 416.173 554.044 415.97 C 554.044 415.97 554.829 414.034 554.526 413.465 C 554.526 413.465 553.742 409.112 553.742 408.897 C 553.742 408.897 553.347 403.788 553.347 403.788 C 553.347 403.788 552.986 400.377 553.073 399.65 C 553.067 398.509 552.988 397.37 552.835 396.239 C 552.731 394.615 552.288 393.031 551.533 391.59 L 551.504 391.677 L 548.692 399.052 C 548.692 399.052 548.238 401.289 547.849 402.539 C 547.604 403.403 547.41 404.28 547.268 405.166 L 547.268 405.328 C 547.268 405.392 547.268 405.45 547.268 405.497 L 547.268 405.619 L 547.268 405.619 C 547.268 405.619 547.483 407.217 547.151 407.734 C 546.776 408.512 546.54 409.35 546.454 410.21 C 546.454 410.635 546.483 412.268 546.483 412.268 C 546.483 412.268 546.605 415.499 546.274 415.859 C 546.084 416.025 546.022 416.296 546.123 416.527 C 546.123 416.527 546.663 418.974 546.425 419.608 C 546.285 420.304 546.264 421.019 546.361 421.723 C 546.361 421.723 545.879 426.407 545.821 426.651 C 545.821 426.651 545.425 428.767 545.791 428.918 C 546.195 429.214 546.549 429.571 546.843 429.976 C 546.843 429.976 547 433.933 546.454 434.236 C 546.454 434.236 546.21 436.078 546.21 436.078 C 546.21 436.078 541.828 436.926 540.834 436.438 C 539.819 436.065 538.764 435.812 537.69 435.683 L 537.992 434.689 C 537.992 434.724 537.771 435.049 537.632 433.811 C 537.492 432.573 538.748 433.143 538.748 433.143 C 538.748 433.143 539.747 433.387 538.167 431.818 C 536.586 430.249 537.353 428.645 537.44 428.645 C 537.587 427.877 537.687 427.1 537.742 426.32 C 537.896 425.502 537.918 424.664 537.806 423.839 C 537.591 422.752 537.411 419.364 537.411 419.364 C 537.411 419.364 537.562 416.801 537.289 415.877 C 537.016 414.953 537.469 413.25 537.562 412.855 C 537.655 412.459 537.289 408.868 537.289 408.868 C 537.456 407.909 537.497 406.932 537.411 405.962 C 537.231 404.718 537.591 400.15 537.591 400.15 L 538.138 394.92 C 538.328 394.158 538.439 393.379 538.469 392.595 C 538.54 391.589 538.692 390.59 538.922 389.608 C 538.893 389.112 538.975 388.616 539.16 388.155 C 539.407 387.31 539.549 386.437 539.585 385.557 L 542.49 378.909 L 543.909 373.045 L 563.087 372.865 C 563.087 372.865 563.157 373.376 563.273 374.3 C 563.273 374.3 563.552 376.59 563.732 378.275 C 563.901 379.809 564.087 381.617 564.261 383.622 C 564.761 390.026 563.552 391.154 563.552 391.154 Z " fill="rgb(63,61,86)"/><path d=" M 561.774 338.268 L 557.299 343.045 C 557.299 343.045 551.557 340.72 552.161 339.965 C 552.394 339.657 552.359 338.698 552.225 337.64 C 552.01 335.966 551.557 334.043 551.557 334.043 C 551.557 334.043 561.588 332.41 560.745 334.101 C 560.474 334.738 560.451 335.453 560.681 336.106 C 560.923 336.882 561.292 337.612 561.774 338.268 L 561.774 338.268 Z " fill="rgb(251,190,190)"/><g opacity="0.1"><path d=" M 560.745 334.095 C 560.437 334.711 560.286 334.775 560.478 335.438 C 559.17 336.844 557.502 338.384 555.427 338.384 C 554.316 338.387 553.219 338.131 552.225 337.634 C 552.01 335.961 551.557 334.037 551.557 334.037 C 551.557 334.037 561.588 332.404 560.745 334.095 Z " fill="rgb(0,0,0)"/></g><path d=" M 562.616 331.009 C 562.691 333.627 561.336 336.079 559.081 337.41 C 556.825 338.741 554.024 338.741 551.768 337.41 C 549.512 336.079 548.158 333.627 548.232 331.009 L 548.232 330.91 C 548.367 327.016 551.576 323.937 555.472 323.963 C 559.369 323.99 562.536 327.114 562.616 331.009 Z " fill="rgb(251,190,190)"/><g opacity="0.1"><path d=" M 563.651 378.461 C 562.703 378.461 559.53 378.496 555.985 378.548 L 555.939 378.548 L 554.776 378.548 L 554.736 378.548 C 550.534 378.612 546.39 377.793 544.728 377.967 C 541.194 378.298 545.995 374.701 545.995 374.701 C 548.63 375.341 551.34 375.615 554.05 375.515 L 555.067 375.462 C 558.281 375.282 561.512 374.98 563.203 374.474 C 563.314 375.416 563.476 376.77 563.651 378.461 Z " fill="rgb(0,0,0)"/></g><path d=" M 563.651 378.275 C 562.703 378.275 559.53 378.31 555.985 378.368 L 555.939 378.368 L 554.776 378.368 L 554.736 378.368 C 550.534 378.438 546.39 377.619 544.728 377.787 C 541.194 378.118 545.995 374.521 545.995 374.521 C 548.63 375.161 551.34 375.435 554.05 375.335 L 555.067 375.282 C 558.281 375.102 561.512 374.8 563.203 374.294 C 563.314 375.23 563.476 376.59 563.651 378.275 Z " fill="rgb(227,167,159)"/><g opacity="0.1"><path d=" M 553.492 340.261 L 547.959 342.859 L 543.641 376.044 C 543.641 376.044 546.181 374.881 547.628 375.619 C 547.628 375.619 553.55 375.683 553.55 375.683 C 553.55 375.683 556.816 375.497 557.299 375.863 C 557.299 375.863 563.465 374.352 563.465 374.352 C 563.465 374.352 564.488 372.028 563.703 371.691 C 563.703 371.691 563.947 367.762 563.947 367.762 L 563.465 343.83 L 562.494 340.749 L 559.896 339.18 L 557.258 341.284 L 555.985 341.47 L 553.492 340.261 Z " fill="rgb(0,0,0)"/></g><path d=" M 553.492 339.895 L 547.959 342.493 L 543.67 375.677 C 543.67 375.677 546.21 374.515 547.657 375.253 C 547.657 375.253 553.579 375.311 553.579 375.311 C 553.579 375.311 556.845 375.131 557.328 375.491 C 557.328 375.491 563.494 373.98 563.494 373.98 C 563.494 373.98 564.517 371.656 563.732 371.324 C 563.732 371.324 563.976 367.396 563.976 367.396 L 563.494 343.463 L 562.523 340.377 L 559.925 338.808 L 557.258 340.924 L 555.985 341.104 L 553.492 339.895 Z " fill="rgb(231,239,253)"/><g opacity="0.1"><path d=" M 553.399 341.435 C 553.399 341.435 555.003 343.341 554.974 343.76 C 554.974 343.76 554.881 345.085 554.881 345.085 L 553.672 347.537 C 553.672 347.537 553.01 350.589 553.01 351.222 C 553.01 351.222 551.952 357.353 551.952 357.353 L 550.679 365.815 L 549.081 376.909 L 550.708 379.717 L 552.643 378.083 L 555.212 358.324 L 555.758 354.424 C 555.758 354.424 556.34 347.415 556.34 346.689 C 556.275 345.808 556.163 344.931 556.003 344.062 C 556.003 344.062 556.398 342.249 558.031 341.825 C 558.031 341.825 557.909 341.732 557.909 341.732 L 556.973 340.976 L 556.154 341.307 C 556.154 341.307 553.881 340.592 553.399 341.435 Z " fill="rgb(0,0,0)"/></g><path d=" M 553.219 341.255 C 553.219 341.255 554.823 343.161 554.788 343.58 C 554.788 343.58 554.701 344.911 554.701 344.911 L 553.492 347.357 C 553.492 347.357 552.824 350.414 552.824 351.048 C 552.824 351.048 551.766 357.179 551.766 357.179 L 550.499 365.641 L 548.895 376.729 L 550.528 379.542 L 552.463 377.909 L 555.032 358.149 L 555.578 354.25 C 555.578 354.25 556.159 347.241 556.159 346.515 C 556.096 345.632 555.985 344.753 555.828 343.882 C 555.828 343.882 556.223 342.069 557.856 341.65 C 557.856 341.65 557.734 341.557 557.734 341.557 L 556.799 340.802 L 555.979 341.133 C 555.979 341.133 553.701 340.412 553.219 341.255 Z " fill="rgb(63,61,86)"/><g opacity="0.1"><path d=" M 552.161 338.082 C 552.161 338.082 551.917 338.268 551.859 339.477 C 551.667 340.807 551.364 342.12 550.952 343.399 C 550.952 343.399 554.096 341.226 555.665 341.47 L 552.161 338.082 Z " fill="rgb(0,0,0)"/></g><path d=" M 552.161 337.721 C 552.161 337.721 551.917 337.902 551.859 339.11 C 551.667 340.443 551.364 341.757 550.952 343.039 C 550.952 343.039 554.096 340.866 555.665 341.104 L 552.161 337.721 Z " fill="rgb(231,239,253)"/><g opacity="0.1"><path d=" M 560.745 337.105 L 555.788 341.458 C 555.788 341.458 559.96 343.934 560.501 344.539 C 560.501 344.539 561.588 338.616 561.588 338.616 L 560.745 337.105 Z " fill="rgb(0,0,0)"/></g><path d=" M 560.925 336.757 L 555.968 341.104 C 555.968 341.104 560.14 343.585 560.681 344.19 C 561.221 344.794 561.774 338.268 561.774 338.268 L 560.925 336.757 Z " fill="rgb(231,239,253)"/><g opacity="0.1"><path d=" M 552.341 338.082 C 552.341 338.082 551.801 337.814 551.283 338.599 C 550.909 339.119 550.395 339.521 549.802 339.761 C 549.802 339.761 544.304 340.639 544.094 341.365 L 541.526 341.517 C 541.526 341.517 540.619 341.639 540.526 343.539 C 540.526 343.539 539.945 345.625 539.945 345.625 C 539.945 345.625 538.887 347.497 538.98 348.467 C 539.006 349.065 538.691 349.626 538.167 349.914 L 541.944 359.736 C 541.944 359.736 542.06 363.804 541.363 365.269 C 541.363 365.269 539.37 373.306 539.37 373.306 C 539.37 373.306 539.91 373.184 539.881 373.545 C 539.881 373.545 539.219 377.868 539.219 377.868 C 539.144 378.591 538.98 379.302 538.73 379.984 C 538.428 380.53 538.399 383.366 538.399 383.366 L 537.917 385.424 C 537.917 385.424 539.079 387.992 540.823 387.632 C 540.823 387.632 545.751 380.408 545.751 380.408 L 547.773 373.004 L 549.342 365.693 L 549.796 360.736 L 550.522 349.763 L 551.58 342.51 C 551.58 342.51 552.765 338.599 552.341 338.082 Z " fill="rgb(0,0,0)"/></g><path d=" M 552.161 337.721 C 552.161 337.721 551.615 337.448 551.103 338.233 C 550.73 338.753 550.216 339.156 549.621 339.395 C 549.621 339.395 544.124 340.273 543.914 340.993 L 541.346 341.145 C 541.346 341.145 540.439 341.267 540.346 343.173 C 540.346 343.173 539.765 345.259 539.765 345.259 C 539.765 345.259 538.707 347.131 538.8 348.095 C 538.823 348.695 538.506 349.257 537.981 349.548 L 541.758 359.37 C 541.758 359.37 541.88 363.438 541.177 364.897 C 541.177 364.897 539.178 372.94 539.178 372.94 C 539.178 372.94 539.724 372.818 539.695 373.178 C 539.695 373.178 539.027 377.502 539.027 377.502 C 538.955 378.225 538.793 378.935 538.544 379.618 C 538.242 380.158 538.213 383 538.213 383 L 537.731 385.057 C 537.731 385.057 538.893 387.626 540.637 387.26 C 540.637 387.26 545.565 380.036 545.565 380.036 L 547.587 372.638 L 549.156 365.321 L 549.61 360.364 L 550.336 349.397 L 551.394 342.144 C 551.394 342.144 552.609 338.233 552.161 337.721 Z " fill="rgb(101,97,125)"/><g opacity="0.1"><path d=" M 532.762 361.108 L 531.018 362.316 C 529.478 362.361 527.938 362.232 526.427 361.933 L 525.451 361.497 L 525.253 361.416 L 525.457 361.48 C 526.235 361.756 527.079 361.784 527.874 361.561 C 530.356 360.73 530.083 356.633 529.984 355.709 C 529.984 355.616 529.984 355.552 529.984 355.528 L 529.984 355.528 L 529.984 355.528 C 530.017 355.583 530.054 355.636 530.094 355.685 L 530.205 355.802 L 530.205 355.802 L 531.082 357.545 C 531.082 357.545 531.082 357.545 531.082 357.621 L 532.762 361.108 Z " fill="rgb(0,0,0)"/></g><path d=" M 538.835 349.31 L 537.986 349.554 L 537.87 351.298 C 537.236 351.233 536.668 351.692 536.597 352.326 C 536.483 352.958 536.224 353.554 535.842 354.07 C 535.842 354.07 534.18 355.459 534.098 356.633 L 533.07 357.272 C 533.07 357.272 530.681 356.726 530.164 355.761 C 530.164 355.761 531.251 363.554 525.445 361.654 C 525.445 361.654 531.942 364.49 532.245 364.885 C 533.379 365.874 534.989 366.102 536.353 365.466 C 537.379 364.969 538.172 364.091 538.562 363.02 C 538.562 363.02 540.305 360.567 540.375 360.207 C 540.375 360.207 541.793 359.422 541.793 359.422 L 544.397 353.134 L 538.835 349.31 Z " fill="rgb(101,97,125)"/><g opacity="0.1"><path d=" M 560.047 340.744 L 560.925 336.757 C 561.084 337.334 561.35 337.876 561.71 338.355 L 563.011 339.355 C 563.567 339.619 564.152 339.814 564.755 339.936 C 565.208 339.936 567.661 340.569 567.957 340.9 C 568.254 341.232 569.468 340.993 569.468 340.993 C 569.468 340.993 570.468 341.325 571.345 341.534 C 572.223 341.743 572.641 343.196 572.461 343.771 C 572.312 344.353 572.472 344.969 572.885 345.405 C 573.174 345.874 573.36 346.399 573.432 346.945 C 573.876 347.088 574.245 347.404 574.455 347.822 C 574.649 348.509 574.722 349.225 574.67 349.938 L 570.171 356.284 C 570.211 357.281 570.17 358.28 570.049 359.271 C 569.869 359.817 570.683 369.064 570.683 369.064 L 571.624 384.959 C 571.142 385.373 570.637 385.761 570.113 386.121 C 569.84 386.243 569.567 380.501 569.567 380.309 C 569.567 380.118 562.593 369.848 562.593 369.848 C 562.214 369.27 561.901 368.653 561.657 368.006 C 561.657 367.675 560.78 364.624 560.78 364.624 L 559.449 358.731 L 560.047 340.744 Z " fill="rgb(0,0,0)"/></g><path d=" M 575.047 349.612 C 575.047 349.821 575.047 349.961 575.047 349.961 L 570.537 356.284 L 570.537 356.284 C 570.58 357.281 570.541 358.28 570.421 359.271 C 570.317 359.591 570.543 362.839 570.758 365.513 C 570.909 367.442 571.055 369.064 571.055 369.064 L 571.45 375.805 L 571.99 384.959 C 571.509 385.374 571.005 385.762 570.479 386.121 C 570.206 386.243 569.933 380.501 569.933 380.309 C 569.933 380.118 562.959 369.848 562.959 369.848 C 562.581 369.27 562.267 368.653 562.023 368.006 C 562.023 367.675 561.146 364.624 561.146 364.624 L 559.821 358.731 L 560.402 340.715 L 560.913 336.728 C 561.239 337.303 561.629 337.839 562.076 338.326 L 563.372 339.326 C 563.927 339.589 564.513 339.785 565.115 339.907 C 565.569 339.907 568.021 340.54 568.317 340.871 C 568.614 341.203 569.828 340.964 569.828 340.964 C 569.828 340.964 570.822 341.296 571.7 341.505 C 572.577 341.714 573.002 343.167 572.822 343.742 C 572.671 344.322 572.829 344.939 573.24 345.375 C 573.531 345.844 573.717 346.369 573.786 346.916 C 574.233 347.058 574.604 347.374 574.815 347.793 C 575.005 348.38 575.084 348.997 575.047 349.612 Z " fill="rgb(101,97,125)"/><g opacity="0.1"><path d=" M 538.108 430.127 C 538.26 430.127 544.606 430.371 544.501 431.4 C 544.397 432.428 538.108 430.127 538.108 430.127 Z " fill="rgb(0,0,0)"/></g><g opacity="0.1"><path d=" M 539.532 431.835 C 539.532 431.835 543.792 432.527 542.671 433.166 C 541.549 433.806 539.532 431.835 539.532 431.835 Z " fill="rgb(0,0,0)"/></g><g opacity="0.1"><path d=" M 555.363 429.464 C 555.363 429.464 562.436 430.045 561.378 430.853 C 561.378 430.853 557.81 431.76 557.694 431.789 C 556.878 431.054 556.1 430.278 555.363 429.464 L 555.363 429.464 Z " fill="rgb(0,0,0)"/></g><g opacity="0.1"><path d=" M 554.521 432.579 C 554.521 432.579 558.449 433.242 558.589 433.997 C 558.728 434.753 554.521 432.579 554.521 432.579 Z " fill="rgb(0,0,0)"/></g><g opacity="0.1"><path d=" M 556.677 414.4 C 556.677 414.4 560.274 415.249 560.483 415.824 L 556.677 414.4 Z " fill="rgb(0,0,0)"/></g><g opacity="0.1"><path d=" M 542.822 416.987 C 542.822 416.987 540.95 417.527 542.764 418.614 C 544.577 419.701 542.822 416.987 542.822 416.987 Z " fill="rgb(0,0,0)"/></g><g opacity="0.1"><path d=" M 551.132 387.946 C 551.347 387.946 554.619 386.859 555.782 387.365 C 556.604 387.671 557.473 387.834 558.35 387.847 L 551.132 387.946 Z " fill="rgb(0,0,0)"/></g><g opacity="0.1"><path d=" M 551.557 391.386 L 551.528 391.688 L 548.715 399.063 C 548.715 399.063 548.261 401.301 547.872 402.55 C 547.628 403.414 547.434 404.291 547.291 405.177 L 549.784 389.713 L 551.557 391.386 Z " fill="rgb(0,0,0)"/></g><path d=" M 555.944 378.368 L 554.782 378.368 L 554.741 378.368 L 554.056 375.323 L 555.073 375.271 L 555.944 378.368 Z " fill="rgb(63,61,86)"/><path d=" M 570.2 374.678 L 569.451 375.3 L 566.94 377.369 C 566.94 377.369 560.14 380.995 558.263 377.549 C 556.613 374.515 564.325 372.318 566.179 371.877 L 566.574 371.778 L 570.2 374.678 Z " fill="rgb(251,190,190)"/><g opacity="0.1"><path d=" M 541.16 344.974 C 541.16 344.974 542.49 345.556 542.793 346.422 C 543.095 347.287 541.16 344.974 541.16 344.974 Z " fill="rgb(0,0,0)"/></g><g opacity="0.1"><path d=" M 537.051 354.041 C 537.051 354.041 535.115 356.394 535.888 357.301 C 536.661 358.208 537.051 354.041 537.051 354.041 Z " fill="rgb(0,0,0)"/></g><g opacity="0.1"><path d=" M 571.624 346.305 C 571.624 346.305 569.811 346.485 569.747 348.049 L 571.624 346.305 Z " fill="rgb(0,0,0)"/></g><g opacity="0.1"><path d=" M 554.823 371.08 C 555.003 370.9 559.17 364.734 560.14 365.269 L 554.823 371.08 Z " fill="rgb(0,0,0)"/></g><g opacity="0.1"><path d=" M 562.616 331.009 C 562.617 332.195 562.326 333.363 561.768 334.409 L 561.715 334.409 C 561.256 334.31 561.018 333.781 560.669 333.45 C 560.232 333.032 559.577 332.941 559.042 333.223 C 558.5 333.542 558.189 334.143 558.24 334.769 C 558.008 333.804 558.083 332.776 557.856 331.805 C 557.63 330.835 556.956 329.853 556.026 329.835 C 555.631 329.835 555.166 329.986 554.863 329.684 C 554.689 329.504 554.654 329.219 554.521 329.004 C 553.864 327.929 551.847 328.475 551.034 329.004 C 550.152 329.71 549.215 330.346 548.232 330.904 C 548.367 327.01 551.576 323.931 555.472 323.958 C 559.369 323.984 562.536 327.108 562.616 331.003 L 562.616 331.009 Z " fill="rgb(0,0,0)"/></g><path d=" M 554.532 328.806 C 554.666 329.027 554.701 329.312 554.875 329.492 C 555.166 329.789 555.631 329.637 556.037 329.643 C 556.961 329.643 557.636 330.643 557.862 331.613 C 558.089 332.584 558.013 333.613 558.246 334.577 C 558.194 333.949 558.505 333.347 559.048 333.026 C 559.584 332.747 560.238 332.84 560.675 333.258 C 561.024 333.589 561.256 334.118 561.721 334.217 C 562.186 334.316 562.616 333.874 562.779 333.392 C 562.893 332.895 562.981 332.393 563.04 331.887 C 563.244 330.945 563.86 330.172 564.203 329.277 C 564.604 328.185 564.592 326.984 564.168 325.901 C 563.941 325.319 563.587 324.825 563.378 324.256 C 563.029 323.396 562.936 322.425 562.512 321.606 C 561.812 320.233 560.215 319.576 558.751 320.06 C 558.095 320.304 557.525 320.781 556.857 320.996 C 555.962 321.286 555.009 321.065 554.085 320.937 C 553.161 320.81 552.138 320.798 551.394 321.408 C 550.54 322.106 550.307 323.419 549.499 324.192 C 549.162 324.512 548.744 324.721 548.389 325.017 C 547.997 325.303 547.766 325.759 547.767 326.243 C 547.82 326.871 548.43 327.441 548.203 328.016 C 548.124 328.184 548.011 328.334 547.872 328.458 C 547.198 329.164 546.696 330.018 546.408 330.951 C 548.023 331.457 549.772 329.672 551.057 328.83 C 551.859 328.278 553.875 327.737 554.532 328.806 Z " fill="rgb(63,61,86)"/><g opacity="0.1"><path d=" M 570.2 374.678 L 569.451 375.3 C 568.788 374.195 566.063 371.987 566.063 371.987 L 566.179 371.877 L 566.574 371.778 L 570.2 374.678 Z " fill="rgb(0,0,0)"/></g><path d=" M 570.927 373.562 C 570.927 373.562 570.66 374.23 570.375 374.817 C 570.375 374.817 569.794 375.927 569.794 375.497 C 569.759 374.649 566.254 371.807 566.254 371.807 L 566.731 371.342 L 567.312 370.807 L 570.927 373.562 Z " fill="rgb(231,239,253)"/><g opacity="0.1"><path d=" M 571.049 369.07 L 571.444 375.811 C 570.508 374.352 567.957 370.581 566.272 370.732 L 570.293 366.111 C 570.458 365.927 570.612 365.733 570.753 365.53 C 570.904 367.466 571.049 369.07 571.049 369.07 Z " fill="rgb(0,0,0)"/></g><g opacity="0.1"><path d=" M 570.927 373.562 C 570.927 373.562 570.66 374.23 570.375 374.817 C 569.323 373.37 567.876 371.662 566.719 371.33 L 567.3 370.796 L 570.927 373.562 Z " fill="rgb(0,0,0)"/></g><path d=" M 573.949 349.112 L 575.036 349.961 C 575.036 349.961 576.849 349.961 577.029 351.501 C 577.029 351.501 578.877 353.709 578.877 353.709 C 578.877 353.709 580.115 354.947 580.115 355.523 C 580.115 355.523 581.051 357.121 581.051 357.214 C 581.051 357.214 581.957 359.143 581.835 359.48 C 581.835 359.48 582.8 361.259 582.469 361.805 C 582.197 362.294 581.954 362.798 581.742 363.316 C 581.742 363.316 580.324 366.036 579.598 366.547 C 579.598 366.547 575.53 371.383 575.53 371.383 C 575.53 371.383 571.961 375.491 571.961 376.764 C 571.961 376.764 568.474 370.953 566.429 371.115 L 570.45 366.466 C 570.45 366.466 571.148 365.71 571.177 365.257 C 571.177 365.257 573.112 362.717 574.019 362.63 C 574.019 362.63 574.17 361.387 573.775 361.357 C 573.379 361.328 573.048 360.364 573.048 360.364 C 573.048 360.364 570.392 357.22 570.357 355.226 C 570.322 353.233 573.949 349.112 573.949 349.112 Z " fill="rgb(101,97,125)"/><g opacity="0.1"><path d=" M 575.553 351.983 C 575.553 351.983 573.013 353.86 573.554 354.465 C 574.094 355.069 575.553 351.983 575.553 351.983 Z " fill="rgb(0,0,0)"/></g><g opacity="0.1"><path d=" M 575.669 359.719 C 575.669 359.719 580.382 358.208 580.9 359.719 L 575.669 359.719 Z " fill="rgb(0,0,0)"/></g><g opacity="0.1"><path d=" M 546.483 440.012 C 546.483 440.012 543.943 441.675 542.671 441.43 C 541.791 441.318 540.898 441.466 540.102 441.855 C 539.229 442.81 538.127 443.528 536.9 443.941 C 534.848 444.633 531.977 444.36 530.344 443.819 C 529.571 443.563 529.507 443.238 529.879 442.819 C 531.658 443.174 535.621 443.877 536.69 443.366 C 537.866 442.74 538.996 442.033 540.073 441.25 C 540.073 441.25 542.671 440.884 543.037 440.884 C 544.192 440.515 545.325 440.081 546.431 439.582 L 546.483 440.012 Z " fill="rgb(0,0,0)"/></g><g opacity="0.1"><path d=" M 561.855 443.412 C 561.855 443.511 561.855 443.575 561.855 443.575 C 561.855 443.575 561.274 444.906 557.897 445.388 C 554.521 445.871 554.544 444.272 554.544 444.272 C 554.544 444.272 554.544 444.098 554.579 443.842 C 555.613 444.243 557.932 444.691 561.855 443.412 Z " fill="rgb(0,0,0)"/></g><g opacity="0.1"><path d=" M 542.415 351.635 C 542.415 351.635 542.415 358.521 541.834 359.19 C 541.253 359.858 542.415 351.635 542.415 351.635 Z " fill="rgb(0,0,0)"/></g><g opacity="0.1"><line x1="569.66" y1="353.843" x2="570.532" y2="356.307"/></g><g style="opacity:0.1;"><g opacity="0.1"><path d=" M 548.29 327.429 C 548.511 326.848 547.93 326.307 547.855 325.686 C 547.78 325.858 547.748 326.045 547.762 326.232 C 547.796 326.691 548.139 327.115 548.227 327.539 C 548.251 327.504 548.272 327.467 548.29 327.429 Z " fill="rgb(0,0,0)"/></g><g opacity="0.1"><path d=" M 558.321 333.938 C 558.101 332.985 558.164 331.974 557.949 331.032 C 557.734 330.091 557.043 329.085 556.119 329.068 C 555.718 329.068 555.253 329.213 554.956 328.917 C 554.782 328.737 554.747 328.452 554.614 328.231 C 553.951 327.162 551.94 327.702 551.127 328.231 C 549.889 329.056 548.192 330.777 546.605 330.387 C 546.527 330.577 546.459 330.771 546.402 330.968 C 548.017 331.474 549.767 329.69 551.051 328.847 C 551.876 328.266 553.893 327.754 554.538 328.847 C 554.672 329.068 554.707 329.353 554.881 329.533 C 555.171 329.829 555.636 329.678 556.043 329.684 C 556.967 329.684 557.641 330.684 557.868 331.654 C 558.095 332.625 558.019 333.653 558.252 334.618 C 558.225 334.389 558.249 334.157 558.321 333.938 Z " fill="rgb(0,0,0)"/></g><g opacity="0.1"><path d=" M 562.866 332.805 C 562.698 333.281 562.285 333.723 561.803 333.624 C 561.32 333.525 561.111 332.997 560.762 332.665 C 560.322 332.25 559.666 332.159 559.129 332.439 C 558.617 332.747 558.311 333.306 558.327 333.903 C 558.451 333.534 558.705 333.222 559.042 333.026 C 559.578 332.747 560.233 332.84 560.669 333.258 C 561.018 333.589 561.25 334.118 561.715 334.217 C 562.18 334.316 562.61 333.874 562.773 333.392 C 562.859 333.11 562.915 332.82 562.942 332.526 C 562.918 332.619 562.895 332.712 562.866 332.805 Z " fill="rgb(0,0,0)"/></g><g opacity="0.1"><path d=" M 564.284 328.684 C 563.947 329.585 563.331 330.358 563.122 331.3 C 563.079 331.491 563.048 331.685 563.029 331.881 C 563.238 330.939 563.848 330.172 564.191 329.277 C 564.342 328.874 564.436 328.451 564.47 328.022 C 564.424 328.247 564.362 328.468 564.284 328.684 Z " fill="rgb(0,0,0)"/></g></g><g><rect x="183.278" y="111.95" width="43.006" height="44.587" transform="matrix(1,0,0,1,0,0)" fill="rgb(223,227,239)"/><path d=" M 211.199 133.461 C 212.409 132.914 213.367 132.092 214.074 130.997 C 214.781 129.902 215.134 128.699 215.134 127.387 C 215.134 126.177 214.848 125.085 214.274 124.111 C 213.701 123.136 212.985 122.357 212.126 121.771 C 211.266 121.185 210.292 120.8 209.203 120.615 C 209.026 120.585 208.827 120.558 208.62 120.533 L 208.62 118.803 C 208.62 118.167 208.104 117.651 207.468 117.651 L 205.164 117.651 C 204.528 117.651 204.013 118.167 204.013 118.803 L 204.013 120.338 L 201.611 120.338 L 201.611 118.803 C 201.611 118.167 201.095 117.651 200.459 117.651 L 198.155 117.651 C 197.519 117.651 197.004 118.167 197.004 118.803 L 197.004 120.338 L 193.053 120.338 L 193.053 148.341 L 197.004 148.341 L 197.004 149.685 C 197.004 150.321 197.52 150.837 198.156 150.837 L 200.46 150.837 C 201.096 150.837 201.611 150.321 201.611 149.685 L 201.611 148.341 L 202.585 148.341 C 203.088 148.338 203.562 148.333 204.013 148.328 L 204.013 149.685 C 204.013 150.321 204.529 150.837 205.165 150.837 L 207.469 150.837 C 208.105 150.837 208.621 150.321 208.621 149.685 L 208.621 148.21 C 208.94 148.192 209.204 148.172 209.404 148.151 C 210.907 147.985 212.171 147.543 213.196 146.823 C 214.221 146.104 215.029 145.142 215.622 143.939 C 216.214 142.735 216.51 141.497 216.51 140.223 C 216.51 138.606 216.051 137.199 215.134 136.002 C 214.218 134.805 212.906 133.958 211.199 133.461 Z  M 201.954 124.999 C 204.616 124.999 206.227 125.031 206.787 125.095 C 207.729 125.209 208.439 125.537 208.917 126.078 C 209.395 126.619 209.633 127.323 209.633 128.189 C 209.633 129.093 209.356 129.822 208.802 130.376 C 208.248 130.93 207.487 131.265 206.519 131.379 C 205.985 131.443 204.615 131.475 202.413 131.475 L 198.707 131.475 L 198.707 124.999 L 201.954 124.999 Z  M 209.872 142.334 C 209.343 142.926 208.659 143.299 207.818 143.452 C 207.27 143.567 205.978 143.624 203.941 143.624 L 198.707 143.624 L 198.707 136.135 L 203.272 136.135 C 205.844 136.135 207.516 136.269 208.286 136.537 C 209.057 136.804 209.646 137.231 210.053 137.817 C 210.46 138.402 210.664 139.115 210.664 139.956 C 210.665 140.949 210.4 141.742 209.872 142.334 Z " fill="rgb(0,71,187)"/></g><g><rect x="294.193" y="112.275" width="43.006" height="44.587" transform="matrix(1,0,0,1,0,0)" fill="rgb(223,227,239)"/><g><path d=" M 315.261 119.093 L 306.541 134.422 C 306.454 134.575 306.503 134.777 306.651 134.872 L 315.413 140.509 C 315.575 140.613 315.837 140.613 315.998 140.509 L 324.742 134.872 C 324.89 134.777 324.939 134.575 324.852 134.421 L 316.15 119.093 C 315.905 118.662 315.507 118.662 315.261 119.093 Z " fill="rgb(0,71,187)"/><path d=" M 315.706 142.085 L 324.109 136.73 Q 324.466 136.563 324.708 136.8 Q 324.95 137.037 324.795 137.349 L 316.039 150.217 C 315.968 150.326 315.86 150.365 315.706 150.369 L 315.706 150.369 C 315.551 150.365 315.443 150.326 315.372 150.217 L 306.616 137.349 Q 306.461 137.037 306.703 136.8 Q 306.945 136.563 307.302 136.73 L 315.706 142.085 Z " fill="rgb(0,71,187)"/></g></g><g opacity="0.2"><rect x="239.956" y="112.275" width="43.006" height="44.587" transform="matrix(1,0,0,1,0,0)" fill="rgb(0,71,187)"/></g><g opacity="0.2"><rect x="348.91" y="111.95" width="43.006" height="44.587" transform="matrix(1,0,0,1,0,0)" fill="rgb(0,71,187)"/></g><g opacity="0.2"><rect x="404.121" y="111.95" width="43.006" height="44.587" transform="matrix(1,0,0,1,0,0)" fill="rgb(0,71,187)"/></g><g opacity="0.1"><rect x="418.382" y="103.817" width="43.006" height="44.587" transform="matrix(0.797,-0.603,0.603,0.797,12.998,290.944)" fill="rgb(0,71,187)"/></g><rect x="183.278" y="200.363" width="98.217" height="73.227" transform="matrix(1,0,0,1,0,0)" fill="rgb(223,227,239)"/><g><circle vector-effect="non-scaling-stroke" cx="232.3864621445815" cy="239.90555965739347" r="22.6371511068335" fill="rgb(0,71,187)"/><circle vector-effect="non-scaling-stroke" cx="232.38646214458194" cy="232.1240913940579" r="6.852852139792333" fill="rgb(255,255,255)"/><path d=" M 232.386 241.119 C 225.527 241.119 219.966 246.68 219.966 253.54 L 244.807 253.54 C 244.807 246.68 239.246 241.119 232.386 241.119 Z " fill="rgb(255,255,255)"/></g><rect x="308.583" y="169.753" width="149.005" height="110.811" transform="matrix(1,0,0,1,0,0)" fill="rgb(223,227,239)"/><rect x="323.92" y="253.139" width="6.102" height="20.451" transform="matrix(1,0,0,1,0,0)" fill="rgb(255,255,255)"/><rect x="335.543" y="227.823" width="6.102" height="45.767" transform="matrix(1,0,0,1,0,0)" fill="rgb(255,255,255)"/><rect x="347.167" y="205.012" width="6.102" height="68.578" transform="matrix(1,0,0,1,0,0)" fill="rgb(223,227,239)"/><rect x="358.79" y="188.74" width="6.102" height="84.85" transform="matrix(1,0,0,1,0,0)" fill="rgb(255,255,255)"/><rect x="347.167" y="188.74" width="6.102" height="84.85" transform="matrix(1,0,0,1,0,0)" fill="rgb(0,71,187)"/><rect x="370.413" y="226.951" width="6.102" height="46.639" transform="matrix(1,0,0,1,0,0)" fill="rgb(0,71,187)"/><rect x="382.037" y="214.892" width="6.102" height="58.698" transform="matrix(1,0,0,1,0,0)" fill="rgb(255,255,255)"/><rect x="393.66" y="196.585" width="6.102" height="77.004" transform="matrix(1,0,0,1,0,0)" fill="rgb(255,255,255)"/><g opacity="0.2"><rect x="405.283" y="239.301" width="6.102" height="34.289" transform="matrix(1,0,0,1,0,0)" fill="rgb(0,71,187)"/></g><g opacity="0.2"><rect x="416.906" y="223.464" width="6.102" height="50.126" transform="matrix(1,0,0,1,0,0)" fill="rgb(0,71,187)"/></g><g opacity="0.2"><rect x="428.53" y="205.012" width="6.102" height="68.578" transform="matrix(1,0,0,1,0,0)" fill="rgb(0,71,187)"/></g><g opacity="0.2"><rect x="440.153" y="205.012" width="6.102" height="68.578" transform="matrix(1,0,0,1,0,0)" fill="rgb(0,71,187)"/></g><path d=" M 474.244 159.048 L 480.219 155.689 L 483.02 157.368 L 539.009 426.866 L 535.656 427.506 L 528.659 421.433 L 474.244 159.048 L 474.244 159.048 Z " fill="rgb(101,97,125)"/><g opacity="0.1"><path d=" M 480.219 155.689 L 535.656 427.506 L 539.009 426.866 L 483.02 157.368 L 480.219 155.689 L 480.219 155.689 Z " fill="rgb(0,0,0)"/></g><path d=" M 439.008 170.421 L 481.619 174.501 L 481.619 177.796 L 439.235 174.106 L 439.008 170.421 L 439.008 170.421 Z " fill="rgb(101,97,125)"/><path d=" M 443.524 210.568 L 488.709 210.568 L 488.709 215.392 L 442.943 215.392 L 443.524 210.568 L 443.524 210.568 Z " fill="rgb(101,97,125)"/><path d=" M 447.668 252.662 L 493.283 250.849 L 498.99 252.662 L 498.99 255.754 L 458.46 257.887 L 448.039 257.887 L 447.668 252.662 L 447.668 252.662 Z " fill="rgb(101,97,125)"/><g opacity="0.1"><path d=" M 459.041 255.173 L 498.99 252.662 L 498.99 255.754 L 458.46 257.887 L 459.041 255.173 L 459.041 255.173 Z " fill="rgb(0,0,0)"/></g><g opacity="0.1"><path d=" M 447.668 252.662 L 459.041 255.173 L 458.46 257.887 L 448.039 257.887 L 447.668 252.662 L 447.668 252.662 Z " fill="rgb(0,0,0)"/></g><path d=" M 451.8 298.348 L 502.163 293.675 L 507.714 295.122 L 507.714 298.348 L 462.726 303.072 L 451.8 304.043 L 451.8 298.348 L 451.8 298.348 Z " fill="rgb(101,97,125)"/><g opacity="0.1"><path d=" M 462.534 300.358 L 502.71 296.319 L 507.714 295.122 L 507.714 298.348 L 462.726 303.072 L 462.534 300.358 L 462.534 300.358 Z " fill="rgb(0,0,0)"/></g><g opacity="0.1"><path d=" M 451.125 300.951 L 462.534 300.358 L 462.726 303.072 L 451.8 304.043 L 451.125 300.951 L 451.125 300.951 Z " fill="rgb(0,0,0)"/></g><path d=" M 454.194 343.783 L 510.991 336.24 L 515.861 338.175 L 515.861 341.859 L 466.869 349.229 L 455.356 349.229 L 454.194 343.783 L 454.194 343.783 Z " fill="rgb(101,97,125)"/><g opacity="0.1"><path d=" M 466.869 346.898 L 515.861 338.175 L 515.861 341.859 L 466.869 349.229 L 466.869 346.898 L 466.869 346.898 Z " fill="rgb(0,0,0)"/></g><g opacity="0.1"><path d=" M 454.874 346.962 L 466.869 346.898 L 466.869 349.229 L 455.356 349.229 L 454.874 346.962 L 454.874 346.962 Z " fill="rgb(0,0,0)"/></g><path d=" M 457.547 390.567 L 519.848 378.949 L 525.364 382.192 L 525.364 384.755 L 470.699 398.017 L 459.43 398.872 L 457.547 390.567 L 457.547 390.567 Z " fill="rgb(101,97,125)"/><g opacity="0.1"><path d=" M 470.699 395.379 L 525.364 382.192 L 525.364 384.755 L 470.699 398.017 L 470.699 395.379 L 470.699 395.379 Z " fill="rgb(0,0,0)"/></g><g opacity="0.1"><path d=" M 458.774 395.977 L 470.699 395.379 L 470.699 398.017 L 459.43 398.872 L 458.774 395.977 L 458.774 395.977 Z " fill="rgb(0,0,0)"/></g><path d=" M 442.978 152.33 L 437.939 153.451 L 456.141 443.244 L 461.459 445.202 L 465.66 445.202 L 442.978 152.33 L 442.978 152.33 Z " fill="rgb(101,97,125)"/><g opacity="0.1"><path d=" M 440.519 152.876 L 461.459 445.202 L 465.66 445.202 L 442.978 152.33 L 440.519 152.876 L 440.519 152.876 Z " fill="rgb(0,0,0)"/></g><rect x="423.643" y="101.995" width="43.006" height="44.587" transform="matrix(0.797,-0.603,0.603,0.797,15.163,293.749)" fill="rgb(255,255,255)"/><rect x="423.643" y="101.995" width="43.006" height="44.587" transform="matrix(0.797,-0.603,0.603,0.797,15.163,293.749)" fill="rgb(223,227,239)"/><g><g opacity="0.45"><path d=" M 441.655 110.866 L 442.374 121.008 L 434.057 126.495 L 433.335 116.356 L 441.655 110.866" fill="rgb(0,0,0)"/></g><g opacity="0.6"><path d=" M 442.374 121.008 L 450.693 115.518 L 441.655 110.866 L 433.335 116.356 L 442.374 121.008 Z " fill="rgb(0,71,187)"/></g><g opacity="0.8"><path d=" M 443.093 131.145 L 442.374 121.008 L 433.335 116.356 L 434.057 126.495 L 443.093 131.145 Z " fill="rgb(0,71,187)"/></g><g opacity="0.45"><path d=" M 450.454 142.212 L 449.735 132.07 L 458.055 126.581 L 458.774 136.723 L 450.454 142.212 Z " fill="rgb(0,0,0)"/></g><g opacity="0.6"><path d=" M 449.735 132.07 L 441.415 137.56 L 450.454 142.212 L 458.774 136.723 L 449.735 132.07 Z " fill="rgb(0,71,187)"/></g><g opacity="0.8"><path d=" M 449.015 121.933 L 449.735 132.07 L 458.774 136.723 L 458.055 126.581 L 449.015 121.933 Z " fill="rgb(0,71,187)"/></g></g><linearGradient id="_lgradient_3" x1="0" y1="0.5" x2="0.038387809087520056" y2="1.499262916410621" gradientTransform="matrix(69.951,0,0,136.52,418.273,120.888)" gradientUnits="userSpaceOnUse"><stop offset="100%" stop-opacity="0.1" style="stop-color:rgb(128,128,128)"/><stop offset="100%" stop-opacity="0.10015601446548812" style="stop-color:rgb(128,128,128)"/><stop offset="100%" stop-opacity="0.12054761077386329" style="stop-color:rgb(128,128,128)"/></linearGradient><path d=" M 488.204 253.604 C 487.774 252.046 487.495 250.698 487.495 250.698 C 487.486 249.656 487.212 248.634 486.699 247.728 L 486.699 247.298 L 486.699 247.298 L 486.577 244.136 C 486.774 243.555 487.021 242.991 487.315 242.451 C 487.843 241.434 487.134 237.802 487.134 237.802 C 487.134 237.802 484.81 232.746 485.217 229.468 C 485.623 226.19 480.323 215.171 480.323 215.171 C 480.31 214.089 480.421 213.008 480.654 211.952 C 480.697 211.729 480.709 211.503 480.689 211.277 C 480.692 211.25 480.692 211.223 480.689 211.196 L 480.689 211.196 C 480.532 209.051 478.679 205.088 478.679 205.088 L 478.615 197.405 C 478.615 197.405 479.521 192.837 477.522 186.834 C 476.819 184.736 476.36 183.056 476.057 181.754 C 476.023 181.609 475.994 181.464 475.964 181.33 C 479.579 180.633 482.357 180.063 482.357 180.063 C 482.357 180.063 479.905 171.311 478.417 169.823 C 476.929 168.335 475.604 163.517 475.604 163.517 C 475.604 163.517 474.622 157.305 475.749 155.433 C 476.877 153.562 476.912 150.412 476.912 150.412 C 476.912 150.412 479.574 148.32 479.882 147.425 C 480.317 146.147 480.573 144.815 480.643 143.467 C 480.602 142.421 480.224 141.491 480.317 140.939 C 480.41 140.387 479.417 138.318 479.835 137.307 C 479.944 136.997 479.993 136.67 479.98 136.342 C 479.98 136.342 479.98 136.342 479.98 136.313 L 479.98 136.313 C 479.951 135.444 479.838 134.58 479.643 133.732 C 478.826 133.094 477.883 132.634 476.877 132.384 L 476.807 132.152 L 476.627 131.536 C 476.539 131.482 476.448 131.433 476.354 131.39 L 476.354 131.164 L 476.296 130.269 L 476.65 128.235 C 477.353 124.695 472.658 124.352 472.658 124.352 C 472.344 123.816 471.84 123.418 471.245 123.237 C 470.292 122.94 471.292 128.514 471.745 128.856 C 472.473 129.742 473.128 130.684 473.704 131.675 L 473.704 131.675 L 473.785 131.815 C 473.711 131.887 473.643 131.964 473.582 132.047 L 473.808 133.256 L 473.843 133.442 C 473.546 133.838 473.311 134.277 473.146 134.744 C 473.651 135.269 473.925 135.974 473.907 136.702 C 473.871 137.525 473.998 138.346 474.279 139.12 C 474.227 139.068 473.599 138.434 473.006 138.62 C 472.414 138.806 470.751 139.37 470.751 139.37 C 470.751 139.37 469.502 139.637 469.63 139.91 C 469.758 140.183 468.834 141.433 468.834 141.433 L 465.347 138.37 C 465.312 138.271 465.271 138.178 465.236 138.08 C 465.081 137.63 464.966 137.167 464.893 136.696 C 465.256 136.592 465.612 136.462 465.957 136.307 C 466.308 136.173 466.621 135.955 466.869 135.674 C 467.134 135.224 467.298 134.722 467.352 134.203 C 467.671 133.23 468.06 132.28 468.514 131.361 C 469.148 129.761 469.315 128.014 468.996 126.323 C 468.919 125.801 468.72 125.305 468.415 124.876 C 467.834 124.143 466.823 123.87 466.09 123.295 C 465.358 122.719 464.841 121.813 463.975 121.394 C 463.155 121.074 462.253 121.032 461.406 121.272 C 459.715 121.625 458.104 122.291 456.658 123.237 C 456.218 123.61 455.66 123.816 455.083 123.818 C 454.617 123.689 454.207 123.406 453.921 123.016 C 453.921 123.016 453.921 122.981 453.921 122.969 L 453.886 122.923 C 453.556 123.729 453.409 124.598 453.456 125.468 Q 453.456 125.666 453.491 125.869 C 453.488 125.916 453.488 125.962 453.491 126.009 C 453.494 126.049 453.494 126.09 453.491 126.131 L 453.491 126.131 C 453.496 126.191 453.496 126.251 453.491 126.311 C 453.424 126.486 453.321 126.644 453.189 126.776 C 453.093 126.897 453.008 127.025 452.933 127.159 C 452.944 127.112 452.957 127.066 452.974 127.02 C 452.769 127.343 452.66 127.718 452.66 128.101 C 452.657 128.378 452.759 128.646 452.945 128.851 C 453.124 129.009 453.319 129.149 453.526 129.269 C 453.471 129.642 453.452 130.02 453.468 130.397 C 453.565 132.68 454.85 134.746 456.856 135.842 C 456.902 135.935 456.943 136.028 456.984 136.127 C 457.516 137.268 457.775 138.518 457.739 139.777 C 457.739 139.87 457.739 139.957 457.704 140.05 L 457.588 140.195 L 457.588 140.195 C 457.588 140.195 452.026 140.462 450.666 139.323 C 450.666 139.323 447.47 142.351 447.47 142.351 C 447.47 142.351 445.488 142.816 445.076 142.444 C 445.076 142.444 442.332 142.496 442.332 142.496 C 441.347 141.674 440.086 141.258 438.805 141.334 C 438.002 140.773 437.123 140.329 436.195 140.015 L 436.195 140.015 L 436.126 140.015 L 436.126 140.015 C 435.718 139.886 435.288 139.848 434.864 139.904 C 434.864 139.904 432.04 137.748 431.192 136.563 C 431.192 136.563 426.374 131.018 426.35 131.001 L 426.35 130.786 L 426.281 130.129 C 426.168 130.153 426.053 130.166 425.938 130.17 L 425.856 129.949 C 425.614 129.317 425.318 128.707 424.973 128.124 C 424.973 128.124 424.973 127.293 425.176 127.078 C 425.176 127.078 424.95 123.835 424.95 123.835 C 424.95 123.835 422.265 118.163 420.219 122.557 C 420.219 122.557 416.151 125.503 419.777 128.612 C 419.777 128.612 421.201 129.234 421.422 129.775 C 421.567 130.123 422.079 131.077 422.422 131.71 L 422.579 131.995 L 422.538 132.03 L 422.613 132.57 L 422.613 132.779 C 421.968 133.18 421.538 133.57 421.655 133.849 C 421.869 134.318 422.023 134.812 422.114 135.319 C 422.114 135.319 427.199 141.206 427.925 143.781 C 427.925 143.781 441.228 151.011 445.529 151.4 L 444.948 155.288 C 444.948 155.288 444.808 157.613 444.895 158.444 C 444.895 158.444 444.558 163.046 444.558 163.046 C 444.558 163.046 444.029 168.597 443.431 169.393 C 443.431 169.393 443.076 173.502 443.076 173.502 C 442.987 175.093 442.762 176.674 442.402 178.226 C 442.093 179.778 442.093 181.376 442.402 182.928 C 442.402 182.928 440.426 187.978 445.488 184.41 C 445.488 184.41 448.034 184.154 450.963 183.939 C 450.963 184.038 450.963 184.137 450.963 184.236 C 450.963 184.613 450.963 185.02 450.963 185.45 C 451.032 188.298 451.166 192.221 451.41 195.185 C 451.84 200.415 453.84 210.743 453.84 210.743 L 454.037 215.973 C 453.956 216.469 453.925 216.971 453.944 217.473 C 453.978 219.312 454.534 221.104 455.548 222.639 L 456.083 226.126 C 456.083 226.126 457.111 228.381 457.181 229.747 C 457.181 229.86 457.171 229.973 457.152 230.084 C 457.13 230.261 457.13 230.441 457.152 230.619 C 457.152 232.199 458.256 235.942 458.256 235.942 C 458.256 235.942 458.46 239.749 459.041 239.946 C 459.622 240.144 458.46 242.166 458.152 242.753 C 458.152 242.718 458.152 242.684 458.152 242.649 L 458.088 242.765 C 457.983 243.077 457.933 243.406 457.943 243.735 C 457.9 244.269 458.167 244.779 458.628 245.049 C 459.738 245.671 460.343 246.211 459.43 246.455 C 459.095 246.521 458.763 246.605 458.437 246.705 C 458.437 246.665 458.396 246.618 458.384 246.583 C 458.112 246.689 457.96 246.98 458.03 247.263 C 458.058 247.714 458.192 248.152 458.419 248.542 C 458.863 249.521 459.419 250.445 460.075 251.296 L 460.511 251.232 C 460.452 251.402 460.372 251.564 460.273 251.715 C 460.115 251.956 459.902 252.155 459.651 252.296 C 459.418 252.446 459.157 252.549 458.884 252.598 C 458.258 252.639 457.679 252.949 457.297 253.447 C 456.757 254.202 456.437 255.219 457.594 256.056 L 461.732 257.306 C 461.732 257.306 468.746 257.875 468.34 256.323 C 467.933 254.772 467.625 253.418 467.625 253.418 C 467.615 252.454 467.384 251.506 466.951 250.646 C 466.87 250.506 466.781 250.372 466.683 250.244 L 466.933 250.21 C 466.933 250.21 467.311 246.723 467.968 246.019 C 468.125 245.863 468.154 245.74 468.113 245.653 C 468.177 245.461 467.991 245.357 467.758 245.305 C 467.758 245.351 467.729 245.392 467.718 245.444 C 467.491 245.404 467.262 245.387 467.032 245.392 C 467.032 245.392 466.736 243.579 467.45 242.887 C 467.566 242.73 467.61 242.532 467.572 242.341 C 467.569 242.091 467.534 241.843 467.468 241.603 C 467.466 241.616 467.466 241.63 467.468 241.643 C 466.986 240.19 466.381 238.781 465.66 237.43 C 465.66 237.43 465.544 235.773 465.974 235.105 C 465.974 235.105 465.567 226.109 465.567 226.109 C 465.567 226.109 465.567 222.07 464.986 220.21 C 464.986 220.21 465.457 216.101 465.457 216.101 L 465.457 215.985 L 465.457 215.985 C 465.457 215.985 465.422 215.735 465.364 215.351 L 465.364 215.392 C 465.207 214.328 464.917 212.405 464.719 211.516 C 464.446 210.255 464.498 204.17 464.498 204.17 L 465.422 201.537 L 467.421 205.936 L 469.589 211.824 C 470.169 212.543 470.543 213.407 470.67 214.323 C 470.67 214.387 470.67 214.451 470.67 214.509 C 470.661 214.642 470.661 214.776 470.67 214.91 C 470.667 215.665 470.903 216.401 471.344 217.013 C 471.344 217.013 471.966 219.809 472.791 220.5 C 473.325 221.061 473.637 221.796 473.669 222.569 C 473.669 222.569 474.796 226.638 475.279 227.318 C 475.691 227.899 475.773 229.572 475.79 230.078 L 475.79 230.078 C 475.79 230.177 475.79 230.229 475.79 230.229 C 475.79 230.229 475.976 231.682 476.023 232.914 L 476.023 233.315 C 476.012 233.627 475.969 233.936 475.895 234.239 C 475.892 234.258 475.892 234.278 475.895 234.297 C 475.895 234.228 475.895 234.158 475.895 234.088 C 475.725 234.929 475.661 235.788 475.703 236.645 C 475.732 238.116 476.023 239.847 476.952 240.835 C 478.562 242.544 479.521 242.283 479.521 242.283 C 479.521 242.283 478.864 244.52 477.969 244.997 C 477.935 245.015 477.903 245.038 477.876 245.066 C 477.874 245.024 477.874 244.981 477.876 244.938 C 477.682 245.169 477.596 245.471 477.638 245.77 C 477.723 246.948 478.161 248.074 478.894 249.001 C 479.118 249.204 479.39 249.347 479.684 249.419 L 479.544 249.512 C 479.446 249.574 479.343 249.628 479.236 249.675 C 479.089 249.744 478.932 249.791 478.772 249.814 C 478.146 249.857 477.568 250.166 477.185 250.663 C 476.65 251.418 476.331 252.435 477.487 253.272 L 481.619 254.522 C 481.619 254.522 488.64 255.161 488.204 253.604 Z " fill="url(#_lgradient_3)"/><path d=" M 461.505 257.242 L 457.501 255.986 C 456.379 255.15 456.687 254.132 457.21 253.377 C 457.574 252.885 458.134 252.575 458.745 252.528 C 459.011 252.486 459.265 252.384 459.488 252.232 C 459.726 252.087 459.925 251.888 460.07 251.651 C 460.341 251.182 460.476 250.647 460.459 250.105 C 460.459 250.105 464.748 248.67 465.98 249.896 C 466.212 250.114 466.408 250.367 466.561 250.646 C 466.985 251.507 467.209 252.452 467.218 253.412 C 467.218 253.412 467.497 254.783 467.915 256.318 C 468.334 257.852 461.505 257.242 461.505 257.242 Z " fill="rgb(45,41,61)"/><path d=" M 480.759 254.58 L 476.755 253.325 C 475.633 252.482 475.941 251.465 476.458 250.715 C 476.819 250.22 477.381 249.909 477.993 249.867 C 478.149 249.847 478.301 249.8 478.44 249.727 C 478.542 249.682 478.641 249.629 478.737 249.57 C 479.818 248.919 479.736 247.426 479.736 247.426 C 479.736 247.426 484.019 245.99 485.257 247.217 C 485.423 247.381 485.569 247.565 485.693 247.763 C 486.194 248.676 486.461 249.698 486.472 250.738 C 486.472 250.738 486.745 252.11 487.164 253.644 C 487.582 255.179 480.759 254.58 480.759 254.58 Z " fill="rgb(45,41,61)"/><g opacity="0.1"><path d=" M 466.015 249.884 C 466.247 250.102 466.443 250.355 466.596 250.634 L 466.596 250.634 L 460.128 251.639 C 460.399 251.17 460.534 250.635 460.517 250.093 C 460.517 250.093 464.771 248.658 466.015 249.884 Z " fill="rgb(0,0,0)"/></g><g opacity="0.1"><path d=" M 485.693 247.74 L 485.74 248.954 C 484.792 250.663 479.893 250.483 478.44 249.704 C 478.542 249.658 478.641 249.606 478.737 249.547 C 479.818 248.896 479.736 247.403 479.736 247.403 C 479.736 247.403 484.019 245.967 485.257 247.193 C 485.423 247.358 485.569 247.541 485.693 247.74 Z " fill="rgb(0,0,0)"/></g><path d=" M 486.263 242.469 C 485.98 243.01 485.743 243.573 485.554 244.154 L 485.722 248.513 C 484.688 250.378 478.923 249.995 478.109 249.03 C 477.295 248.065 476.365 245.502 477.237 245.026 C 478.109 244.549 478.737 242.312 478.737 242.312 C 478.737 242.312 477.807 242.573 476.249 240.859 C 474.692 239.144 474.982 235.216 475.221 234.262 C 475.459 233.309 475.064 230.194 475.064 230.194 C 475.064 230.194 475.035 227.986 474.564 227.288 C 474.093 226.591 473.001 222.54 473.001 222.54 C 472.969 221.771 472.667 221.038 472.146 220.471 C 471.344 219.786 470.74 216.984 470.74 216.984 C 470.267 216.305 470.04 215.485 470.095 214.66 C 470.211 213.271 469.049 211.824 469.049 211.824 L 466.939 205.931 L 465.004 201.525 L 464.109 204.158 C 464.109 204.158 464.062 210.243 464.335 211.504 C 464.335 211.504 465.068 216.124 465.068 216.124 C 465.068 216.124 464.045 218.373 464.614 220.233 C 464.614 220.233 465.195 226.126 465.195 226.126 C 465.195 226.126 466.015 234.448 465.596 235.123 C 465.596 235.123 465.3 237.447 465.3 237.447 C 465.3 237.447 467.753 242.219 467.044 242.91 C 467.044 242.91 466.643 245.415 466.643 245.415 C 466.643 245.415 468.188 245.351 467.549 246.043 C 467.549 246.043 466.55 250.227 466.55 250.227 L 459.901 251.256 C 459.264 250.401 458.726 249.477 458.297 248.501 C 457.338 246.49 458.396 246.67 459.273 246.415 C 460.151 246.159 459.57 245.63 458.495 245.008 C 457.419 244.386 457.972 242.87 457.972 242.87 C 457.972 242.87 459.471 240.103 458.907 239.906 C 458.344 239.708 458.146 235.896 458.146 235.896 C 458.146 235.896 456.867 231.415 457.1 230.188 C 457.332 228.962 456.054 226.08 456.054 226.08 L 455.536 222.593 C 454.278 220.667 453.756 218.352 454.066 216.072 L 453.863 210.714 C 453.863 210.714 451.916 200.392 451.492 195.156 C 451.224 191.803 451.085 187.217 451.021 184.352 C 450.986 182.748 450.974 181.684 450.974 181.684 L 474.732 178.267 C 474.818 179.458 475.013 180.639 475.314 181.795 C 475.604 183.097 476.052 184.776 476.732 186.874 C 478.679 192.883 477.801 197.451 477.801 197.451 L 477.876 205.134 C 477.876 205.134 480.201 210.191 479.8 211.969 C 479.577 213.027 479.47 214.107 479.481 215.189 C 479.481 215.189 484.606 226.231 484.234 229.497 C 484.234 229.497 486.1 237.831 486.1 237.831 C 486.1 237.831 486.78 241.451 486.263 242.469 Z " fill="rgb(87,89,136)"/><g opacity="0.05"><line x1="471.519" y1="214.224" x2="478.742" y2="212.98"/></g><g opacity="0.1"><path d=" M 477.417 205.925 C 477.417 205.925 477.766 208.482 476.255 209.511 C 476.232 209.511 479.027 208.959 477.417 205.925 Z " fill="rgb(0,0,0)"/></g><g opacity="0.1"><path d=" M 476.662 197.771 C 476.662 197.771 470.78 203.002 468.56 202.67 C 466.34 202.339 476.662 197.771 476.662 197.771 Z " fill="rgb(0,0,0)"/></g><g opacity="0.1"><path d=" M 462.609 216.92 C 462.609 216.92 458.041 218.147 457.96 220.001 C 457.879 221.855 462.609 216.92 462.609 216.92 Z " fill="rgb(0,0,0)"/></g><g opacity="0.05"><path d=" M 464.51 239.906 C 464.51 239.906 458.041 241.37 459.924 242.126 C 461.533 242.692 463.185 243.128 464.864 243.427 C 464.864 243.427 466.968 243.456 464.51 239.906 Z " fill="rgb(0,0,0)"/></g><g style="opacity:0.05;"><g opacity="0.05"><path d=" M 458.657 243.491 C 458.316 243.297 458.082 242.956 458.024 242.567 L 457.96 242.689 C 457.96 242.689 457.414 244.2 458.489 244.822 L 458.838 245.037 C 459.029 244.991 459.239 244.956 459.419 244.898 C 460.314 244.642 459.733 244.119 458.657 243.491 Z " fill="rgb(0,0,0)"/></g><g opacity="0.05"><path d=" M 467.032 242.724 C 467.206 242.556 467.183 242.143 467.032 241.562 C 466.787 242.061 466.681 242.617 466.724 243.172 C 466.794 243.003 466.899 242.85 467.032 242.724 Z " fill="rgb(0,0,0)"/></g><g opacity="0.05"><path d=" M 464.975 215.293 C 464.758 215.957 464.635 216.647 464.609 217.345 C 464.716 216.859 464.868 216.385 465.062 215.927 C 465.062 215.927 465.027 215.683 464.975 215.293 Z " fill="rgb(0,0,0)"/></g><g opacity="0.05"><path d=" M 479.777 211.824 C 479.813 211.622 479.826 211.418 479.818 211.213 C 479.748 211.632 479.707 212.015 479.678 212.376 C 479.707 212.155 479.742 212.004 479.777 211.824 Z " fill="rgb(0,0,0)"/></g><g opacity="0.05"><path d=" M 465.573 234.931 C 465.681 234.53 465.72 234.113 465.689 233.699 C 465.505 234.197 465.417 234.725 465.428 235.256 C 465.464 235.142 465.512 235.033 465.573 234.931 Z " fill="rgb(0,0,0)"/></g><g opacity="0.05"><path d=" M 467.34 245.281 C 467.039 246.404 466.829 247.548 466.712 248.704 L 460.064 249.733 C 459.427 248.878 458.889 247.954 458.46 246.978 C 458.373 246.798 458.309 246.641 458.251 246.496 C 457.861 246.694 457.716 247.118 458.291 248.309 C 458.717 249.289 459.255 250.215 459.895 251.07 L 466.538 250.035 C 466.538 250.035 466.904 246.548 467.538 245.851 C 467.851 245.52 467.636 245.363 467.34 245.281 Z " fill="rgb(0,0,0)"/></g><g opacity="0.05"><path d=" M 458.134 235.715 C 458.134 235.715 458.338 239.522 458.901 239.72 L 458.901 239.72 C 459.157 239.074 459.32 238.47 459.07 238.383 C 458.489 238.179 458.309 234.373 458.309 234.373 C 458.309 234.373 457.03 229.892 457.257 228.666 C 457.483 227.44 456.216 224.557 456.216 224.557 L 455.693 221.07 C 454.435 219.142 453.915 216.824 454.229 214.543 L 454.02 209.191 C 454.02 209.191 452.073 198.869 451.654 193.633 C 451.381 190.28 451.248 185.694 451.184 182.829 C 451.184 182.312 451.184 181.853 451.155 181.469 L 450.963 181.469 C 450.963 181.469 450.963 182.533 451.009 184.143 C 451.073 187.002 451.213 191.587 451.48 194.941 C 451.904 200.171 453.851 210.499 453.851 210.499 L 454.055 215.857 C 453.74 218.157 454.273 220.493 455.554 222.43 L 456.071 225.917 C 456.071 225.917 457.344 228.823 457.117 230.026 C 456.891 231.229 458.134 235.715 458.134 235.715 Z " fill="rgb(0,0,0)"/></g><g opacity="0.05"><path d=" M 478.277 247.548 C 477.705 246.782 477.308 245.899 477.115 244.962 C 476.453 245.607 477.33 247.966 478.103 248.879 C 478.876 249.791 484.676 250.233 485.711 248.367 L 485.67 247.315 C 484.24 248.85 479.045 248.46 478.277 247.548 Z " fill="rgb(0,0,0)"/></g><g opacity="0.05"><path d=" M 486.431 240.987 C 486.146 241.526 485.908 242.09 485.722 242.672 L 485.751 243.445 C 485.902 243.061 486.073 242.684 486.263 242.317 C 486.419 241.876 486.482 241.407 486.449 240.94 L 486.431 240.987 Z " fill="rgb(0,0,0)"/></g><g opacity="0.05"><path d=" M 478.411 242.166 C 478.605 241.732 478.77 241.286 478.905 240.83 C 478.905 240.83 477.975 241.091 476.412 239.377 C 475.279 238.133 475.128 235.71 475.25 234.146 C 475.006 235.094 474.715 239.034 476.273 240.742 C 477.266 241.829 478.01 242.108 478.411 242.166 Z " fill="rgb(0,0,0)"/></g><g opacity="0.05"><path d=" M 475.058 230.032 C 475.198 231.115 475.277 232.205 475.296 233.298 C 475.296 233.083 475.36 232.908 475.389 232.78 C 475.633 231.833 475.232 228.712 475.232 228.712 C 475.232 228.712 475.197 226.504 474.732 225.806 C 474.267 225.109 473.163 221.058 473.163 221.058 C 473.133 220.289 472.83 219.556 472.309 218.989 C 471.513 218.304 470.908 215.502 470.908 215.502 C 470.431 214.825 470.203 214.004 470.263 213.178 C 470.374 211.789 469.211 210.342 469.211 210.342 L 467.108 204.449 L 465.166 200.043 L 464.271 202.63 L 464.271 203.472 L 464.998 201.334 L 466.939 205.739 L 469.043 211.626 C 469.043 211.626 470.205 213.073 470.095 214.462 C 470.035 215.287 470.261 216.108 470.734 216.787 C 470.734 216.787 471.315 219.582 472.14 220.274 C 472.661 220.838 472.964 221.57 472.995 222.337 C 472.995 222.337 474.093 226.405 474.558 227.091 C 475.023 227.777 475.058 230.032 475.058 230.032 Z " fill="rgb(0,0,0)"/></g></g><path d=" M 475.784 128.27 L 475.447 130.298 L 475.505 131.199 L 475.552 131.855 L 473.256 132.181 L 472.977 131.716 L 472.977 131.716 C 472.425 130.723 471.791 129.779 471.083 128.891 C 470.641 128.548 469.665 122.975 470.589 123.271 C 471.154 123.465 471.628 123.86 471.92 124.382 C 471.92 124.382 476.476 124.73 475.784 128.27 Z " fill="rgb(255,205,211)"/><g opacity="0.1"><path d=" M 475.552 131.855 L 473.256 132.181 L 472.977 131.716 L 472.977 131.716 C 473.588 130.96 474.647 130.744 475.505 131.199 L 475.552 131.855 Z " fill="rgb(0,0,0)"/></g><path d=" M 476.174 132.925 L 473.163 133.75 L 473.082 133.297 L 472.861 132.088 C 473.524 131.148 474.82 130.917 475.767 131.571 L 475.941 132.187 L 476.174 132.925 Z " fill="rgb(220,230,242)"/><path d=" M 426.792 130.373 L 423.619 132.239 L 423.299 131.658 C 422.968 131.024 422.468 130.065 422.329 129.722 C 422.114 129.194 420.736 128.56 420.736 128.56 C 417.214 125.445 421.155 122.504 421.155 122.504 C 423.131 118.117 425.74 123.789 425.74 123.789 C 425.74 123.789 426.188 126.817 425.961 127.032 C 425.734 127.247 425.763 128.078 425.763 128.078 C 426.098 128.661 426.384 129.272 426.618 129.903 C 426.734 130.211 426.792 130.373 426.792 130.373 Z " fill="rgb(255,205,211)"/><g opacity="0.1"><path d=" M 426.792 130.373 L 423.619 132.239 L 423.299 131.658 C 423.741 131.257 425.316 129.879 425.851 129.914 C 426.106 129.937 426.363 129.937 426.618 129.914 C 426.734 130.211 426.792 130.373 426.792 130.373 Z " fill="rgb(0,0,0)"/></g><path d=" M 427.158 131.373 L 423.59 133.279 L 423.491 132.495 L 423.416 131.96 C 423.416 131.96 425.461 130.065 426.083 130.112 C 426.401 130.146 426.722 130.132 427.036 130.071 L 427.106 130.728 L 427.158 131.373 Z " fill="rgb(220,230,242)"/><path d=" M 467.468 141.997 C 467.468 141.997 451.649 144.403 454.578 143.322 C 456.623 142.572 457.39 141.224 457.483 139.759 C 457.518 138.501 457.268 137.251 456.751 136.104 C 456.339 135.116 455.827 134.174 455.223 133.291 C 455.223 133.291 467.113 126.142 464.917 132.309 C 464.577 133.242 464.381 134.222 464.335 135.214 C 464.3 136.201 464.444 137.185 464.76 138.12 C 465.288 139.637 466.225 140.979 467.468 141.997 L 467.468 141.997 Z " fill="rgb(255,205,211)"/><g opacity="0.1"><path d=" M 464.94 132.309 C 464.6 133.242 464.404 134.222 464.359 135.214 C 463.254 136.22 461.993 136.202 460.383 136.266 C 459.146 136.313 457.786 136.667 456.774 136.104 C 456.363 135.116 455.85 134.174 455.246 133.291 C 455.246 133.291 467.137 126.142 464.94 132.309 Z " fill="rgb(0,0,0)"/></g><circle vector-effect="non-scaling-stroke" cx="459.93593169863107" cy="130.12343063159764" r="6.572979773857867" fill="rgb(255,205,211)"/><g opacity="0.1"><path d=" M 467.468 141.997 C 467.468 141.997 451.649 144.403 454.578 143.322 C 456.623 142.572 457.39 141.224 457.483 139.759 C 458.245 138.876 459.808 138.196 460.819 137.824 C 461.739 137.476 462.744 137.422 463.696 137.667 C 464.07 137.765 464.428 137.916 464.76 138.114 C 465.287 139.634 466.224 140.977 467.468 141.997 Z " fill="rgb(0,0,0)"/></g><g opacity="0.1"><path d=" M 476.174 132.925 L 473.163 133.75 L 473.082 133.297 C 473.716 132.346 474.882 131.901 475.988 132.187 L 476.174 132.925 Z " fill="rgb(0,0,0)"/></g><g opacity="0.1"><path d=" M 427.158 131.373 L 423.59 133.279 L 423.491 132.495 C 424.651 131.825 425.859 131.242 427.106 130.751 L 427.158 131.373 Z " fill="rgb(0,0,0)"/></g><g opacity="0.1"><path d=" M 475.314 181.795 C 469.194 183.004 460.488 184.608 459.082 184.236 C 457.919 183.928 454.235 184.108 451.032 184.34 C 450.998 182.736 450.986 181.673 450.986 181.673 L 474.732 178.267 C 474.818 179.458 475.013 180.639 475.314 181.795 L 475.314 181.795 Z " fill="rgb(0,0,0)"/></g><path d=" M 481.375 180.115 C 481.375 180.115 461.244 184.375 459.041 183.794 C 456.838 183.213 445.674 184.375 445.674 184.375 C 440.781 187.938 442.687 182.887 442.687 182.887 C 442.384 181.335 442.384 179.738 442.687 178.186 C 443.04 176.628 443.261 175.044 443.349 173.449 C 443.349 173.449 443.111 170.142 443.687 169.346 C 443.687 169.346 444.768 163 444.768 163 C 444.768 163 445.174 159.222 445.093 158.397 C 445.093 158.397 445.134 155.241 445.134 155.241 L 445.715 151.353 C 441.554 150.958 428.669 143.711 428.669 143.711 C 427.96 141.142 423.032 135.249 423.032 135.249 C 422.946 134.741 422.798 134.245 422.59 133.773 C 422.224 132.901 427.123 130.943 427.123 130.943 C 427.123 130.943 431 135.331 431.819 136.516 C 432.639 137.702 435.376 139.858 435.376 139.858 C 435.786 139.801 436.204 139.841 436.596 139.974 C 436.618 139.972 436.639 139.972 436.66 139.974 L 436.66 139.974 C 437.563 140.29 438.415 140.737 439.188 141.299 C 440.433 141.228 441.657 141.645 442.6 142.462 C 442.6 142.462 444.855 142.043 445.256 142.415 C 445.256 142.415 447.58 142.328 447.58 142.328 C 447.58 142.328 449.353 138.167 450.672 139.306 C 450.672 139.306 457.373 140.183 457.373 140.183 C 458.053 139.201 459.773 138.44 460.86 138.051 C 461.78 137.703 462.785 137.649 463.737 137.894 C 464.15 137.994 464.543 138.165 464.899 138.399 L 468.287 141.474 C 468.287 141.474 469.182 140.224 469.06 139.951 C 469.06 139.951 470.147 139.416 470.147 139.416 C 470.147 139.416 471.728 138.835 472.326 138.667 C 472.326 138.667 473.489 139.114 473.564 139.166 C 473.287 138.394 473.16 137.575 473.192 136.755 C 473.214 136.028 472.949 135.322 472.454 134.79 C 474.198 129.967 478.719 133.773 478.719 133.773 C 478.719 133.773 479.3 136.354 478.911 137.365 C 478.522 138.376 479.492 140.439 479.382 140.991 C 479.271 141.543 479.661 142.473 479.701 143.525 C 479.635 144.869 479.389 146.198 478.969 147.477 C 478.673 148.378 476.098 150.464 476.098 150.464 C 476.098 150.464 476.057 153.62 474.936 155.485 C 473.814 157.351 474.802 163.564 474.802 163.564 C 474.802 163.564 476.098 168.382 477.534 169.875 C 478.969 171.369 481.375 180.115 481.375 180.115 Z " fill="rgb(101,102,145)"/><g opacity="0.1"><path d=" M 450.44 144.92 C 450.44 144.92 449.76 143.124 449.202 142.979 C 448.645 142.797 448.102 142.577 447.575 142.322 L 447.906 141.631 C 447.906 141.631 449.998 142.119 450.353 142.711 C 450.707 143.304 450.44 144.92 450.44 144.92 Z " fill="rgb(0,0,0)"/></g><g opacity="0.1"><path d=" M 439.188 141.317 C 439.095 141.898 434.202 142.56 434.202 142.56 L 436.591 139.974 L 436.591 139.974 L 436.654 139.974 L 436.654 139.974 C 437.56 140.295 438.414 140.748 439.188 141.317 L 439.188 141.317 Z " fill="rgb(0,0,0)"/></g><circle vector-effect="non-scaling-stroke" cx="424.6766317092454" cy="134.28457432574666" r="0.441685643512983" fill="rgb(87,89,136)"/><circle vector-effect="non-scaling-stroke" cx="425.2752319892694" cy="135.14469899995615" r="0.441685643512983" fill="rgb(87,89,136)"/><circle vector-effect="non-scaling-stroke" cx="425.86220896288535" cy="135.9408954889203" r="0.441685643512983" fill="rgb(87,89,136)"/><circle vector-effect="non-scaling-stroke" cx="426.4724325493179" cy="136.8010201631299" r="0.441685643512983" fill="rgb(87,89,136)"/><circle vector-effect="non-scaling-stroke" cx="478.5157869921976" cy="134.74950658207612" r="0.36032249865536414" fill="rgb(87,89,136)"/><circle vector-effect="non-scaling-stroke" cx="478.6029617902593" cy="135.56313803065265" r="0.36032249865536414" fill="rgb(87,89,136)"/><circle vector-effect="non-scaling-stroke" cx="478.68432493511693" cy="136.3709578260251" r="0.36032249865536414" fill="rgb(87,89,136)"/><g opacity="0.1"><path d=" M 451.044 159.885 C 450.986 159.821 464.039 175.059 473.355 165.604 C 473.355 165.604 458.163 168.265 451.044 159.885 Z " fill="rgb(0,0,0)"/></g><g opacity="0.1"><path d=" M 444.204 168.329 C 444.204 168.329 451.66 168.248 452.526 170.357 L 452.607 172.589 C 452.187 172.847 451.663 172.867 451.224 172.641 C 450.457 172.264 445.866 170.148 444.32 171.311 L 444.204 168.329 Z " fill="rgb(0,0,0)"/></g><path d=" M 444.343 168.323 C 444.343 168.323 451.474 168.242 452.299 170.259 L 452.381 172.386 C 451.977 172.629 451.476 172.647 451.056 172.432 C 450.323 172.078 445.93 170.061 444.454 171.165 L 444.343 168.323 Z " fill="rgb(101,102,145)"/><g opacity="0.1"><path d=" M 447.65 151.998 C 448.478 153.732 449.513 155.359 450.73 156.845 C 452.056 158.488 453.64 159.903 455.42 161.036 C 455.42 161.036 447.813 153.021 447.65 151.998 Z " fill="rgb(0,0,0)"/></g><g opacity="0.1"><path d=" M 444.878 143.438 C 444.878 143.438 446.331 148.756 449.603 150.453 L 444.878 143.438 Z " fill="rgb(0,0,0)"/></g><g opacity="0.1"><path d=" M 442.995 144.054 C 442.96 143.955 442.053 148.337 447.377 150.54 C 447.377 150.551 445.128 149.871 442.995 144.054 Z " fill="rgb(0,0,0)"/></g><g opacity="0.1"><path d=" M 475.377 139.207 C 475.296 139.207 478.028 140.805 478.777 141.532 C 478.801 141.561 476.947 139.033 475.377 139.207 Z " fill="rgb(0,0,0)"/></g><path d=" M 458.384 136.15 C 458.453 136.497 458.647 136.805 458.931 137.016 C 459.128 137.101 459.343 137.141 459.558 137.132 C 461.563 137.179 463.655 137.185 465.474 136.342 C 465.816 136.206 466.12 135.989 466.358 135.708 C 466.616 135.257 466.777 134.756 466.829 134.238 C 467.126 133.265 467.495 132.315 467.933 131.396 C 468.542 129.792 468.701 128.051 468.392 126.363 C 468.311 125.843 468.113 125.348 467.811 124.916 C 467.23 124.178 466.271 123.905 465.544 123.33 C 464.818 122.754 464.33 121.848 463.493 121.423 C 462.7 121.107 461.825 121.064 461.005 121.301 C 459.377 121.643 457.829 122.292 456.443 123.213 C 456.024 123.587 455.482 123.794 454.92 123.795 C 454.45 123.661 454.039 123.37 453.758 122.969 C 453.401 123.884 453.272 124.871 453.38 125.846 C 453.404 125.99 453.404 126.138 453.38 126.282 C 453.317 126.456 453.218 126.614 453.09 126.747 C 452.619 127.328 452.346 128.258 452.857 128.822 C 453.078 129.066 453.438 129.194 453.63 129.438 C 454.014 129.885 453.915 130.553 453.933 131.146 C 453.915 131.353 453.973 131.56 454.095 131.727 C 454.32 131.923 454.632 131.985 454.915 131.89 C 455.192 131.798 455.483 131.758 455.775 131.774 C 456.087 131.867 456.359 132.061 456.548 132.326 C 457.421 133.458 458.047 134.761 458.384 136.15 L 458.384 136.15 Z " fill="rgb(45,41,61)"/><g style="opacity:0.1;"><g opacity="0.1"><path d=" M 466.555 135.197 C 466.319 135.477 466.018 135.694 465.678 135.83 C 463.853 136.673 461.767 136.662 459.756 136.615 C 459.542 136.627 459.329 136.587 459.134 136.499 C 458.846 136.292 458.651 135.981 458.588 135.633 C 458.251 134.245 457.63 132.943 456.763 131.809 C 456.575 131.544 456.302 131.351 455.99 131.263 C 455.698 131.244 455.406 131.283 455.13 131.379 C 454.847 131.469 454.537 131.407 454.31 131.216 C 454.188 131.048 454.129 130.842 454.142 130.635 C 454.142 130.054 454.229 129.374 453.84 128.926 C 453.624 128.676 453.293 128.554 453.067 128.304 C 452.771 127.932 452.704 127.427 452.892 126.991 C 452.525 127.514 452.525 128.211 452.892 128.734 C 453.119 128.979 453.473 129.101 453.665 129.35 C 454.055 129.798 453.956 130.466 453.967 131.059 C 453.954 131.267 454.014 131.472 454.136 131.64 C 454.361 131.837 454.673 131.899 454.955 131.803 C 455.232 131.711 455.524 131.671 455.815 131.687 C 456.127 131.78 456.399 131.974 456.588 132.239 C 457.456 133.37 458.078 134.671 458.413 136.057 C 458.478 136.407 458.673 136.719 458.96 136.929 C 459.155 137.014 459.368 137.054 459.581 137.045 C 461.592 137.092 463.65 137.097 465.503 136.255 C 465.844 136.12 466.146 135.902 466.381 135.621 C 466.501 135.458 466.591 135.275 466.648 135.081 L 466.555 135.197 Z " fill="rgb(0,0,0)"/></g><g opacity="0.1"><path d=" M 453.404 126.142 C 453.49 126.043 453.553 125.926 453.59 125.8 C 453.616 125.657 453.616 125.512 453.59 125.37 C 453.504 124.567 453.577 123.755 453.805 122.981 L 453.77 122.94 C 453.411 123.854 453.28 124.841 453.386 125.817 C 453.404 125.925 453.409 126.034 453.404 126.142 L 453.404 126.142 Z " fill="rgb(0,0,0)"/></g></g><g opacity="0.1"><path d=" M 457.367 140.178 C 457.367 140.178 465.62 140.951 466.306 139.684" fill="rgb(0,0,0)"/></g><g opacity="0.1"><path d=" M 473.192 136.168 C 473.192 136.168 477.754 135.993 478.824 137.667" fill="rgb(0,0,0)"/></g></g></g></svg>