<svg width="546" height="181" viewBox="0 0 546 181" fill="none" xmlns="http://www.w3.org/2000/svg">
<g clip-path="url(#clip0)">
<path d="M27.2826 0H41.0773C44.0575 0 45.7549 2.32453 44.867 5.18755L27.0753 62.5015H57.9937V2.71782C57.9937 1.21795 59.2024 0 60.6925 0H76.8918C78.382 0 79.592 1.21795 79.592 2.71782V108.699C79.592 110.199 78.382 111.417 76.8918 111.417H60.6925C59.2024 111.417 57.9937 110.199 57.9937 108.699V81.5248H3.99674C1.01651 81.5248 -0.662666 79.2059 0.247648 76.35L23.7589 2.58672C24.2141 1.15874 25.7924 0 27.2826 0Z" fill="#071D49"/>
<path d="M221.928 0H235.819C238.82 0 240.529 2.32453 239.635 5.18754L221.72 62.5014H252.853V2.71782C252.853 1.21795 254.07 0 255.57 0H271.882C273.382 0 274.601 1.21795 274.601 2.71782V108.699C274.601 110.199 273.382 111.417 271.882 111.417H255.57C254.07 111.417 252.853 110.199 252.853 108.699V81.5248H198.481C195.48 81.5248 193.789 79.2059 194.706 76.3499L218.38 2.58672C218.838 1.15874 220.428 0 221.928 0Z" fill="#0047BB"/>
<path d="M193.235 92.967H207.125C210.126 92.967 211.82 95.2873 210.906 98.1447L207.574 108.556C207.069 110.135 205.312 111.417 203.654 111.417H189.965C186.964 111.417 185.28 109.101 186.207 106.247L189.679 95.5524C190.141 94.1258 191.735 92.967 193.235 92.967Z" fill="#0047BB"/>
<path d="M387.582 8.92632V20.4192C387.582 22.0614 388.881 23.2051 390.483 22.9705L402.86 21.1551V93.1147H388.679C387.217 93.1147 386.029 94.3212 386.029 95.807V108.724C386.029 110.21 387.217 111.417 388.679 111.417H437.503C438.965 111.417 440.152 110.21 440.152 108.724V95.807C440.152 94.3212 438.965 93.1147 437.503 93.1147H424.348V4.46742C424.348 1.49576 422.015 -0.463477 419.142 0.0951067L390.184 5.72703C388.748 6.00772 387.582 7.44048 387.582 8.92632Z" fill="#009CDE"/>
<path d="M493.047 0H506.937C509.938 0 511.647 2.32453 510.752 5.18755L492.837 62.5029H523.97V2.71782C523.97 1.21795 525.188 0 526.689 0H543C544.501 0 545.718 1.21795 545.718 2.71782V108.699C545.718 110.199 544.501 111.417 543 111.417H526.689C525.188 111.417 523.97 110.199 523.97 108.699V81.5248H469.6C466.599 81.5248 464.906 79.2059 465.823 76.35L489.497 2.58813C489.956 1.16015 491.546 0 493.047 0Z" fill="#0047BB"/>
<path d="M463.354 92.9685H477.244C480.245 92.9685 481.939 95.2874 481.025 98.1448L477.692 108.557C477.186 110.135 475.431 111.417 473.772 111.417H460.083C457.083 111.417 455.399 109.101 456.324 106.248L459.796 95.5524C460.26 94.1258 461.853 92.9685 463.354 92.9685Z" fill="#0047BB"/>
<path d="M95.5281 84.1237C95.0121 100.514 105.899 111.558 132.896 111.303C156.916 112.553 169.375 103.52 170.034 84.1237V74.0604C170.034 72.5969 168.845 71.4085 167.381 71.4085H151.464C150 71.4085 148.813 72.5969 148.813 74.0604V84.1237C147.852 89.0921 145.447 92.0687 141.517 92.9738C135.181 94.0604 129.438 94.1402 124.669 92.9738C120.326 92.4607 117.788 89.5377 116.979 84.1237V27.1802C117.457 23.74 119.389 22.0206 121.373 20.6327C125.663 17.8982 137.848 17.1527 143.568 20.6327C145.225 21.685 147.797 23.3053 148.813 27.1802V35.8803C148.813 37.3438 150 38.5323 151.464 38.5323H167.381C168.845 38.5323 170.034 37.3438 170.034 35.8803V27.1802C168.91 9.31086 156.505 0.224209 132.896 0C108.435 0.18707 96.0069 9.27372 95.5281 27.1802V84.1237Z" fill="#009CDE"/>
<path d="M370.096 83.3344C370.626 99.5729 357.195 111.645 329.433 111.392C328.796 111.424 316.734 111.425 293.247 111.396C291.742 111.393 290.519 110.174 290.519 108.674V67.0269C290.519 65.5527 291.722 64.3562 293.202 64.3562H309.66C311.14 64.3562 312.341 65.5527 312.341 67.0269V76.9515V91.3959C312.341 92.2513 313.039 92.9461 313.899 92.9461H334.867C340.08 92.5473 347.004 89.0775 347.23 82.3761V26.9255C346.233 22.1675 342.331 19.2615 335.443 18.127H312.341V49.2678C312.341 50.742 311.14 51.9385 309.66 51.9385H293.202C291.722 51.9385 290.519 50.742 290.519 49.2678V0C301.23 0.147511 314.678 0.147511 330.863 0C356.016 0.186033 369.603 8.75061 370.096 26.49V83.3344Z" fill="#6AD1E3"/>
</g>
<path d="M254.639 157.528H267.119V173.464C263.759 174.808 259.967 175.48 255.743 175.48C250.303 175.48 246.159 173.928 243.311 170.824C240.463 167.72 239.039 163.416 239.039 157.912C239.039 154.424 239.727 151.352 241.103 148.696C242.511 146.04 244.527 143.96 247.151 142.456C249.775 140.952 252.927 140.2 256.607 140.2C260.319 140.2 263.679 140.888 266.687 142.264L265.583 144.712C264.143 144.072 262.655 143.576 261.119 143.224C259.583 142.872 258.031 142.696 256.463 142.696C253.423 142.696 250.815 143.336 248.639 144.616C246.495 145.896 244.831 147.672 243.647 149.944C242.495 152.216 241.919 154.856 241.919 157.864C241.919 162.824 243.135 166.6 245.567 169.192C248.031 171.752 251.615 173.032 256.319 173.032C257.983 173.032 259.471 172.92 260.783 172.696C262.095 172.44 263.279 172.136 264.335 171.784V160.072H254.639V157.528ZM304.637 157.816C304.637 161.304 304.061 164.376 302.909 167.032C301.757 169.688 300.029 171.768 297.725 173.272C295.453 174.744 292.621 175.48 289.229 175.48C285.773 175.48 282.893 174.744 280.589 173.272C278.317 171.768 276.605 169.688 275.453 167.032C274.333 164.344 273.773 161.256 273.773 157.768C273.773 154.28 274.349 151.224 275.501 148.6C276.685 145.976 278.429 143.928 280.733 142.456C283.069 140.952 285.949 140.2 289.373 140.2C292.669 140.2 295.453 140.92 297.725 142.36C299.997 143.768 301.709 145.784 302.861 148.408C304.045 151.032 304.637 154.168 304.637 157.816ZM276.701 157.768C276.701 160.808 277.149 163.48 278.045 165.784C278.941 168.056 280.317 169.832 282.173 171.112C284.029 172.392 286.381 173.032 289.229 173.032C292.109 173.032 294.461 172.408 296.285 171.16C298.141 169.88 299.501 168.104 300.365 165.832C301.261 163.528 301.709 160.856 301.709 157.816C301.709 153.048 300.669 149.336 298.589 146.68C296.541 144.024 293.469 142.696 289.373 142.696C286.525 142.696 284.157 143.336 282.269 144.616C280.381 145.864 278.973 147.624 278.045 149.896C277.149 152.136 276.701 154.76 276.701 157.768ZM335.108 140.728L322.532 175H319.748L307.172 140.728H310.1L319.172 165.448C320.004 167.784 320.66 169.88 321.14 171.736C321.556 169.976 322.228 167.864 323.156 165.4L332.132 140.728H335.108ZM358.725 175H339.909V140.728H358.725V143.224H342.693V155.752H357.813V158.248H342.693V172.504H358.725V175ZM374.985 140.728C379.081 140.728 382.153 141.448 384.201 142.888C386.281 144.296 387.321 146.712 387.321 150.136C387.321 152.76 386.617 154.824 385.209 156.328C383.833 157.8 382.105 158.84 380.025 159.448L389.433 175H386.121L377.385 160.216H369.225V175H366.441V140.728H374.985ZM374.745 143.176H369.225V157.816H375.705C378.489 157.816 380.633 157.176 382.137 155.896C383.673 154.584 384.441 152.696 384.441 150.232C384.441 147.608 383.641 145.784 382.041 144.76C380.441 143.704 378.009 143.176 374.745 143.176ZM420.614 175H417.638L397.766 145.048H397.622C397.686 146.296 397.734 147.624 397.766 149.032C397.83 150.408 397.862 151.848 397.862 153.352V175H395.222V140.728H398.198L418.022 170.584H418.166C418.102 169.592 418.054 168.328 418.022 166.792C417.99 165.256 417.974 163.816 417.974 162.472V140.728H420.614V175ZM451.647 175L447.087 163.192H432.879L428.223 175H425.391L438.879 140.584H441.423L454.575 175H451.647ZM446.223 160.648L441.663 148.312C441.471 147.864 441.215 147.16 440.895 146.2C440.575 145.24 440.303 144.392 440.079 143.656C439.823 144.52 439.551 145.368 439.263 146.2C438.975 147.032 438.735 147.752 438.543 148.36L433.791 160.648H446.223ZM484.786 175H481.81L461.938 145.048H461.794C461.858 146.296 461.906 147.624 461.938 149.032C462.002 150.408 462.034 151.848 462.034 153.352V175H459.394V140.728H462.37L482.194 170.584H482.338C482.274 169.592 482.226 168.328 482.194 166.792C482.162 165.256 482.146 163.816 482.146 162.472V140.728H484.786V175ZM508.955 142.744C506.139 142.744 503.723 143.384 501.707 144.664C499.691 145.912 498.139 147.672 497.051 149.944C495.995 152.184 495.467 154.792 495.467 157.768C495.467 160.84 495.947 163.528 496.907 165.832C497.867 168.104 499.307 169.864 501.227 171.112C503.179 172.36 505.595 172.984 508.475 172.984C510.139 172.984 511.659 172.856 513.035 172.6C514.443 172.344 515.771 172.024 517.019 171.64V174.04C515.835 174.488 514.539 174.84 513.131 175.096C511.723 175.352 510.075 175.48 508.187 175.48C504.731 175.48 501.835 174.744 499.499 173.272C497.195 171.8 495.451 169.736 494.267 167.08C493.115 164.424 492.539 161.32 492.539 157.768C492.539 154.376 493.179 151.368 494.459 148.744C495.771 146.088 497.643 144.008 500.075 142.504C502.539 141 505.515 140.248 509.003 140.248C512.331 140.248 515.323 140.872 517.979 142.12L516.875 144.568C514.411 143.352 511.771 142.744 508.955 142.744ZM543.085 175H524.269V140.728H543.085V143.224H527.053V155.752H542.173V158.248H527.053V172.504H543.085V175Z" fill="#0047BB"/>
<defs>
<clipPath id="clip0">
<rect width="546" height="111.417" fill="white"/>
</clipPath>
</defs>
</svg>
