<svg width="546" height="112" viewBox="0 0 546 112" fill="none" xmlns="http://www.w3.org/2000/svg">
<g clip-path="url(#clip0)">
<path d="M27.2825 0H41.0773C44.0575 0 45.7549 2.32453 44.867 5.18755L27.0753 62.5015H57.9937V2.71782C57.9937 1.21795 59.2023 0 60.6924 0H76.8918C78.3819 0 79.5919 1.21795 79.5919 2.71782V108.699C79.5919 110.199 78.3819 111.417 76.8918 111.417H60.6924C59.2023 111.417 57.9937 110.199 57.9937 108.699V81.5248H3.99672C1.0165 81.5248 -0.662681 79.2059 0.247632 76.35L23.7589 2.58672C24.2141 1.15874 25.7924 0 27.2825 0Z" fill="white"/>
<path d="M221.928 0H235.819C238.82 0 240.529 2.32453 239.635 5.18754L221.719 62.5014H252.852V2.71782C252.852 1.21795 254.069 0 255.57 0H271.882C273.382 0 274.601 1.21795 274.601 2.71782V108.699C274.601 110.199 273.382 111.417 271.882 111.417H255.57C254.069 111.417 252.852 110.199 252.852 108.699V81.5248H198.481C195.48 81.5248 193.789 79.2059 194.706 76.3499L218.38 2.58672C218.838 1.15874 220.428 0 221.928 0Z" fill="#0047BB"/>
<path d="M193.235 92.967H207.125C210.126 92.967 211.82 95.2873 210.906 98.1447L207.574 108.556C207.069 110.135 205.312 111.417 203.654 111.417H189.965C186.964 111.417 185.28 109.101 186.207 106.247L189.679 95.5524C190.141 94.1258 191.735 92.967 193.235 92.967Z" fill="#0047BB"/>
<path d="M387.582 8.92632V20.4192C387.582 22.0614 388.881 23.2051 390.483 22.9705L402.86 21.1551V93.1147H388.679C387.217 93.1147 386.029 94.3212 386.029 95.807V108.724C386.029 110.21 387.217 111.417 388.679 111.417H437.503C438.965 111.417 440.152 110.21 440.152 108.724V95.807C440.152 94.3212 438.965 93.1147 437.503 93.1147H424.348V4.46742C424.348 1.49576 422.015 -0.463477 419.142 0.0951067L390.184 5.72703C388.748 6.00772 387.582 7.44048 387.582 8.92632Z" fill="#009CDE"/>
<path d="M492.047 0H505.937C508.938 0 510.647 2.32453 509.752 5.18755L491.837 62.5029H522.97V2.71782C522.97 1.21795 524.188 0 525.689 0H542C543.501 0 544.718 1.21795 544.718 2.71782V108.699C544.718 110.199 543.501 111.417 542 111.417H525.689C524.188 111.417 522.97 110.199 522.97 108.699V81.5248H468.6C465.599 81.5248 463.906 79.2059 464.823 76.35L488.497 2.58813C488.956 1.16015 490.546 0 492.047 0Z" fill="#0047BB"/>
<path d="M463.354 92.9684H477.244C480.245 92.9684 481.939 95.2873 481.025 98.1447L477.692 108.556C477.186 110.135 475.431 111.417 473.772 111.417H460.083C457.083 111.417 455.399 109.101 456.324 106.247L459.796 95.5524C460.26 94.1258 461.853 92.9684 463.354 92.9684Z" fill="#0047BB"/>
<path d="M95.5281 84.1237C95.0121 100.514 105.899 111.558 132.896 111.303C156.916 112.553 169.375 103.52 170.034 84.1237V74.0604C170.034 72.5969 168.845 71.4085 167.381 71.4085H151.464C150 71.4085 148.813 72.5969 148.813 74.0604V84.1237C147.852 89.0921 145.447 92.0687 141.517 92.9738C135.181 94.0604 129.438 94.1402 124.669 92.9738C120.326 92.4607 117.788 89.5377 116.979 84.1237V27.1802C117.457 23.74 119.389 22.0206 121.373 20.6327C125.663 17.8982 137.848 17.1527 143.568 20.6327C145.225 21.685 147.797 23.3053 148.813 27.1802V35.8803C148.813 37.3438 150 38.5323 151.464 38.5323H167.381C168.845 38.5323 170.034 37.3438 170.034 35.8803V27.1802C168.91 9.31086 156.505 0.224209 132.896 0C108.435 0.18707 96.0069 9.27372 95.5281 27.1802V84.1237Z" fill="#009CDE"/>
<path d="M370.096 83.3344C370.626 99.5729 357.195 111.645 329.433 111.392C328.796 111.424 316.734 111.425 293.247 111.396C291.742 111.393 290.519 110.174 290.519 108.674V67.0269C290.519 65.5527 291.722 64.3562 293.202 64.3562H309.66C311.14 64.3562 312.341 65.5527 312.341 67.0269V76.9515V91.3959C312.341 92.2513 313.039 92.9461 313.899 92.9461H334.867C340.08 92.5473 347.004 89.0775 347.23 82.3761V26.9255C346.233 22.1675 342.331 19.2615 335.443 18.127H312.341V49.2678C312.341 50.742 311.14 51.9385 309.66 51.9385H293.202C291.722 51.9385 290.519 50.742 290.519 49.2678V0C301.23 0.147511 314.678 0.147511 330.863 0C356.016 0.186033 369.603 8.75061 370.096 26.49V83.3344Z" fill="#6AD1E3"/>
</g>
<defs>
<clipPath id="clip0">
<rect width="546" height="111.417" fill="white"/>
</clipPath>
</defs>
</svg>
