<svg width="1199" height="309" viewBox="0 0 1199 309" fill="none" xmlns="http://www.w3.org/2000/svg">
<path opacity="0.5" fill-rule="evenodd" clip-rule="evenodd" d="M906.731 61.418L1013.12 12.1944L1017.14 21.3588L910.753 70.5824L906.731 61.418Z" fill="url(#paint0_linear)"/>
<path opacity="0.5" fill-rule="evenodd" clip-rule="evenodd" d="M1123.57 73.8318L1027.52 15.9675L1032.5 7.30388L1128.55 65.1681L1123.57 73.8318Z" fill="url(#paint1_linear)"/>
<ellipse cx="1025.43" cy="12.5" rx="12.4896" ry="12.5" fill="#6AD1E3"/>
<path d="M1194.07 103.351L1123.63 61.9755C1120.51 60.1386 1116.63 60.1386 1113.5 61.9755L1043.07 103.351C1040.01 105.147 1038.13 108.428 1038.13 111.973V194.344C1038.13 197.866 1039.99 201.128 1043.01 202.932L1113.44 244.944C1116.6 246.827 1120.53 246.827 1123.69 244.944L1194.12 202.932C1197.15 201.128 1199 197.866 1199 194.344V111.973C1199 108.428 1197.12 105.147 1194.07 103.351Z" fill="url(#paint2_linear)"/>
<path d="M1109.14 212.179C1107.58 212.179 1106.19 211.788 1104.97 211.006C1103.77 210.205 1102.82 209.05 1102.12 207.542C1101.43 206.033 1101.08 204.246 1101.08 202.179C1101.08 200.112 1101.43 198.324 1102.12 196.816C1102.82 195.307 1103.77 194.162 1104.97 193.38C1106.19 192.579 1107.58 192.179 1109.14 192.179C1110.68 192.179 1112.05 192.579 1113.25 193.38C1114.47 194.162 1115.43 195.307 1116.13 196.816C1116.82 198.324 1117.17 200.112 1117.17 202.179C1117.17 204.246 1116.82 206.033 1116.13 207.542C1115.43 209.05 1114.47 210.205 1113.25 211.006C1112.05 211.788 1110.68 212.179 1109.14 212.179ZM1109.14 209.693C1110.72 209.693 1111.98 209.05 1112.92 207.765C1113.87 206.48 1114.35 204.618 1114.35 202.179C1114.35 199.739 1113.87 197.877 1112.92 196.592C1111.98 195.307 1110.72 194.665 1109.14 194.665C1107.54 194.665 1106.27 195.307 1105.31 196.592C1104.37 197.877 1103.9 199.739 1103.9 202.179C1103.9 204.618 1104.37 206.48 1105.31 207.765C1106.27 209.05 1107.54 209.693 1109.14 209.693Z" fill="white"/>
<path d="M1129.59 200.084C1130.89 200.084 1132.04 200.326 1133.06 200.81C1134.09 201.294 1134.9 201.992 1135.48 202.905C1136.06 203.799 1136.35 204.832 1136.35 206.006C1136.35 207.235 1136.04 208.315 1135.42 209.246C1134.82 210.177 1133.99 210.903 1132.92 211.425C1131.86 211.927 1130.68 212.179 1129.37 212.179C1126.72 212.179 1124.67 211.331 1123.22 209.637C1121.8 207.942 1121.08 205.54 1121.08 202.43C1121.08 200.251 1121.47 198.398 1122.24 196.871C1123.03 195.326 1124.12 194.162 1125.51 193.38C1126.91 192.579 1128.55 192.179 1130.41 192.179C1131.37 192.179 1132.27 192.281 1133.11 192.486C1133.96 192.672 1134.69 192.952 1135.31 193.324L1134.24 195.503C1133.3 194.888 1132.04 194.581 1130.46 194.581C1128.42 194.581 1126.81 195.214 1125.65 196.48C1124.48 197.728 1123.9 199.553 1123.9 201.955C1123.9 202.253 1123.91 202.486 1123.93 202.654C1124.49 201.816 1125.26 201.182 1126.24 200.754C1127.23 200.307 1128.35 200.084 1129.59 200.084ZM1129.25 209.916C1130.55 209.916 1131.6 209.572 1132.41 208.883C1133.22 208.194 1133.62 207.272 1133.62 206.117C1133.62 204.963 1133.21 204.05 1132.38 203.38C1131.57 202.691 1130.48 202.346 1129.11 202.346C1128.23 202.346 1127.44 202.514 1126.75 202.849C1126.07 203.184 1125.53 203.641 1125.14 204.218C1124.76 204.795 1124.58 205.438 1124.58 206.145C1124.58 206.834 1124.75 207.467 1125.11 208.045C1125.49 208.603 1126.02 209.06 1126.72 209.413C1127.43 209.749 1128.28 209.916 1129.25 209.916Z" fill="white"/>
<path d="M1113.25 151.853C1113.24 153.844 1113.63 155.815 1114.39 157.655C1115.15 159.494 1116.27 161.163 1117.68 162.567L1118.93 163.817L1120.18 162.567C1121.6 161.163 1122.71 159.494 1123.48 157.655C1124.24 155.815 1124.63 153.844 1124.62 151.853C1124.62 150.345 1124.02 148.898 1122.96 147.831C1121.89 146.765 1120.44 146.166 1118.93 146.166C1117.43 146.166 1115.98 146.765 1114.91 147.831C1113.85 148.898 1113.25 150.345 1113.25 151.853ZM1121.78 151.853C1121.79 154.729 1120.78 157.516 1118.93 159.723C1117.09 157.516 1116.08 154.729 1116.09 151.853C1116.09 151.099 1116.39 150.375 1116.92 149.842C1117.46 149.309 1118.18 149.009 1118.93 149.009C1119.69 149.009 1120.41 149.309 1120.94 149.842C1121.48 150.375 1121.78 151.099 1121.78 151.853Z" fill="white"/>
<path d="M1119.49 99.3589L1118.93 99.1187L1118.37 99.3589C1115.16 100.733 1112.43 103.019 1110.5 105.935C1108.58 108.851 1107.56 112.268 1107.56 115.76V121.013C1105.03 122.068 1102.87 123.848 1101.35 126.129C1099.83 128.41 1099.03 131.09 1099.03 133.829V137.634H1100.45V143.322H1108.98V137.634H1113.25V143.322H1124.62V137.634H1128.89V143.322H1137.42V137.634H1138.84V133.829C1138.84 131.09 1138.03 128.41 1136.52 126.129C1135 123.848 1132.84 122.068 1130.31 121.013V115.76C1130.31 112.268 1129.29 108.851 1127.37 105.935C1125.44 103.019 1122.71 100.733 1119.49 99.3589ZM1101.87 133.829C1101.87 131.857 1102.4 129.919 1103.4 128.219C1104.4 126.519 1105.83 125.117 1107.56 124.161V134.791H1101.87V133.829ZM1106.14 140.478H1103.29V137.634H1106.14V140.478ZM1121.78 140.478H1116.09V137.634H1121.78V140.478ZM1127.47 134.791H1110.4V115.76C1110.4 112.929 1111.2 110.156 1112.71 107.761C1114.22 105.367 1116.38 103.449 1118.93 102.23C1121.49 103.449 1123.65 105.367 1125.16 107.762C1126.67 110.158 1127.47 112.932 1127.47 115.763V134.791ZM1134.57 140.478H1131.73V137.634H1134.57V140.478ZM1136 133.829V134.791H1130.31V124.164C1132.03 125.12 1133.47 126.521 1134.47 128.221C1135.47 129.921 1136 131.857 1136 133.829Z" fill="white"/>
<path d="M1100.45 150.431C1100.46 152.628 1101.33 154.733 1102.88 156.291L1104.72 158.129L1106.55 156.291C1108.1 154.733 1108.97 152.628 1108.98 150.431C1108.98 149.3 1108.53 148.215 1107.73 147.415C1106.93 146.615 1105.85 146.166 1104.72 146.166C1103.58 146.166 1102.5 146.615 1101.7 147.415C1100.9 148.215 1100.45 149.3 1100.45 150.431ZM1106.14 150.431C1106.13 151.788 1105.63 153.095 1104.72 154.1C1103.8 153.095 1103.3 151.788 1103.29 150.431C1103.29 150.054 1103.44 149.692 1103.71 149.426C1103.98 149.159 1104.34 149.009 1104.72 149.009C1105.09 149.009 1105.45 149.159 1105.72 149.426C1105.99 149.692 1106.14 150.054 1106.14 150.431Z" fill="white"/>
<path d="M1128.89 150.431C1128.89 152.628 1129.77 154.733 1131.31 156.291L1133.15 158.129L1134.99 156.291C1136.54 154.733 1137.41 152.628 1137.42 150.431C1137.42 149.3 1136.97 148.215 1136.17 147.415C1135.37 146.615 1134.28 146.166 1133.15 146.166C1132.02 146.166 1130.94 146.615 1130.14 147.415C1129.34 148.215 1128.89 149.3 1128.89 150.431ZM1134.57 150.431C1134.57 151.788 1134.06 153.095 1133.15 154.1C1132.24 153.095 1131.73 151.788 1131.73 150.431C1131.73 150.054 1131.88 149.692 1132.15 149.426C1132.41 149.159 1132.78 149.009 1133.15 149.009C1133.53 149.009 1133.89 149.159 1134.16 149.426C1134.42 149.692 1134.57 150.054 1134.57 150.431Z" fill="white"/>
<path d="M1118.93 110.619C1117.81 110.619 1116.71 110.952 1115.77 111.577C1114.84 112.202 1114.11 113.09 1113.68 114.13C1113.25 115.169 1113.14 116.312 1113.36 117.416C1113.58 118.519 1114.12 119.532 1114.91 120.328C1115.71 121.123 1116.72 121.665 1117.82 121.884C1118.93 122.104 1120.07 121.991 1121.11 121.561C1122.15 121.13 1123.04 120.401 1123.66 119.466C1124.29 118.531 1124.62 117.431 1124.62 116.306C1124.62 114.798 1124.02 113.351 1122.96 112.284C1121.89 111.218 1120.44 110.619 1118.93 110.619ZM1118.93 119.15C1118.37 119.15 1117.82 118.983 1117.35 118.671C1116.89 118.358 1116.52 117.914 1116.31 117.394C1116.09 116.875 1116.04 116.303 1116.14 115.751C1116.25 115.2 1116.53 114.693 1116.92 114.295C1117.32 113.898 1117.83 113.627 1118.38 113.517C1118.93 113.407 1119.5 113.464 1120.02 113.679C1120.54 113.894 1120.99 114.259 1121.3 114.726C1121.61 115.194 1121.78 115.744 1121.78 116.306C1121.78 117.06 1121.48 117.784 1120.94 118.317C1120.41 118.85 1119.69 119.15 1118.93 119.15Z" fill="white"/>
<path opacity="0.5" fill-rule="evenodd" clip-rule="evenodd" d="M919.73 242.331L826.02 299.022L821.03 290.36L914.74 233.669L919.73 242.331Z" fill="url(#paint3_linear)"/>
<path opacity="0.5" fill-rule="evenodd" clip-rule="evenodd" d="M703.71 236.557L811.329 294.993L806.739 303.88L699.12 245.443L703.71 236.557Z" fill="url(#paint4_linear)"/>
<ellipse cx="813.474" cy="296.5" rx="12.4896" ry="12.5" transform="rotate(-180 813.474 296.5)" fill="#6AD1E3"/>
<path d="M986.238 103.351L915.806 61.9755C912.679 60.1386 908.802 60.1386 905.675 61.9755L835.242 103.351C832.185 105.147 830.308 108.428 830.308 111.973V194.344C830.308 197.866 832.16 201.128 835.185 202.932L905.618 244.944C908.773 246.827 912.707 246.827 915.863 244.944L986.296 202.932C989.321 201.128 991.173 197.866 991.173 194.344V111.973C991.173 108.428 989.296 105.147 986.238 103.351Z" fill="url(#paint5_linear)"/>
<path d="M902.312 212.179C900.753 212.179 899.363 211.788 898.142 211.006C896.94 210.205 895.992 209.05 895.297 207.542C894.602 206.033 894.254 204.246 894.254 202.179C894.254 200.112 894.602 198.324 895.297 196.816C895.992 195.307 896.94 194.162 898.142 193.38C899.363 192.579 900.753 192.179 902.312 192.179C903.853 192.179 905.224 192.579 906.426 193.38C907.647 194.162 908.605 195.307 909.3 196.816C909.995 198.324 910.342 200.112 910.342 202.179C910.342 204.246 909.995 206.033 909.3 207.542C908.605 209.05 907.647 210.205 906.426 211.006C905.224 211.788 903.853 212.179 902.312 212.179ZM902.312 209.693C903.89 209.693 905.149 209.05 906.088 207.765C907.046 206.48 907.525 204.618 907.525 202.179C907.525 199.739 907.046 197.877 906.088 196.592C905.149 195.307 903.89 194.665 902.312 194.665C900.716 194.665 899.438 195.307 898.48 196.592C897.541 197.877 897.072 199.739 897.072 202.179C897.072 204.618 897.541 206.48 898.48 207.765C899.438 209.05 900.716 209.693 902.312 209.693Z" fill="white"/>
<path d="M919.89 200.195C922.707 200.195 924.773 200.726 926.088 201.788C927.422 202.83 928.089 204.264 928.089 206.089C928.089 207.244 927.807 208.287 927.244 209.218C926.699 210.13 925.863 210.857 924.736 211.397C923.628 211.918 922.256 212.179 920.622 212.179C919.232 212.179 917.889 211.974 916.593 211.564C915.297 211.136 914.226 210.549 913.381 209.804L914.677 207.598C915.353 208.231 916.217 208.743 917.269 209.134C918.321 209.506 919.43 209.693 920.594 209.693C922.078 209.693 923.224 209.385 924.032 208.771C924.858 208.138 925.271 207.281 925.271 206.201C925.271 205.028 924.82 204.143 923.919 203.547C923.017 202.933 921.477 202.626 919.298 202.626H914.818L915.861 192.402H926.99V194.832H918.227L917.692 200.195H919.89Z" fill="white"/>
<g clip-path="url(#clip0)">
<path d="M939.499 144.195H935.436V110.832H935.855C936.316 110.832 936.742 110.581 936.965 110.177C937.189 109.773 937.176 109.28 936.931 108.889L932.704 102.139C932.472 101.768 932.065 101.543 931.628 101.543C931.191 101.543 930.784 101.768 930.552 102.139L926.325 108.889C926.08 109.28 926.067 109.773 926.291 110.177C926.514 110.581 926.94 110.832 927.401 110.832H927.819V135.436C927.819 136.137 928.388 136.705 929.089 136.705C929.79 136.705 930.358 136.137 930.358 135.436V109.562C930.358 109.051 930.056 108.611 929.621 108.409L931.628 105.205L933.635 108.409C933.199 108.611 932.897 109.051 932.897 109.562V144.195H923.757C921.657 144.195 919.948 145.904 919.948 148.004V148.476C919.551 148.335 919.124 148.258 918.679 148.258H912.974V134.273C912.974 130.773 910.126 127.926 906.626 127.926H905.125V126.379C905.659 126.618 906.25 126.752 906.872 126.752H913.458C915.532 126.752 917.219 125.065 917.219 122.992C917.219 120.918 915.532 119.231 913.458 119.231H910.194V117.803C910.194 113.963 907.597 110.72 904.067 109.734C904.872 108.725 905.354 107.449 905.354 106.061V104.903C905.355 101.648 902.707 99 899.452 99C896.198 99 893.55 101.648 893.55 104.902V106.061C893.55 107.424 894.016 108.68 894.795 109.68C891.165 110.599 888.472 113.892 888.472 117.803V124.381C888.472 127.445 890.656 130.007 893.55 130.593V137.784C893.55 138.485 894.118 139.054 894.819 139.054C895.52 139.054 896.089 138.485 896.089 137.784V130.465H903.855H906.626C908.726 130.465 910.435 132.173 910.435 134.273V148.258H907.388V135.806C907.388 135.105 906.819 134.536 906.118 134.536H900.397C899.696 134.536 899.128 135.105 899.128 135.806V152.066V154.352H897.858H896.089V148.131C896.089 147.43 895.52 146.861 894.819 146.861C894.118 146.861 893.55 147.43 893.55 148.131V154.352H882.116C880.016 154.352 878.307 156.06 878.307 158.16V162.73C878.307 163.432 878.876 164 879.577 164H942.038C942.739 164 943.307 163.432 943.307 162.73V148.004C943.307 145.904 941.599 144.195 939.499 144.195ZM896.089 104.902C896.089 103.048 897.598 101.539 899.452 101.539C901.307 101.539 902.816 103.048 902.816 104.902V106.061C902.816 107.915 901.307 109.424 899.452 109.424C897.598 109.424 896.089 107.915 896.089 106.061V104.902ZM903.855 117.822C903.154 117.822 902.586 118.391 902.586 119.092V127.926H896.089V119.092C896.089 118.391 895.52 117.822 894.819 117.822C894.118 117.822 893.55 118.391 893.55 119.092V127.964C892.073 127.443 891.011 126.035 891.011 124.381V117.803C891.011 114.583 893.63 111.963 896.851 111.963H901.815C905.035 111.963 907.655 114.583 907.655 117.803V120.501C907.655 121.202 908.223 121.77 908.924 121.77H913.458C914.132 121.77 914.68 122.318 914.68 122.992C914.68 123.665 914.132 124.213 913.458 124.213H906.872C905.909 124.213 905.125 123.43 905.125 122.467V119.092C905.125 118.391 904.557 117.822 903.855 117.822ZM899.128 161.461H880.847V158.16C880.847 157.46 881.416 156.891 882.116 156.891H897.858C898.558 156.891 899.128 157.46 899.128 158.16V161.461ZM901.667 137.075H904.849V148.258H902.936C902.491 148.258 902.064 148.335 901.667 148.476V137.075ZM919.948 161.461H901.667V152.066C901.667 151.366 902.236 150.797 902.936 150.797H918.679C919.379 150.797 919.948 151.366 919.948 152.066V161.461ZM940.768 161.461H922.487V152.066V148.004C922.487 147.304 923.057 146.734 923.757 146.734H939.499C940.199 146.734 940.768 147.304 940.768 148.004V161.461Z" fill="white"/>
<path d="M895.717 141.824C895.48 141.588 895.153 141.452 894.819 141.452C894.485 141.452 894.159 141.588 893.921 141.824C893.685 142.06 893.549 142.388 893.549 142.721C893.549 143.055 893.685 143.383 893.921 143.619C894.158 143.855 894.485 143.991 894.819 143.991C895.153 143.991 895.48 143.855 895.717 143.619C895.953 143.383 896.089 143.055 896.089 142.721C896.089 142.388 895.953 142.06 895.717 141.824Z" fill="white"/>
<path d="M929.986 139.362C929.75 139.126 929.423 138.99 929.089 138.99C928.755 138.99 928.427 139.126 928.191 139.362C927.955 139.598 927.819 139.926 927.819 140.26C927.819 140.594 927.955 140.921 928.191 141.157C928.427 141.393 928.755 141.529 929.089 141.529C929.423 141.529 929.75 141.393 929.986 141.157C930.222 140.921 930.358 140.594 930.358 140.26C930.358 139.926 930.222 139.598 929.986 139.362Z" fill="white"/>
</g>
<path opacity="0.5" fill-rule="evenodd" clip-rule="evenodd" d="M488.593 63.0001L589.883 12.2833L594.354 21.228L493.064 71.9448L488.593 63.0001Z" fill="url(#paint6_linear)"/>
<path opacity="0.5" fill-rule="evenodd" clip-rule="evenodd" d="M702.33 69.9212L604.63 16.0629L609.275 7.20728L706.975 61.0655L702.33 69.9212Z" fill="url(#paint7_linear)"/>
<ellipse cx="602.373" cy="12.5" rx="12.4896" ry="12.5" fill="#6AD1E3"/>
<path d="M778.435 103.347L708.502 62.008C705.363 60.1526 701.463 60.1526 698.325 62.008L628.391 103.347C625.347 105.146 623.48 108.419 623.48 111.955V194.362C623.48 197.874 625.322 201.129 628.334 202.936L698.267 244.911C701.435 246.812 705.392 246.812 708.56 244.911L778.493 202.936C781.504 201.129 783.347 197.874 783.347 194.362V111.955C783.347 108.419 781.479 105.146 778.435 103.347Z" fill="url(#paint8_linear)"/>
<path d="M693.437 212.179C691.887 212.179 690.506 211.788 689.292 211.006C688.098 210.205 687.155 209.05 686.464 207.542C685.774 206.033 685.428 204.246 685.428 202.179C685.428 200.112 685.774 198.324 686.464 196.816C687.155 195.307 688.098 194.162 689.292 193.38C690.506 192.579 691.887 192.179 693.437 192.179C694.967 192.179 696.33 192.579 697.525 193.38C698.738 194.162 699.69 195.307 700.381 196.816C701.071 198.324 701.417 200.112 701.417 202.179C701.417 204.246 701.071 206.033 700.381 207.542C699.69 209.05 698.738 210.205 697.525 211.006C696.33 211.788 694.967 212.179 693.437 212.179ZM693.437 209.693C695.005 209.693 696.255 209.05 697.189 207.765C698.141 206.48 698.617 204.618 698.617 202.179C698.617 199.739 698.141 197.877 697.189 196.592C696.255 195.307 695.005 194.665 693.437 194.665C691.85 194.665 690.58 195.307 689.628 196.592C688.695 197.877 688.228 199.739 688.228 202.179C688.228 204.618 688.695 206.48 689.628 207.765C690.58 209.05 691.85 209.693 693.437 209.693Z" fill="white"/>
<path d="M722.357 207.151H718.633V211.955H715.917V207.151H705.025V205.195L715.049 192.402H718.073L708.469 204.749H716.001V200.503H718.633V204.749H722.357V207.151Z" fill="white"/>
<path d="M727.339 146.734C724.34 146.734 721.721 148.373 720.313 150.797H714.129C723.666 146.812 730.386 137.388 730.386 126.422C730.386 111.862 718.54 100.016 703.98 100.016C689.76 100.016 678.129 111.314 677.593 125.406H674.39L681.636 134.102L688.883 125.406H685.726C686.255 115.796 694.24 108.141 703.98 108.141C714.06 108.141 722.261 116.342 722.261 126.422C722.261 136.502 714.06 144.703 703.98 144.703H692.808V156.891H719.481C720.387 160.389 723.561 162.984 727.339 162.984C731.819 162.984 735.464 159.339 735.464 154.859C735.464 150.379 731.819 146.734 727.339 146.734ZM703.98 146.734C715.18 146.734 724.293 137.622 724.293 126.422C724.293 115.222 715.18 106.109 703.98 106.109C692.78 106.109 683.668 115.222 683.668 126.422V127.438H684.546L681.636 130.929L678.726 127.438H679.605V126.422C679.605 112.982 690.54 102.047 703.98 102.047C717.42 102.047 728.355 112.982 728.355 126.422C728.355 139.862 717.42 150.797 703.98 150.797H694.839V146.734H703.98ZM694.839 154.859V152.828H719.481C719.313 153.479 719.214 154.157 719.214 154.859H694.839ZM727.339 160.953C723.979 160.953 721.246 158.22 721.246 154.859C721.246 151.499 723.979 148.766 727.339 148.766C730.7 148.766 733.433 151.499 733.433 154.859C733.433 158.22 730.7 160.953 727.339 160.953Z" fill="white"/>
<path d="M730.684 151.182L726.324 155.542L725.011 154.229L723.574 155.665L726.324 158.414L732.12 152.618L730.684 151.182Z" fill="white"/>
<path d="M687.73 136.578H675.542C673.863 136.578 672.496 137.945 672.496 139.625V159.938C672.496 161.617 673.863 162.984 675.542 162.984H687.73C689.41 162.984 690.777 161.617 690.777 159.938V139.625C690.777 137.945 689.41 136.578 687.73 136.578ZM688.746 159.938C688.746 160.498 688.29 160.953 687.73 160.953H675.542C674.983 160.953 674.527 160.498 674.527 159.938V139.625C674.527 139.064 674.983 138.609 675.542 138.609H687.73C688.29 138.609 688.746 139.064 688.746 139.625V159.938Z" fill="white"/>
<path d="M676.558 140.641H686.714V142.672H676.558V140.641Z" fill="white"/>
<path d="M676.558 144.703H686.714V146.734H676.558V144.703Z" fill="white"/>
<path d="M684.683 156.891H686.714V158.922H684.683V156.891Z" fill="white"/>
<path d="M680.621 156.891H682.652V158.922H680.621V156.891Z" fill="white"/>
<path d="M676.558 156.891H678.589V158.922H676.558V156.891Z" fill="white"/>
<path opacity="0.5" fill-rule="evenodd" clip-rule="evenodd" d="M502.581 244L408.31 298.583L403.305 289.925L497.576 235.342L502.581 244Z" fill="url(#paint9_linear)"/>
<path opacity="0.5" fill-rule="evenodd" clip-rule="evenodd" d="M287.584 236.072L393.702 294.536L389.059 303.393L282.941 244.929L287.584 236.072Z" fill="url(#paint10_linear)"/>
<ellipse cx="395.82" cy="296.5" rx="12.4896" ry="12.5" transform="rotate(-180 395.82 296.5)" fill="#6AD1E3"/>
<path d="M570.609 103.347L500.675 62.008C497.537 60.1526 493.637 60.1526 490.498 62.008L420.565 103.347C417.521 105.146 415.653 108.419 415.653 111.955V194.362C415.653 197.874 417.496 201.129 420.507 202.936L490.44 244.911C493.608 246.812 497.565 246.812 500.733 244.911L570.666 202.936C573.678 201.129 575.52 197.874 575.52 194.362V111.955C575.52 108.419 573.653 105.146 570.609 103.347Z" fill="url(#paint11_linear)"/>
<path d="M486.609 212.179C485.06 212.179 483.678 211.788 482.465 211.006C481.27 210.205 480.328 209.05 479.637 207.542C478.946 206.033 478.601 204.246 478.601 202.179C478.601 200.112 478.946 198.324 479.637 196.816C480.328 195.307 481.27 194.162 482.465 193.38C483.678 192.579 485.06 192.179 486.609 192.179C488.14 192.179 489.502 192.579 490.697 193.38C491.91 194.162 492.862 195.307 493.553 196.816C494.244 198.324 494.589 200.112 494.589 202.179C494.589 204.246 494.244 206.033 493.553 207.542C492.862 209.05 491.91 210.205 490.697 211.006C489.502 211.788 488.14 212.179 486.609 212.179ZM486.609 209.693C488.177 209.693 489.428 209.05 490.361 207.765C491.313 206.48 491.789 204.618 491.789 202.179C491.789 199.739 491.313 197.877 490.361 196.592C489.428 195.307 488.177 194.665 486.609 194.665C485.022 194.665 483.753 195.307 482.801 196.592C481.868 197.877 481.401 199.739 481.401 202.179C481.401 204.618 481.868 206.48 482.801 207.765C483.753 209.05 485.022 209.693 486.609 209.693Z" fill="white"/>
<path d="M505.708 200.614C507.63 200.801 509.096 201.397 510.104 202.402C511.112 203.389 511.616 204.655 511.616 206.201C511.616 207.318 511.336 208.333 510.776 209.246C510.216 210.14 509.376 210.857 508.256 211.397C507.154 211.918 505.801 212.179 504.196 212.179C502.796 212.179 501.452 211.974 500.164 211.564C498.876 211.136 497.821 210.549 497 209.804L498.288 207.598C498.96 208.231 499.818 208.743 500.864 209.134C501.909 209.506 503.02 209.693 504.196 209.693C505.652 209.693 506.781 209.385 507.584 208.771C508.405 208.156 508.816 207.309 508.816 206.229C508.816 205.149 508.414 204.311 507.612 203.715C506.809 203.119 505.596 202.821 503.972 202.821H502.404V200.866L507.332 194.832H497.896V192.402H510.832V194.302L505.708 200.614Z" fill="white"/>
<g clip-path="url(#clip1)">
<path d="M507.098 129.985C507.206 130.025 507.316 130.043 507.424 130.043C507.813 130.043 508.178 129.803 508.319 129.416L512.178 118.814C512.358 118.319 512.103 117.773 511.609 117.593C511.114 117.414 510.568 117.668 510.388 118.162L506.529 128.765C506.35 129.259 506.604 129.806 507.098 129.985ZM473.769 128.558L480.248 132.298C480.751 132.589 481.314 132.739 481.878 132.751C481.903 132.753 481.928 132.755 481.953 132.755C481.978 132.755 482.003 132.753 482.028 132.751C482.592 132.739 483.155 132.589 483.658 132.298L490.137 128.558C490.643 128.266 490.944 127.743 490.944 127.16V118.257C490.944 118.219 490.941 118.181 490.937 118.144C490.901 117.607 490.61 117.132 490.137 116.86L483.659 113.119C482.607 112.512 481.3 112.512 480.248 113.119L473.769 116.86C473.297 117.132 473.006 117.607 472.969 118.144C472.965 118.181 472.962 118.219 472.962 118.257V127.16C472.962 127.743 473.264 128.266 473.769 128.558ZM489.04 126.992L482.905 130.534V123.715C483.165 123.64 483.419 123.534 483.658 123.396L489.04 120.289L489.04 126.992ZM481.2 114.768C481.664 114.5 482.242 114.5 482.706 114.768L488.75 118.257L482.706 121.747C482.242 122.015 481.664 122.015 481.2 121.747L475.156 118.257L481.2 114.768ZM474.866 120.289L480.248 123.396C480.487 123.534 480.741 123.64 481.001 123.715V130.534L474.866 126.992V120.289ZM519.176 102.454H517.814C517.288 102.454 516.862 102.881 516.862 103.406C516.862 103.932 517.288 104.359 517.814 104.359H519.176C522.8 104.359 525.749 107.308 525.749 110.932V136.581H522.506V111.881C522.506 109.521 520.586 107.602 518.227 107.602H472.08C469.72 107.602 467.801 109.521 467.801 111.881V136.581H464.558V110.932C464.558 107.307 467.506 104.359 471.131 104.359H513.327C513.853 104.359 514.28 103.932 514.28 103.406C514.28 102.881 513.853 102.454 513.327 102.454H471.131C466.456 102.454 462.653 106.257 462.653 110.932V139.639C462.653 143.76 465.595 147.271 469.648 147.987C469.704 147.997 469.76 148.001 469.815 148.001C470.268 148.001 470.67 147.676 470.752 147.215C470.843 146.697 470.497 146.203 469.979 146.111C466.838 145.557 464.558 142.835 464.558 139.639V138.485H468.75L468.753 138.485L468.755 138.485H521.551L521.554 138.485L521.556 138.485H525.749V139.639C525.749 143.263 522.8 146.212 519.176 146.212H474.284C473.758 146.212 473.332 146.638 473.332 147.164C473.332 147.69 473.758 148.116 474.284 148.116H485.673L485.165 153.631H484.751C482.958 153.631 481.351 154.832 480.845 156.553L480.625 157.3C480.397 158.073 480.544 158.886 481.026 159.531C481.509 160.176 482.247 160.545 483.053 160.545H507.254C508.059 160.545 508.798 160.175 509.28 159.531C509.763 158.886 509.909 158.073 509.681 157.3L509.461 156.553C508.955 154.832 507.349 153.631 505.556 153.631H505.141L504.633 148.116H519.176C523.85 148.116 527.653 144.313 527.653 139.639V110.932C527.653 106.257 523.85 102.454 519.176 102.454ZM494.201 136.581H469.705V111.881C469.705 110.571 470.77 109.506 472.08 109.506H494.201V136.581ZM520.602 136.581H496.105V109.506H518.227C519.536 109.506 520.602 110.571 520.602 111.881V136.581ZM487.586 148.116H502.721L503.229 153.631H487.078L487.586 148.116ZM505.556 155.535C506.51 155.535 507.365 156.175 507.635 157.09L507.855 157.838C507.932 158.1 507.826 158.296 507.755 158.39C507.636 158.55 507.453 158.641 507.254 158.641H483.053C482.78 158.641 482.621 158.484 482.551 158.39C482.481 158.296 482.375 158.1 482.452 157.838L482.672 157.09C482.942 156.175 483.796 155.535 484.751 155.535H505.556ZM496.98 142.348C496.98 141.34 496.162 140.522 495.153 140.522C494.145 140.522 493.327 141.34 493.327 142.348C493.327 143.357 494.145 144.175 495.153 144.175C496.162 144.175 496.98 143.357 496.98 142.348ZM513.689 119.681C513.317 119.309 512.714 119.309 512.342 119.681C511.97 120.053 511.97 120.655 512.342 121.027L515.104 123.789L512.342 126.552C511.97 126.924 511.97 127.526 512.342 127.898C512.528 128.084 512.772 128.177 513.015 128.177C513.259 128.177 513.503 128.084 513.689 127.898L517.124 124.463C517.496 124.091 517.496 123.488 517.124 123.116L513.689 119.681ZM505.692 128.177C505.936 128.177 506.179 128.084 506.365 127.898C506.737 127.526 506.737 126.923 506.365 126.552L503.603 123.789L506.365 121.027C506.737 120.655 506.737 120.052 506.365 119.681C505.993 119.309 505.39 119.309 505.019 119.681L501.583 123.116C501.211 123.488 501.211 124.091 501.583 124.463L505.019 127.898C505.205 128.084 505.448 128.177 505.692 128.177Z" fill="white"/>
</g>
<path opacity="0.5" fill-rule="evenodd" clip-rule="evenodd" d="M73.9383 63.0001L172.356 10.3936L177.064 19.2161L78.6462 71.8225L73.9383 63.0001Z" fill="url(#paint12_linear)"/>
<path opacity="0.5" fill-rule="evenodd" clip-rule="evenodd" d="M286.761 70.0001L187.103 14.1734L191.985 5.44556L291.642 61.2722L286.761 70.0001Z" fill="url(#paint13_linear)"/>
<ellipse cx="184.846" cy="12.5" rx="12.4896" ry="12.5" fill="#6AD1E3"/>
<path d="M363.327 103.349L293.115 61.9898C289.983 60.1447 286.096 60.1447 282.964 61.9898L212.751 103.349C209.7 105.147 207.827 108.424 207.827 111.965V194.352C207.827 197.87 209.675 201.128 212.694 202.934L282.906 244.93C286.067 246.82 290.011 246.82 293.172 244.93L363.385 202.934C366.404 201.128 368.252 197.87 368.252 194.352V111.965C368.252 108.424 366.379 105.147 363.327 103.349Z" fill="url(#paint14_linear)"/>
<path d="M278.81 212.179C277.256 212.179 275.869 211.788 274.652 211.006C273.453 210.205 272.507 209.05 271.814 207.542C271.121 206.033 270.774 204.246 270.774 202.179C270.774 200.112 271.121 198.324 271.814 196.816C272.507 195.307 273.453 194.162 274.652 193.38C275.869 192.579 277.256 192.179 278.81 192.179C280.346 192.179 281.714 192.579 282.913 193.38C284.13 194.162 285.086 195.307 285.779 196.816C286.472 198.324 286.818 200.112 286.818 202.179C286.818 204.246 286.472 206.033 285.779 207.542C285.086 209.05 284.13 210.205 282.913 211.006C281.714 211.788 280.346 212.179 278.81 212.179ZM278.81 209.693C280.384 209.693 281.639 209.05 282.576 207.765C283.531 206.48 284.009 204.618 284.009 202.179C284.009 199.739 283.531 197.877 282.576 196.592C281.639 195.307 280.384 194.665 278.81 194.665C277.218 194.665 275.944 195.307 274.989 196.592C274.052 197.877 273.584 199.739 273.584 202.179C273.584 204.618 274.052 206.48 274.989 207.765C275.944 209.05 277.218 209.693 278.81 209.693Z" fill="white"/>
<path d="M304.462 209.525V211.955H290.328V210.056L298.337 202.374C299.311 201.443 299.966 200.642 300.303 199.972C300.641 199.283 300.809 198.594 300.809 197.905C300.809 196.881 300.444 196.089 299.713 195.531C299.001 194.953 297.971 194.665 296.622 194.665C294.45 194.665 292.773 195.372 291.593 196.788L289.682 195.14C290.45 194.209 291.452 193.482 292.689 192.961C293.944 192.439 295.339 192.179 296.875 192.179C298.936 192.179 300.575 192.672 301.793 193.659C303.01 194.627 303.619 195.95 303.619 197.626C303.619 198.668 303.394 199.655 302.945 200.587C302.495 201.518 301.643 202.579 300.388 203.771L294.375 209.525H304.462Z" fill="white"/>
<g clip-path="url(#clip2)">
<path d="M319.743 99H270.993C270.395 99 269.91 99.4851 269.91 100.083V114.476H272.077V101.167H318.66V160.75C318.67 161.32 318.231 161.797 317.662 161.833C317.569 161.833 317.476 161.826 317.383 161.823C317.191 161.818 316.999 161.814 316.811 161.794C316.794 161.794 316.779 161.794 316.763 161.788C313.225 161.401 310.43 158.609 310.04 155.071C310.04 155.056 310.034 155.04 310.032 155.024C310.006 154.767 309.993 154.509 309.993 154.25V152.083C309.993 151.485 309.508 151 308.91 151H272.077V129.643H269.91V151H261.243C260.645 151 260.16 151.485 260.16 152.083V154.25C260.166 159.632 264.528 163.994 269.91 164H317.685C319.443 163.954 320.84 162.508 320.827 160.75V100.083C320.827 99.4851 320.341 99 319.743 99ZM269.91 161.833C265.724 161.828 262.331 158.436 262.327 154.25V153.167H307.827V154.25C307.828 154.607 307.849 154.964 307.888 155.319C307.898 155.413 307.916 155.504 307.929 155.598C307.965 155.86 308.009 156.121 308.066 156.378C308.085 156.467 308.11 156.556 308.133 156.646C308.199 156.907 308.274 157.164 308.361 157.418C308.386 157.49 308.412 157.562 308.439 157.634C308.537 157.903 308.649 158.165 308.771 158.424C308.797 158.477 308.821 158.532 308.847 158.581C308.983 158.856 309.132 159.122 309.294 159.382C309.316 159.416 309.336 159.452 309.357 159.49C309.534 159.767 309.725 160.034 309.928 160.292L309.963 160.338C310.199 160.635 310.453 160.918 310.721 161.186C310.955 161.418 311.196 161.634 311.447 161.836L269.91 161.833Z" fill="white"/>
<path d="M291.577 127.476C291.864 127.476 292.139 127.362 292.342 127.159L296.676 122.825C297.099 122.402 297.099 121.717 296.676 121.294L292.342 116.96C292.139 116.757 291.864 116.643 291.577 116.643H261.243C258.252 116.643 255.827 119.068 255.827 122.059C255.827 125.051 258.252 127.476 261.243 127.476H291.577ZM291.297 118.978L294.378 122.059L291.297 125.14L290.527 122.059L291.297 118.978ZM264.493 118.809H289.107L288.565 120.976V123.143L289.107 125.309H264.493V118.809ZM257.993 122.059C257.993 120.265 259.448 118.809 261.243 118.809H262.327V125.309H261.243C259.448 125.309 257.993 123.854 257.993 122.059Z" fill="white"/>
<path d="M280.743 145.583H313.243C313.841 145.583 314.327 145.098 314.327 144.5V112C314.326 111.402 313.841 110.917 313.243 110.917C312.956 110.917 312.68 111.031 312.477 111.234L279.977 143.734C279.554 144.157 279.554 144.843 279.978 145.266C280.181 145.469 280.456 145.583 280.743 145.583ZM312.16 114.615V117.417V119.583V121.75V123.917V126.083V128.25V130.417V132.583V134.75V136.917V139.083V141.25V143.417H307.827H305.66H303.493H301.327H299.16H296.993H294.827H292.66H290.493H288.327H286.16H283.358L312.16 114.615Z" fill="white"/>
<path d="M296.435 139.083H306.743C307.341 139.083 307.827 138.598 307.827 138V127.692C307.826 127.094 307.341 126.609 306.743 126.609C306.456 126.609 306.18 126.723 305.977 126.926L295.669 137.234C295.246 137.657 295.246 138.343 295.67 138.766C295.873 138.969 296.148 139.083 296.435 139.083ZM305.66 130.308V136.917H299.052L305.66 130.308Z" fill="white"/>
<path d="M305.66 105.5H283.993V107.667H305.66V105.5Z" fill="white"/>
<path d="M308.91 109.833H280.743V112H308.91V109.833Z" fill="white"/>
<path d="M280.743 132.583H274.243V134.75H280.743V132.583Z" fill="white"/>
<path d="M278.577 136.916H274.243V139.083H278.577V136.916Z" fill="white"/>
</g>
<path d="M155.931 103.351L85.4981 61.9755C82.3711 60.1386 78.4947 60.1386 75.3678 61.9755L4.93488 103.351C1.87762 105.147 1.52588e-05 108.428 1.52588e-05 111.973V194.344C1.52588e-05 197.866 1.85265 201.128 4.87729 202.932L75.3102 244.944C78.466 246.827 82.3999 246.827 85.5557 244.944L155.989 202.932C159.013 201.128 160.866 197.866 160.866 194.344V111.973C160.866 108.428 158.988 105.147 155.931 103.351Z" fill="url(#paint15_linear)"/>
<path d="M75.0024 212.179C73.4433 212.179 72.0533 211.788 70.8324 211.006C69.6302 210.205 68.6817 209.05 67.9867 207.542C67.2917 206.033 66.9442 204.246 66.9442 202.179C66.9442 200.112 67.2917 198.324 67.9867 196.816C68.6817 195.307 69.6302 194.162 70.8324 193.38C72.0533 192.579 73.4433 192.179 75.0024 192.179C76.5427 192.179 77.9139 192.579 79.116 193.38C80.337 194.162 81.2949 195.307 81.9899 196.816C82.6849 198.324 83.0324 200.112 83.0324 202.179C83.0324 204.246 82.6849 206.033 81.9899 207.542C81.2949 209.05 80.337 210.205 79.116 211.006C77.9139 211.788 76.5427 212.179 75.0024 212.179ZM75.0024 209.693C76.5802 209.693 77.8387 209.05 78.7779 207.765C79.7359 206.48 80.2149 204.618 80.2149 202.179C80.2149 199.739 79.7359 197.877 78.7779 196.592C77.8387 195.307 76.5802 194.665 75.0024 194.665C73.4058 194.665 72.1285 195.307 71.1705 196.592C70.2313 197.877 69.7617 199.739 69.7617 202.179C69.7617 204.618 70.2313 206.48 71.1705 207.765C72.1285 209.05 73.4058 209.693 75.0024 209.693Z" fill="white"/>
<path d="M92.9762 192.402V211.955H90.1868V194.832H85.735V192.402H92.9762Z" fill="white"/>
<g clip-path="url(#clip3)">
<path d="M105.635 106.305C96.3522 97.0145 81.4596 96.5269 71.5906 105.19C61.7215 113.853 60.2621 128.695 68.2549 139.117L66.3416 141.032C65.5983 140.831 64.8043 141.041 64.2579 141.584L50.4688 155.385C49.9261 155.931 49.7159 156.726 49.917 157.47L48.9365 158.451C48.3275 159.061 47.9854 159.887 47.9854 160.749C47.9854 161.611 48.3275 162.437 48.9365 163.047L49.7015 162.28L48.9392 163.049C49.5479 163.659 50.3736 164.001 51.2347 164.001C52.0957 164.001 52.9215 163.659 53.5302 163.049L54.511 162.068C55.2542 162.281 56.0543 162.068 56.5948 161.515L70.3833 147.715C70.9261 147.168 71.1363 146.374 70.9352 145.63L72.8486 143.715C83.262 151.714 98.091 150.254 106.747 140.377C115.404 130.5 114.917 115.595 105.635 106.305ZM51.9995 161.518C51.5716 161.927 50.8978 161.927 50.4698 161.518L50.4666 161.515V161.514C50.2636 161.311 50.1496 161.036 50.1496 160.749C50.1496 160.462 50.2636 160.186 50.4666 159.983L51.2349 159.214L52.7683 160.749L51.9995 161.518ZM55.0646 159.984L53.5319 158.45L52.0001 156.917L51.999 156.916L62.724 146.182L65.7896 149.25L55.0646 159.984ZM67.3198 147.718L64.2543 144.651L65.7879 143.116L65.7883 143.116L67.3206 144.65L68.8531 146.184L67.3198 147.718ZM69.6178 143.885L68.8508 143.118L68.0841 142.351L69.6564 140.777C69.9016 141.045 70.1256 141.324 70.3845 141.584C70.6433 141.843 70.9228 142.067 71.19 142.312L69.6178 143.885ZM96.7064 144.988C88.2056 148.512 78.4209 146.564 71.9147 140.052C63.0453 131.155 63.0453 116.751 71.9147 107.853C78.4209 101.342 88.2056 99.3937 96.7064 102.918C105.207 106.442 110.75 114.744 110.75 123.953C110.75 133.161 105.207 141.463 96.7064 144.988Z" fill="white"/>
<path d="M96.6817 120.677C95.4869 120.679 94.5187 121.648 94.5174 122.844V128.259H92.3531V118.511C92.352 117.316 91.3836 116.347 90.1888 116.345H86.9425C85.7476 116.347 84.7794 117.316 84.7782 118.511V128.259H82.6139V114.179C82.6127 112.983 81.6444 112.014 80.4496 112.013H77.2032C76.0084 112.014 75.0402 112.983 75.039 114.179V129.342C75.039 129.94 75.5234 130.425 76.121 130.425H101.01C101.608 130.425 102.092 129.94 102.092 129.342V122.844C102.091 121.648 101.122 120.679 99.9276 120.677H96.6817ZM80.4499 128.259H77.2035L77.202 114.179H80.4499V128.259ZM90.1889 128.259H86.9426L86.9411 118.511H90.1889V128.259ZM99.928 128.259H96.6817L96.6801 122.844H99.928V128.259Z" fill="white"/>
<path d="M98.8459 132.59H97.7638C97.1661 132.59 96.6817 133.075 96.6817 133.673C96.6817 134.271 97.1661 134.756 97.7638 134.756H98.8459C99.4435 134.756 99.928 134.271 99.928 133.673C99.928 133.075 99.4435 132.59 98.8459 132.59Z" fill="white"/>
<path d="M89.1069 132.59H88.0248C87.4272 132.59 86.9427 133.075 86.9427 133.673C86.9427 134.271 87.4272 134.756 88.0248 134.756H89.1069C89.7046 134.756 90.189 134.271 90.189 133.673C90.189 133.075 89.7046 132.59 89.1069 132.59Z" fill="white"/>
<path d="M79.3679 132.59H78.2858C77.6881 132.59 77.2037 133.075 77.2037 133.673C77.2037 134.271 77.6881 134.756 78.2858 134.756H79.3679C79.9655 134.756 80.4499 134.271 80.4499 133.673C80.4499 133.075 79.9655 132.59 79.3679 132.59Z" fill="white"/>
</g>
<defs>
<linearGradient id="paint0_linear" x1="1016.28" y1="15.3455" x2="916.212" y2="64.3633" gradientUnits="userSpaceOnUse">
<stop stop-color="#6AD1E3"/>
<stop offset="0.969071" stop-color="#09477F"/>
</linearGradient>
<linearGradient id="paint1_linear" x1="1028.19" y1="11.4884" x2="1128.54" y2="63.9036" gradientUnits="userSpaceOnUse">
<stop stop-color="#6AD1E3"/>
<stop offset="0.8608" stop-color="#08447B"/>
</linearGradient>
<linearGradient id="paint2_linear" x1="1199" y1="153.5" x2="1038.13" y2="153.5" gradientUnits="userSpaceOnUse">
<stop stop-color="#0A5191"/>
<stop offset="1" stop-color="#073865"/>
</linearGradient>
<linearGradient id="paint3_linear" x1="822.459" y1="296.189" x2="919.904" y2="241.519" gradientUnits="userSpaceOnUse">
<stop stop-color="#6AD1E3"/>
<stop offset="0.820324" stop-color="#08447A"/>
</linearGradient>
<linearGradient id="paint4_linear" x1="804.304" y1="295.748" x2="700.305" y2="242.153" gradientUnits="userSpaceOnUse">
<stop offset="0.0131081" stop-color="#6AD1E3"/>
<stop offset="0.924445" stop-color="#225E95"/>
</linearGradient>
<linearGradient id="paint5_linear" x1="991.173" y1="153.5" x2="830.308" y2="153.5" gradientUnits="userSpaceOnUse">
<stop stop-color="#0A5190"/>
<stop offset="1" stop-color="#073866"/>
</linearGradient>
<linearGradient id="paint6_linear" x1="593.312" y1="15.3179" x2="490.549" y2="66.9144" gradientUnits="userSpaceOnUse">
<stop stop-color="#6AD1E3"/>
<stop offset="0.900015" stop-color="#246198"/>
</linearGradient>
<linearGradient id="paint7_linear" x1="605.129" y1="11.4877" x2="705.482" y2="63.903" gradientUnits="userSpaceOnUse">
<stop stop-color="#6AD1E3"/>
<stop offset="0.935139" stop-color="#225E94"/>
</linearGradient>
<linearGradient id="paint8_linear" x1="783.347" y1="153.5" x2="623.48" y2="153.5" gradientUnits="userSpaceOnUse">
<stop stop-color="#3A80C0"/>
<stop offset="1" stop-color="#0B3D6A"/>
</linearGradient>
<linearGradient id="paint9_linear" x1="404.761" y1="295.729" x2="500.4" y2="240.227" gradientUnits="userSpaceOnUse">
<stop stop-color="#6AD1E3"/>
<stop offset="0.836535" stop-color="#205B91"/>
</linearGradient>
<linearGradient id="paint10_linear" x1="386.176" y1="295.694" x2="286.273" y2="244.331" gradientUnits="userSpaceOnUse">
<stop offset="0.0131081" stop-color="#6AD1E3"/>
<stop offset="0.983295" stop-color="#387AB5"/>
</linearGradient>
<linearGradient id="paint11_linear" x1="575.52" y1="153.5" x2="415.653" y2="153.5" gradientUnits="userSpaceOnUse">
<stop stop-color="#3A81C1"/>
<stop offset="1" stop-color="#0A3B68"/>
</linearGradient>
<linearGradient id="paint12_linear" x1="175.842" y1="13.3477" x2="75.9948" y2="66.854" gradientUnits="userSpaceOnUse">
<stop stop-color="#6AD1E3"/>
<stop offset="0.939446" stop-color="#3A78B2"/>
</linearGradient>
<linearGradient id="paint13_linear" x1="187.673" y1="9.62263" x2="288.976" y2="66.0387" gradientUnits="userSpaceOnUse">
<stop stop-color="#6AD1E3"/>
<stop offset="0.916456" stop-color="#3D7DB8"/>
</linearGradient>
<linearGradient id="paint14_linear" x1="368.252" y1="153.5" x2="207.827" y2="153.5" gradientUnits="userSpaceOnUse">
<stop stop-color="#6BA4D9"/>
<stop offset="1" stop-color="#0D5596"/>
</linearGradient>
<linearGradient id="paint15_linear" x1="160.866" y1="153.5" x2="1.52588e-05" y2="153.5" gradientUnits="userSpaceOnUse">
<stop stop-color="#6AA4D9"/>
<stop offset="1" stop-color="#0B4E8C"/>
</linearGradient>
<clipPath id="clip0">
<rect width="65" height="65" fill="white" transform="translate(878.307 99)"/>
</clipPath>
<clipPath id="clip1">
<rect width="65" height="65" fill="white" transform="translate(462.653 99)"/>
</clipPath>
<clipPath id="clip2">
<rect width="65" height="65" fill="white" transform="translate(255.827 99)"/>
</clipPath>
<clipPath id="clip3">
<rect width="64.9458" height="65" fill="white" transform="translate(47.96 98.9998)"/>
</clipPath>
</defs>
</svg>
