<svg width="190" height="300" viewBox="0 0 190 300" fill="none" xmlns="http://www.w3.org/2000/svg">
<g clip-path="url(#clip0)">
<path fill-rule="evenodd" clip-rule="evenodd" d="M138.888 294.668L20.8743 239.82C5.74401 232.788 -1.40228 214.552 4.91259 199.089L54.0572 78.7461C60.3721 63.2826 77.7568 56.4474 92.887 63.4793L210.901 118.327C226.031 125.359 233.177 143.595 226.862 159.058L177.718 279.401C171.403 294.864 154.018 301.7 138.888 294.668ZM20.1444 241.607C4.04841 234.127 -3.55402 214.726 3.16392 198.276L52.3085 77.9334C59.0265 61.4829 77.5208 54.2114 93.6169 61.6921L211.631 116.54C227.727 124.02 235.329 143.42 228.611 159.871L179.467 280.214C172.749 296.664 154.254 303.936 138.158 296.455L20.1444 241.607Z" fill="#009CDE"/>
<path fill-rule="evenodd" clip-rule="evenodd" d="M196.511 242.148L88.6284 192.009C68.0516 182.446 58.3327 157.645 66.9208 136.615L111.696 26.9723C120.284 5.94228 143.927 -3.35343 164.504 6.20978L272.387 56.3488C292.964 65.9121 302.682 90.7128 294.094 111.743L249.319 221.386C240.731 242.416 217.088 251.712 196.511 242.148ZM87.6359 194.44C65.7456 184.266 55.4064 157.883 64.5427 135.51L109.318 25.8671C118.454 3.49468 143.606 -6.39439 165.497 3.77924L273.379 53.9183C295.27 64.0919 305.609 90.4757 296.472 112.848L251.697 222.491C242.561 244.864 217.409 254.753 195.519 244.579L87.6359 194.44Z" fill="#009CDE"/>
</g>
<path d="M128.494 -6.10352e-05H165.365C173.33 -6.10352e-05 177.867 6.25895 175.494 13.9679L127.94 168.291H210.579V7.31794C210.579 3.27937 213.81 -6.10352e-05 217.792 -6.10352e-05H261.09C265.073 -6.10352e-05 268.307 3.27937 268.307 7.31794V292.682C268.307 296.72 265.073 300 261.09 300H217.792C213.81 300 210.579 296.72 210.579 292.682V219.513H66.2559C58.2903 219.513 53.8022 213.269 56.2353 205.579L119.076 6.96494C120.293 3.11996 124.512 -6.10352e-05 128.494 -6.10352e-05Z" fill="#0047BB"/>
<path d="M52.3315 250.323H89.2021C97.1677 250.323 101.663 256.57 99.2377 264.264L90.3925 292.299C89.0524 296.55 84.3884 300 79.9863 300H43.651C35.6854 300 31.216 293.764 33.6753 286.081L42.8911 257.284C44.1188 253.443 48.3487 250.323 52.3315 250.323Z" fill="#0047BB"/>
<defs>
<clipPath id="clip0">
<rect width="300" height="300" fill="white"/>
</clipPath>
</defs>
</svg>
