<svg width="189" height="319" viewBox="0 0 189 319" fill="none" xmlns="http://www.w3.org/2000/svg">
<g clip-path="url(#clip0)">
<g clip-path="url(#clip1)">
<path fill-rule="evenodd" clip-rule="evenodd" d="M28.0448 311.761L-90.0114 245.699C-105.147 237.23 -111.569 217.514 -104.355 201.662L-48.2117 78.2994C-40.9976 62.4478 -22.8795 56.4635 -7.74378 64.9331L110.312 130.995C125.448 139.464 131.87 159.18 124.656 175.032L68.5127 298.395C61.2986 314.246 43.1805 320.231 28.0448 311.761ZM-90.8452 247.531C-106.947 238.521 -113.779 217.547 -106.104 200.683L-49.961 77.3205C-42.2864 60.4572 -23.0118 54.0909 -6.91001 63.1011L111.146 129.163C127.248 138.173 134.08 159.148 126.405 176.011L70.262 299.374C62.5874 316.237 43.3128 322.603 27.211 313.593L-90.8452 247.531Z" fill="#6AD1E3"/>
<path fill-rule="evenodd" clip-rule="evenodd" d="M141.073 246.853L4.32291 269.978C-21.76 274.389 -46.9311 255.871 -51.8983 228.617L-77.7959 86.5243C-82.7632 59.2702 -65.6457 33.6009 -39.5628 29.1902L97.1873 6.06507C123.27 1.65433 148.441 20.1724 153.409 47.4265L179.306 189.519C184.273 216.773 167.156 242.442 141.073 246.853ZM4.897 273.128C-22.8507 277.82 -49.6285 258.12 -54.9128 229.127L-80.8104 87.034C-86.0948 58.0404 -67.8846 30.7326 -40.1369 26.0403L96.6132 2.91522C124.361 -1.77705 151.139 17.9231 156.423 46.9167L182.321 189.009C187.605 218.003 169.395 245.311 141.647 250.003L4.897 273.128Z" fill="#6AD1E3"/>
</g>
<path d="M-59.7835 240.857C-61.1591 287.786 -32.1365 319.406 39.8295 318.674C103.861 322.253 137.073 296.391 138.83 240.857V212.045C138.83 207.854 135.661 204.452 131.758 204.452H89.3279C85.4249 204.452 82.2593 207.854 82.2593 212.045V240.857C79.6989 255.082 73.2869 263.605 62.8106 266.196C45.9223 269.307 30.6113 269.536 17.8974 266.196C6.32067 264.727 -0.443459 256.358 -2.60035 240.857V77.8203C-1.32749 67.9707 3.82264 63.0478 9.11215 59.0741C20.5495 51.2448 53.0312 49.1103 68.2798 59.0741C72.6963 62.0869 79.5522 66.7262 82.2593 77.8203V102.73C82.2593 106.92 85.4249 110.323 89.3279 110.323H131.758C135.661 110.323 138.83 106.92 138.83 102.73V77.8203C135.833 26.6581 102.764 0.641878 39.8295 -6.10352e-05C-25.376 0.535545 -58.507 26.5518 -59.7835 77.8203V240.857Z" fill="#009CDE"/>
</g>
<defs>
<clipPath id="clip0">
<rect width="300" height="319" fill="white" transform="translate(-111)"/>
</clipPath>
<clipPath id="clip1">
<rect width="300" height="319" fill="white" transform="translate(-111)"/>
</clipPath>
</defs>
</svg>
