<svg width="161" height="189" viewBox="0 0 161 189" fill="none" xmlns="http://www.w3.org/2000/svg">
<path d="M155.501 44.3492L85.2882 2.98975C82.1561 1.14474 78.2694 1.14474 75.1373 2.98975L4.92456 44.3492C1.87315 46.1466 4.57764e-05 49.4239 4.57764e-05 52.9654V135.352C4.57764e-05 138.87 1.84816 142.128 4.86694 143.934L75.0796 185.93C78.2406 187.82 82.1849 187.82 85.3458 185.93L155.559 143.934C158.577 142.128 160.425 138.87 160.425 135.352V52.9654C160.425 49.4239 158.552 46.1466 155.501 44.3492Z" fill="url(#paint0_linear)"/>
<path d="M70.9837 153.179C69.4289 153.179 68.0427 152.788 66.8251 152.006C65.6262 151.205 64.6802 150.05 63.9872 148.542C63.2941 147.033 62.9475 145.246 62.9475 143.179C62.9475 141.112 63.2941 139.324 63.9872 137.816C64.6802 136.307 65.6262 135.162 66.8251 134.38C68.0427 133.579 69.4289 133.179 70.9837 133.179C72.5197 133.179 73.8872 133.579 75.086 134.38C76.3036 135.162 77.259 136.307 77.9521 137.816C78.6452 139.324 78.9917 141.112 78.9917 143.179C78.9917 145.246 78.6452 147.033 77.9521 148.542C77.259 150.05 76.3036 151.205 75.086 152.006C73.8872 152.788 72.5197 153.179 70.9837 153.179ZM70.9837 150.693C72.5572 150.693 73.8122 150.05 74.7489 148.765C75.7042 147.48 76.1819 145.618 76.1819 143.179C76.1819 140.739 75.7042 138.877 74.7489 137.592C73.8122 136.307 72.5572 135.665 70.9837 135.665C69.3914 135.665 68.1176 136.307 67.1623 137.592C66.2257 138.877 65.7574 140.739 65.7574 143.179C65.7574 145.618 66.2257 147.48 67.1623 148.765C68.1176 150.05 69.3914 150.693 70.9837 150.693Z" fill="white"/>
<path d="M96.6353 150.525V152.955H82.5018V151.056L90.5098 143.374C91.4839 142.443 92.1395 141.642 92.4767 140.972C92.8139 140.283 92.9825 139.594 92.9825 138.905C92.9825 137.881 92.6172 137.089 91.8867 136.531C91.1748 135.953 90.1446 135.665 88.7958 135.665C86.6229 135.665 84.9463 136.372 83.7662 137.788L81.8555 136.14C82.6235 135.209 83.6257 134.482 84.862 133.961C86.1171 133.439 87.5127 133.179 89.0487 133.179C91.1093 133.179 92.7484 133.672 93.966 134.659C95.1836 135.627 95.7923 136.95 95.7923 138.626C95.7923 139.668 95.5676 140.655 95.118 141.587C94.6684 142.518 93.8161 143.579 92.561 144.771L86.548 150.525H96.6353Z" fill="white"/>
<path d="M111.917 40H63.1667C62.5684 40 62.0834 40.4851 62.0834 41.0833V55.4762H64.25V42.1667H110.833V101.75C110.844 102.32 110.404 102.797 109.836 102.833C109.742 102.833 109.649 102.826 109.556 102.823C109.364 102.818 109.173 102.814 108.984 102.794C108.968 102.794 108.953 102.794 108.936 102.788C105.398 102.401 102.603 99.6088 102.213 96.071C102.213 96.0559 102.208 96.0396 102.206 96.0245C102.179 95.767 102.166 95.5085 102.167 95.2499V93.0832C102.167 92.485 101.682 91.9999 101.083 91.9999H64.25V70.6428H62.0834V91.9999H53.4167C52.8184 91.9999 52.3334 92.485 52.3334 93.0832V95.2499C52.3393 100.632 56.7011 104.994 62.0834 105H109.858C111.616 104.954 113.013 103.508 113 101.75V41.0833C113 40.4851 112.515 40 111.917 40ZM62.0834 102.833C57.8972 102.828 54.5048 99.436 54.5 95.2499V94.1666H99.9999V95.2499C100.001 95.6071 100.022 95.9641 100.062 96.3191C100.071 96.4134 100.09 96.5044 100.103 96.5975C100.139 96.8597 100.182 97.1208 100.239 97.3775C100.259 97.4675 100.284 97.5563 100.307 97.6462C100.373 97.9073 100.447 98.164 100.534 98.4175C100.559 98.4901 100.585 98.5616 100.612 98.6342C100.711 98.9029 100.822 99.165 100.945 99.424C100.971 99.477 100.994 99.5323 101.02 99.581C101.156 99.8555 101.305 100.122 101.468 100.382C101.49 100.416 101.509 100.452 101.531 100.49C101.707 100.767 101.898 101.034 102.102 101.292L102.136 101.338C102.373 101.635 102.626 101.918 102.895 102.186C103.128 102.418 103.37 102.634 103.62 102.836L62.0834 102.833Z" fill="white"/>
<path d="M83.7499 68.4764C84.0373 68.4764 84.3127 68.3621 84.5158 68.159L88.8492 63.8256C89.2721 63.4026 89.2721 62.7168 88.8492 62.2938L84.5158 57.9605C84.3127 57.7574 84.0373 57.6431 83.7499 57.6431H53.4167C50.4252 57.6431 48 60.0682 48 63.0597C48 66.0512 50.4252 68.4764 53.4167 68.4764H83.7499ZM83.4704 59.9787L86.5514 63.0597L83.4704 66.1407L82.7002 63.0597L83.4704 59.9787ZM56.6666 59.8097H81.2799L80.7383 61.9764V64.1431L81.2799 66.3097H56.6666V59.8097ZM50.1667 63.0597C50.1667 61.2648 51.6217 59.8097 53.4167 59.8097H54.5V66.3097H53.4167C51.6217 66.3097 50.1667 64.8547 50.1667 63.0597Z" fill="white"/>
<path d="M72.9166 86.5833H105.417C106.015 86.5833 106.5 86.0982 106.5 85.5V53.0001C106.5 52.4018 106.015 51.9169 105.416 51.917C105.129 51.917 104.854 52.0311 104.651 52.2341L72.1507 84.7341C71.7277 85.1572 71.7278 85.8431 72.151 86.2662C72.3541 86.4691 72.6294 86.5833 72.9166 86.5833ZM104.333 55.6152V58.4167V60.5834V62.75V64.9167V67.0834V69.25V71.4167V73.5833V75.75V77.9167V80.0833V82.25V84.4166H99.9999H97.8332H95.6666H93.4999H91.3332H89.1666H86.9999H84.8333H82.6666H80.4999H78.3333H75.5318L104.333 55.6152Z" fill="white"/>
<path d="M88.6086 80.0832H98.9165C99.5148 80.0832 99.9999 79.5981 99.9999 78.9999V68.6919C99.9997 68.0937 99.5147 67.6088 98.9163 67.6089C98.629 67.6089 98.3537 67.723 98.1506 67.926L87.8427 78.2339C87.4197 78.6571 87.4198 79.343 87.843 79.766C88.0461 79.969 88.3214 80.0832 88.6086 80.0832ZM97.8332 71.3082V77.9165H91.2249L97.8332 71.3082Z" fill="white"/>
<path d="M97.8333 46.5H76.1666V48.6667H97.8333V46.5Z" fill="white"/>
<path d="M101.083 50.833H72.9166V52.9997H101.083V50.833Z" fill="white"/>
<path d="M72.9166 73.583H66.4166V75.7497H72.9166V73.583Z" fill="white"/>
<path d="M70.75 77.9165H66.4166V80.0832H70.75V77.9165Z" fill="white"/>
<defs>
<linearGradient id="paint0_linear" x1="160.425" y1="94.5" x2="4.57764e-05" y2="94.5" gradientUnits="userSpaceOnUse">
<stop stop-color="#6BA4D9"/>
<stop offset="1" stop-color="#0D5596"/>
</linearGradient>
</defs>
</svg>
