<svg width="161" height="189" viewBox="0 0 161 189" fill="none" xmlns="http://www.w3.org/2000/svg">
<path d="M155.931 44.351L85.4981 2.9755C82.3711 1.13859 78.4947 1.13858 75.3678 2.97549L4.93488 44.351C1.87762 46.147 1.52588e-05 49.4276 1.52588e-05 52.9733V135.344C1.52588e-05 138.866 1.85265 142.128 4.87729 143.932L75.3102 185.944C78.466 187.827 82.3999 187.827 85.5557 185.944L155.989 143.932C159.013 142.128 160.866 138.866 160.866 135.344V52.9734C160.866 49.4276 158.988 46.147 155.931 44.351Z" fill="url(#paint0_linear)"/>
<path d="M71.0057 153.179C69.4467 153.179 68.0567 152.788 66.8357 152.006C65.6336 151.205 64.685 150.05 63.99 148.542C63.295 147.033 62.9475 145.246 62.9475 143.179C62.9475 141.112 63.295 139.324 63.99 137.816C64.685 136.307 65.6336 135.162 66.8357 134.38C68.0567 133.579 69.4467 133.179 71.0057 133.179C72.546 133.179 73.9172 133.579 75.1194 134.38C76.3403 135.162 77.2983 136.307 77.9933 137.816C78.6883 139.324 79.0358 141.112 79.0358 143.179C79.0358 145.246 78.6883 147.033 77.9933 148.542C77.2983 150.05 76.3403 151.205 75.1194 152.006C73.9172 152.788 72.546 153.179 71.0057 153.179ZM71.0057 150.693C72.5836 150.693 73.8421 150.05 74.7813 148.765C75.7392 147.48 76.2182 145.618 76.2182 143.179C76.2182 140.739 75.7392 138.877 74.7813 137.592C73.8421 136.307 72.5836 135.665 71.0057 135.665C69.4091 135.665 68.1318 136.307 67.1738 137.592C66.2347 138.877 65.7651 140.739 65.7651 143.179C65.7651 145.618 66.2347 147.48 67.1738 148.765C68.1318 150.05 69.4091 150.693 71.0057 150.693Z" fill="white"/>
<path d="M91.457 141.084C92.753 141.084 93.9082 141.326 94.9226 141.81C95.9557 142.294 96.7634 142.992 97.3457 143.905C97.928 144.799 98.2191 145.832 98.2191 147.006C98.2191 148.235 97.9092 149.315 97.2893 150.246C96.6882 151.177 95.8524 151.903 94.7817 152.425C93.7298 152.927 92.5464 153.179 91.2316 153.179C88.5831 153.179 86.5356 152.331 85.0893 150.637C83.6617 148.942 82.9479 146.54 82.9479 143.43C82.9479 141.251 83.333 139.398 84.1031 137.871C84.8921 136.326 85.9815 135.162 87.3715 134.38C88.7803 133.579 90.4145 133.179 92.2741 133.179C93.232 133.179 94.1336 133.281 94.9789 133.486C95.8242 133.672 96.5568 133.952 97.1766 134.324L96.1059 136.503C95.1668 135.888 93.9082 135.581 92.3304 135.581C90.283 135.581 88.677 136.214 87.5124 137.48C86.3478 138.728 85.7655 140.553 85.7655 142.955C85.7655 143.253 85.7749 143.486 85.7937 143.654C86.3572 142.816 87.1273 142.182 88.1041 141.754C89.0996 141.307 90.2172 141.084 91.457 141.084ZM91.1189 150.916C92.4149 150.916 93.4668 150.572 94.2745 149.883C95.0822 149.194 95.4861 148.272 95.4861 147.117C95.4861 145.963 95.0728 145.05 94.2464 144.38C93.4387 143.691 92.3492 143.346 90.978 143.346C90.0951 143.346 89.3062 143.514 88.6112 143.849C87.935 144.184 87.3997 144.641 87.0052 145.218C86.6296 145.795 86.4417 146.438 86.4417 147.145C86.4417 147.834 86.6202 148.467 86.977 149.045C87.3527 149.603 87.8881 150.06 88.5831 150.413C89.2968 150.749 90.1421 150.916 91.1189 150.916Z" fill="white"/>
<path d="M75.1125 92.853C75.1068 94.8436 75.4962 96.8155 76.2579 98.6546C77.0196 100.494 78.1387 102.163 79.5502 103.567L80.8 104.817L82.0498 103.567C83.4613 102.163 84.5803 100.494 85.3421 98.6546C86.1038 96.8155 86.4931 94.8436 86.4875 92.853C86.4875 91.3446 85.8883 89.898 84.8217 88.8314C83.755 87.7647 82.3084 87.1655 80.8 87.1655C79.2916 87.1655 77.8449 87.7647 76.7783 88.8314C75.7117 89.898 75.1125 91.3446 75.1125 92.853ZM83.6437 92.853C83.652 95.7294 82.6449 98.5164 80.8 100.723C78.955 98.5164 77.948 95.7294 77.9562 92.853C77.9562 92.0988 78.2558 91.3755 78.7892 90.8422C79.3225 90.3089 80.0458 90.0093 80.8 90.0093C81.5542 90.0093 82.2775 90.3089 82.8108 90.8422C83.3441 91.3755 83.6437 92.0988 83.6437 92.853Z" fill="white"/>
<path d="M81.3601 40.3589L80.7999 40.1187L80.2397 40.3589C77.0284 41.7325 74.2914 44.0193 72.3687 46.9352C70.446 49.8511 69.4224 53.2676 69.4249 56.7603V62.0127C66.8964 63.0681 64.7369 64.8484 63.2186 67.1293C61.7004 69.4102 60.8914 72.0895 60.8937 74.8295V78.6344H62.3156V84.3219H70.8468V78.6344H75.1124V84.3219H86.4874V78.6344H90.753V84.3219H99.2843V78.6344H100.706V74.8295C100.708 72.0895 99.8994 69.4102 98.3812 67.1293C96.863 64.8484 94.7035 63.0681 92.1749 62.0127V56.7603C92.1775 53.2676 91.1538 49.8511 89.2311 46.9352C87.3084 44.0193 84.5714 41.7325 81.3601 40.3589ZM63.7374 74.8295C63.7353 72.8567 64.2618 70.9195 65.262 69.2191C66.2622 67.5187 67.6997 66.1174 69.4249 65.1607V75.7907H63.7374V74.8295ZM68.0031 81.4782H65.1593V78.6344H68.0031V81.4782ZM83.6437 81.4782H77.9562V78.6344H83.6437V81.4782ZM89.3312 75.7907H72.2687V56.7603C72.2671 53.9293 73.0676 51.1559 74.5775 48.7612C76.0874 46.3665 78.2449 44.4487 80.7999 43.2297C83.3554 44.4489 85.5132 46.3672 87.0231 48.7624C88.533 51.1577 89.3333 53.9317 89.3312 56.7631V75.7907ZM96.4405 81.4782H93.5968V78.6344H96.4405V81.4782ZM97.8624 74.8295V75.7907H92.1749V65.1636C93.8997 66.12 95.3369 67.5209 96.3371 69.2207C97.3373 70.9205 97.864 72.8572 97.8624 74.8295Z" fill="white"/>
<path d="M62.3156 91.4312C62.3218 93.6277 63.1939 95.7331 64.7427 97.2907L66.5812 99.1292L68.4197 97.2907C69.9685 95.7331 70.8406 93.6277 70.8468 91.4312C70.8468 90.2998 70.3974 89.2149 69.5974 88.4149C68.7975 87.6149 67.7125 87.1655 66.5812 87.1655C65.4499 87.1655 64.3649 87.6149 63.5649 88.4149C62.765 89.2149 62.3156 90.2998 62.3156 91.4312ZM68.0031 91.4312C67.9994 92.7878 67.4928 94.0949 66.5812 95.0996C65.6696 94.0949 65.163 92.7878 65.1593 91.4312C65.1593 91.054 65.3091 90.6924 65.5758 90.4257C65.8424 90.1591 66.2041 90.0093 66.5812 90.0093C66.9583 90.0093 67.3199 90.1591 67.5866 90.4257C67.8532 90.6924 68.0031 91.054 68.0031 91.4312Z" fill="white"/>
<path d="M90.7531 91.4312C90.7593 93.6277 91.6314 95.7331 93.1802 97.2907L95.0187 99.1292L96.8572 97.2907C98.406 95.7331 99.2781 93.6277 99.2843 91.4312C99.2843 90.2998 98.8349 89.2149 98.0349 88.4149C97.235 87.6149 96.15 87.1655 95.0187 87.1655C93.8874 87.1655 92.8024 87.6149 92.0024 88.4149C91.2025 89.2149 90.7531 90.2998 90.7531 91.4312ZM96.4406 91.4312C96.4369 92.7878 95.9303 94.0949 95.0187 95.0996C94.1071 94.0949 93.6005 92.7878 93.5968 91.4312C93.5968 91.054 93.7466 90.6924 94.0133 90.4257C94.2799 90.1591 94.6416 90.0093 95.0187 90.0093C95.3958 90.0093 95.7574 90.1591 96.0241 90.4257C96.2908 90.6924 96.4406 91.054 96.4406 91.4312Z" fill="white"/>
<path d="M80.7999 51.6187C79.6751 51.6187 78.5754 51.9522 77.6401 52.5772C76.7048 53.2021 75.9758 54.0904 75.5454 55.1296C75.1149 56.1689 75.0023 57.3125 75.2217 58.4157C75.4412 59.519 75.9829 60.5324 76.7783 61.3278C77.5737 62.1232 78.5871 62.6649 79.6904 62.8844C80.7936 63.1038 81.9372 62.9912 82.9765 62.5607C84.0157 62.1302 84.904 61.4013 85.5289 60.466C86.1539 59.5307 86.4874 58.431 86.4874 57.3062C86.4874 55.7977 85.8882 54.3511 84.8216 53.2845C83.755 52.2179 82.3084 51.6187 80.7999 51.6187ZM80.7999 60.1499C80.2375 60.1499 79.6877 59.9831 79.22 59.6706C78.7524 59.3582 78.3879 58.914 78.1727 58.3944C77.9574 57.8748 77.9011 57.303 78.0108 56.7514C78.1206 56.1997 78.3914 55.693 78.7891 55.2953C79.1868 54.8976 79.6935 54.6268 80.2451 54.517C80.7968 54.4073 81.3686 54.4636 81.8882 54.6789C82.4078 54.8941 82.852 55.2586 83.1644 55.7263C83.4769 56.1939 83.6437 56.7437 83.6437 57.3062C83.6437 58.0604 83.3441 58.7837 82.8108 59.317C82.2775 59.8503 81.5541 60.1499 80.7999 60.1499Z" fill="white"/>
<defs>
<linearGradient id="paint0_linear" x1="160.866" y1="94.5" x2="1.52588e-05" y2="94.5" gradientUnits="userSpaceOnUse">
<stop stop-color="#0A5191"/>
<stop offset="1" stop-color="#073865"/>
</linearGradient>
</defs>
</svg>
