<svg width="160" height="189" viewBox="0 0 160 189" fill="none" xmlns="http://www.w3.org/2000/svg">
<path d="M154.955 44.3468L85.022 3.00797C81.8833 1.15261 77.9835 1.15261 74.8447 3.00798L4.91141 44.3468C1.86745 46.1461 3.05176e-05 49.4193 3.05176e-05 52.9553V135.362C3.05176e-05 138.874 1.84245 142.129 4.85374 143.936L74.7871 185.911C77.9546 187.812 81.9122 187.812 85.0797 185.911L155.013 143.936C158.024 142.129 159.867 138.874 159.867 135.362V52.9553C159.867 49.4193 157.999 46.1461 154.955 44.3468Z" fill="url(#paint0_linear)"/>
<path d="M69.9565 153.179C68.4072 153.179 67.0258 152.788 65.8125 152.006C64.6178 151.205 63.6751 150.05 62.9844 148.542C62.2937 147.033 61.9484 145.246 61.9484 143.179C61.9484 141.112 62.2937 139.324 62.9844 137.816C63.6751 136.307 64.6178 135.162 65.8125 134.38C67.0258 133.579 68.4072 133.179 69.9565 133.179C71.4872 133.179 72.8499 133.579 74.0446 134.38C75.258 135.162 76.21 136.307 76.9007 137.816C77.5914 139.324 77.9367 141.112 77.9367 143.179C77.9367 145.246 77.5914 147.033 76.9007 148.542C76.21 150.05 75.258 151.205 74.0446 152.006C72.8499 152.788 71.4872 153.179 69.9565 153.179ZM69.9565 150.693C71.5246 150.693 72.7753 150.05 73.7086 148.765C74.6606 147.48 75.1367 145.618 75.1367 143.179C75.1367 140.739 74.6606 138.877 73.7086 137.592C72.7753 136.307 71.5246 135.665 69.9565 135.665C68.3698 135.665 67.1005 136.307 66.1485 137.592C65.2151 138.877 64.7484 140.739 64.7484 143.179C64.7484 145.618 65.2151 147.48 66.1485 148.765C67.1005 150.05 68.3698 150.693 69.9565 150.693Z" fill="white"/>
<path d="M98.877 148.151H95.1529V152.955H92.4368V148.151H81.5446V146.195L91.5688 133.402H94.5929L84.9886 145.749H92.5208V141.503H95.1529V145.749H98.877V148.151Z" fill="white"/>
<path d="M103.859 87.7344C100.86 87.7344 98.241 89.3726 96.8333 91.7969H90.6492C100.186 87.8116 106.906 78.3876 106.906 67.4219C106.906 52.8619 95.06 41.0156 80.5 41.0156C66.2803 41.0156 54.6493 52.3145 54.1131 66.4062H50.9098L58.1563 75.102L65.4028 66.4062H62.2462C62.7753 56.7964 70.7602 49.1406 80.5 49.1406C90.5801 49.1406 98.7813 57.3418 98.7813 67.4219C98.7813 77.502 90.5801 85.7031 80.5 85.7031H69.3282V97.8906H96.0015C96.9074 101.389 100.081 103.984 103.859 103.984C108.339 103.984 111.984 100.339 111.984 95.8594C111.984 91.3795 108.339 87.7344 103.859 87.7344ZM80.5 87.7344C91.7003 87.7344 100.813 78.6222 100.813 67.4219C100.813 56.2216 91.7003 47.1094 80.5 47.1094C69.2997 47.1094 60.1875 56.2216 60.1875 67.4219V68.4375H61.066L58.1563 71.9292L55.2465 68.4375H56.125V67.4219C56.125 53.9821 67.0603 43.0469 80.5 43.0469C93.9398 43.0469 104.875 53.9821 104.875 67.4219C104.875 80.8616 93.9398 91.7969 80.5 91.7969H71.3594V87.7344H80.5ZM71.3594 95.8594V93.8281H96.0015C95.8329 94.4791 95.7344 95.1566 95.7344 95.8594H71.3594ZM103.859 101.953C100.499 101.953 97.7657 99.2201 97.7657 95.8594C97.7657 92.4987 100.499 89.7656 103.859 89.7656C107.22 89.7656 109.953 92.4987 109.953 95.8594C109.953 99.2201 107.22 101.953 103.859 101.953Z" fill="white"/>
<path d="M107.204 92.1816L102.844 96.5417L101.531 95.2285L100.094 96.6646L102.844 99.4139L108.64 93.6177L107.204 92.1816Z" fill="white"/>
<path d="M64.25 77.5781H52.0625C50.3827 77.5781 49.0156 78.9452 49.0156 80.625V100.938C49.0156 102.617 50.3827 103.984 52.0625 103.984H64.25C65.9298 103.984 67.2969 102.617 67.2969 100.938V80.625C67.2969 78.9452 65.9298 77.5781 64.25 77.5781ZM65.2656 100.938C65.2656 101.498 64.8096 101.953 64.25 101.953H52.0625C51.5029 101.953 51.0469 101.498 51.0469 100.938V80.625C51.0469 80.0644 51.5029 79.6094 52.0625 79.6094H64.25C64.8096 79.6094 65.2656 80.0644 65.2656 80.625V100.938Z" fill="white"/>
<path d="M53.0781 81.6406H63.2344V83.6719H53.0781V81.6406Z" fill="white"/>
<path d="M53.0781 85.7031H63.2344V87.7344H53.0781V85.7031Z" fill="white"/>
<path d="M61.2031 97.8906H63.2344V99.9219H61.2031V97.8906Z" fill="white"/>
<path d="M57.1406 97.8906H59.1719V99.9219H57.1406V97.8906Z" fill="white"/>
<path d="M53.0781 97.8906H55.1094V99.9219H53.0781V97.8906Z" fill="white"/>
<defs>
<linearGradient id="paint0_linear" x1="159.867" y1="94.5" x2="3.05176e-05" y2="94.5" gradientUnits="userSpaceOnUse">
<stop stop-color="#3A80C0"/>
<stop offset="1" stop-color="#0B3D6A"/>
</linearGradient>
</defs>
</svg>
