<svg width="160" height="189" viewBox="0 0 160 189" fill="none" xmlns="http://www.w3.org/2000/svg">
<path d="M154.955 44.3468L85.022 3.00797C81.8833 1.15261 77.9835 1.15261 74.8447 3.00798L4.91141 44.3468C1.86745 46.1461 3.05176e-05 49.4193 3.05176e-05 52.9553V135.362C3.05176e-05 138.874 1.84245 142.129 4.85374 143.936L74.7871 185.911C77.9546 187.812 81.9122 187.812 85.0797 185.911L155.013 143.936C158.024 142.129 159.867 138.874 159.867 135.362V52.9553C159.867 49.4193 157.999 46.1461 154.955 44.3468Z" fill="url(#paint0_linear)"/>
<path d="M70.9557 153.179C69.4063 153.179 68.025 152.788 66.8116 152.006C65.6169 151.205 64.6742 150.05 63.9835 148.542C63.2928 147.033 62.9475 145.246 62.9475 143.179C62.9475 141.112 63.2928 139.324 63.9835 137.816C64.6742 136.307 65.6169 135.162 66.8116 134.38C68.025 133.579 69.4063 133.179 70.9557 133.179C72.4864 133.179 73.8491 133.579 75.0438 134.38C76.2571 135.162 77.2091 136.307 77.8998 137.816C78.5905 139.324 78.9358 141.112 78.9358 143.179C78.9358 145.246 78.5905 147.033 77.8998 148.542C77.2091 150.05 76.2571 151.205 75.0438 152.006C73.8491 152.788 72.4864 153.179 70.9557 153.179ZM70.9557 150.693C72.5237 150.693 73.7744 150.05 74.7078 148.765C75.6598 147.48 76.1358 145.618 76.1358 143.179C76.1358 140.739 75.6598 138.877 74.7078 137.592C73.7744 136.307 72.5237 135.665 70.9557 135.665C69.369 135.665 68.0996 136.307 67.1476 137.592C66.2142 138.877 65.7476 140.739 65.7476 143.179C65.7476 145.618 66.2142 147.48 67.1476 148.765C68.0996 150.05 69.369 150.693 70.9557 150.693Z" fill="white"/>
<path d="M90.0544 141.614C91.9771 141.801 93.4425 142.397 94.4505 143.402C95.4585 144.389 95.9625 145.655 95.9625 147.201C95.9625 148.318 95.6825 149.333 95.1225 150.246C94.5625 151.14 93.7225 151.857 92.6025 152.397C91.5011 152.918 90.1478 153.179 88.5424 153.179C87.1424 153.179 85.7983 152.974 84.5103 152.564C83.2223 152.136 82.1676 151.549 81.3462 150.804L82.6343 148.598C83.3063 149.231 84.165 149.743 85.2103 150.134C86.2557 150.506 87.3664 150.693 88.5424 150.693C89.9984 150.693 91.1278 150.385 91.9305 149.771C92.7518 149.156 93.1625 148.309 93.1625 147.229C93.1625 146.149 92.7611 145.311 91.9585 144.715C91.1558 144.119 89.9424 143.821 88.3184 143.821H86.7504V141.866L91.6785 135.832H82.2423V133.402H95.1785V135.302L90.0544 141.614Z" fill="white"/>
<g clip-path="url(#clip0)">
<path d="M91.4451 70.9857C91.5527 71.0248 91.6625 71.0434 91.7706 71.0434C92.1595 71.0434 92.5247 70.8032 92.6654 70.4167L96.5245 59.814C96.7044 59.3197 96.4496 58.7735 95.9555 58.5936C95.461 58.4141 94.9149 58.6685 94.7351 59.1626L90.876 69.7653C90.6962 70.2594 90.9509 70.8058 91.4451 70.9857ZM58.1156 69.5578L64.5943 73.2983C65.0981 73.5893 65.6602 73.7393 66.225 73.7516C66.2498 73.7535 66.2745 73.7554 66.2998 73.7554C66.3251 73.7554 66.3498 73.7535 66.3746 73.7516C66.9391 73.7393 67.5015 73.5892 68.0052 73.2983L74.4837 69.5579C74.9892 69.2663 75.291 68.7437 75.291 68.1599V59.2577C75.291 59.2195 75.2881 59.1817 75.2838 59.1446C75.2472 58.6075 74.9562 58.1325 74.4841 57.8598L68.0053 54.1193C66.9535 53.5121 65.6466 53.5121 64.5947 54.1193L58.1156 57.86C57.6435 58.1325 57.3525 58.6075 57.316 59.1447C57.3115 59.1817 57.3087 59.2191 57.3087 59.2573V68.1602C57.3086 68.7437 57.6104 69.2662 58.1156 69.5578ZM73.3866 67.9925L67.2519 71.5342V64.715C67.5121 64.6398 67.7655 64.5345 68.0052 64.3961L73.3867 61.2892L73.3866 67.9925ZM65.5465 55.7685C66.0111 55.5005 66.5882 55.5005 67.0529 55.7685L73.0965 59.2577L67.0529 62.7469C66.5884 63.0151 66.0111 63.0151 65.5466 62.7469L59.5029 59.2577L65.5465 55.7685ZM59.2129 61.2892L64.5943 64.3961C64.8341 64.5346 65.0874 64.6399 65.3476 64.7152V71.5343L59.2129 67.9925V61.2892ZM103.522 43.4546H102.161C101.635 43.4546 101.209 43.8808 101.209 44.4067C101.209 44.9327 101.635 45.3589 102.161 45.3589H103.522C107.147 45.3589 110.096 48.3078 110.096 51.9321V77.5809H106.853V52.8812C106.853 50.5216 104.933 48.6018 102.573 48.6018H56.4267C54.067 48.6018 52.1472 50.5216 52.1472 52.8812V77.5809H48.9043V51.9321C48.9043 48.3076 51.8532 45.3589 55.4777 45.3589H97.6741C98.1999 45.3589 98.6263 44.9327 98.6263 44.4067C98.6263 43.8808 98.1999 43.4546 97.6741 43.4546H55.4777C50.803 43.4546 47 47.2576 47 51.9321V80.6388C47 84.7606 49.9418 88.2716 53.995 88.9871C54.051 88.997 54.1066 89.0017 54.1617 89.0017C54.6149 89.0017 55.0167 88.6767 55.0982 88.215C55.1896 87.6971 54.8439 87.2031 54.3261 87.1117C51.1845 86.5573 48.9043 83.8349 48.9043 80.6388V79.485H53.0969L53.0993 79.4852L53.1017 79.485H105.898L105.9 79.4852L105.903 79.485H110.096V80.6388C110.096 84.2633 107.147 87.212 103.522 87.212H58.6309C58.1051 87.212 57.6788 87.6382 57.6788 88.1642C57.6788 88.6901 58.1051 89.1163 58.6309 89.1163H70.0199L69.512 94.6309H69.0976C67.3044 94.6309 65.6982 95.8324 65.1916 97.5529L64.9716 98.3005C64.7441 99.0731 64.8905 99.886 65.3729 100.531C65.8553 101.176 66.5939 101.546 67.3993 101.546H91.6005C92.4059 101.546 93.1447 101.176 93.627 100.531C94.1094 99.886 94.2556 99.073 94.0281 98.3006L93.8081 97.5527C93.3017 95.8324 91.6956 94.6309 89.9023 94.6309H89.4879L88.98 89.1163H103.522C108.197 89.1163 112 85.3133 112 80.6388V51.9321C112 47.2576 108.197 43.4546 103.522 43.4546ZM78.5479 77.5809H54.0515V52.8812C54.0515 51.5716 55.117 50.5061 56.4267 50.5061H78.5479V77.5809ZM104.949 77.5809H80.4521V50.5061H102.573C103.883 50.5061 104.949 51.5716 104.949 52.8812V77.5809ZM71.9322 89.1165H87.0678L87.5757 94.631H71.4243L71.9322 89.1165ZM89.9024 96.5353C90.857 96.5353 91.7119 97.1749 91.9814 98.0905L92.2014 98.8384C92.2785 99.1 92.1723 99.2964 92.1021 99.3904C91.9828 99.5501 91.7999 99.6416 91.6005 99.6416H67.3995C67.1265 99.6416 66.9681 99.4843 66.8979 99.3904C66.8277 99.2967 66.7215 99.1002 66.7986 98.8383L67.0186 98.0906C67.2882 97.1749 68.1432 96.5353 69.0977 96.5353H89.9024ZM81.3266 83.3487C81.3266 82.3398 80.5088 81.5221 79.5 81.5221C78.4912 81.5221 77.6734 82.34 77.6734 83.3487C77.6734 84.3575 78.4912 85.1753 79.5 85.1753C80.5088 85.1753 81.3266 84.3575 81.3266 83.3487ZM98.0353 60.6808C97.6634 60.3091 97.0605 60.3091 96.6888 60.6808C96.317 61.0528 96.317 61.6555 96.6888 62.0274L99.4511 64.7896L96.6888 67.5519C96.317 67.9239 96.317 68.5266 96.6888 68.8985C96.8747 69.0843 97.1184 69.1773 97.362 69.1773C97.6057 69.1773 97.8494 69.0843 98.0353 68.8985L101.471 65.4629C101.843 65.0909 101.843 64.4881 101.471 64.1163L98.0353 60.6808ZM90.0386 69.1773C90.2822 69.1773 90.526 69.0843 90.7119 68.8985C91.0837 68.5265 91.0837 67.9237 90.7119 67.5519L87.9496 64.7896L90.7119 62.0274C91.0837 61.6554 91.0837 61.0526 90.7119 60.6808C90.34 60.3091 89.7371 60.3091 89.3654 60.6808L85.9298 64.1164C85.5579 64.4884 85.5579 65.0912 85.9298 65.463L89.3654 68.8986C89.5513 69.0843 89.7949 69.1773 90.0386 69.1773Z" fill="white"/>
</g>
<defs>
<linearGradient id="paint0_linear" x1="159.867" y1="94.5" x2="3.05176e-05" y2="94.5" gradientUnits="userSpaceOnUse">
<stop stop-color="#3A81C1"/>
<stop offset="1" stop-color="#0A3B68"/>
</linearGradient>
<clipPath id="clip0">
<rect width="65" height="65" fill="white" transform="translate(47 40)"/>
</clipPath>
</defs>
</svg>
