<svg width="161" height="189" viewBox="0 0 161 189" fill="none" xmlns="http://www.w3.org/2000/svg">
<path d="M155.931 44.351L85.4981 2.9755C82.3711 1.13859 78.4947 1.13858 75.3678 2.97549L4.93488 44.351C1.87762 46.147 1.52588e-05 49.4276 1.52588e-05 52.9733V135.344C1.52588e-05 138.866 1.85265 142.128 4.87729 143.932L75.3102 185.944C78.466 187.827 82.3999 187.827 85.5557 185.944L155.989 143.932C159.013 142.128 160.866 138.866 160.866 135.344V52.9734C160.866 49.4276 158.988 46.147 155.931 44.351Z" fill="url(#paint0_linear)"/>
<path d="M72.0049 153.179C70.4458 153.179 69.0558 152.788 67.8349 152.006C66.6327 151.205 65.6841 150.05 64.9892 148.542C64.2942 147.033 63.9467 145.246 63.9467 143.179C63.9467 141.112 64.2942 139.324 64.9892 137.816C65.6841 136.307 66.6327 135.162 67.8349 134.38C69.0558 133.579 70.4458 133.179 72.0049 133.179C73.5451 133.179 74.9164 133.579 76.1185 134.38C77.3395 135.162 78.2974 136.307 78.9924 137.816C79.6874 139.324 80.0349 141.112 80.0349 143.179C80.0349 145.246 79.6874 147.033 78.9924 148.542C78.2974 150.05 77.3395 151.205 76.1185 152.006C74.9164 152.788 73.5451 153.179 72.0049 153.179ZM72.0049 150.693C73.5827 150.693 74.8412 150.05 75.7804 148.765C76.7384 147.48 77.2174 145.618 77.2174 143.179C77.2174 140.739 76.7384 138.877 75.7804 137.592C74.8412 136.307 73.5827 135.665 72.0049 135.665C70.4083 135.665 69.131 136.307 68.173 137.592C67.2338 138.877 66.7642 140.739 66.7642 143.179C66.7642 145.618 67.2338 147.48 68.173 148.765C69.131 150.05 70.4083 150.693 72.0049 150.693Z" fill="white"/>
<path d="M89.5822 141.195C92.3998 141.195 94.466 141.726 95.7808 142.788C97.1145 143.83 97.7813 145.264 97.7813 147.089C97.7813 148.244 97.4996 149.287 96.936 150.218C96.3913 151.13 95.5554 151.857 94.4284 152.397C93.3202 152.918 91.949 153.179 90.3148 153.179C88.9248 153.179 87.5817 152.974 86.2857 152.564C84.9896 152.136 83.9189 151.549 83.0736 150.804L84.3697 148.598C85.0459 149.231 85.91 149.743 86.9619 150.134C88.0138 150.506 89.122 150.693 90.2866 150.693C91.7705 150.693 92.9163 150.385 93.724 149.771C94.5505 149.138 94.9637 148.281 94.9637 147.201C94.9637 146.028 94.5129 145.143 93.6113 144.547C92.7097 143.933 91.1694 143.626 88.9905 143.626H84.5106L85.5531 133.402H96.6825V135.832H87.9198L87.3845 141.195H89.5822Z" fill="white"/>
<path d="M109.191 85.1953H105.129V51.8318H105.547C106.009 51.8318 106.434 51.581 106.658 51.1772C106.881 50.7734 106.868 50.2799 106.623 49.8885L102.396 43.1388C102.164 42.7682 101.758 42.5431 101.32 42.5431C100.883 42.5431 100.477 42.7682 100.245 43.1388L96.0177 49.8885C95.7726 50.2799 95.7594 50.7734 95.9831 51.1772C96.2068 51.581 96.6321 51.8318 97.0938 51.8318H97.5117V76.4355C97.5117 77.1366 98.0801 77.7051 98.7812 77.7051C99.4824 77.7051 100.051 77.1366 100.051 76.4355V50.5622C100.051 50.0513 99.7488 49.6106 99.3134 49.4093L101.32 46.2046L103.327 49.4093C102.892 49.6106 102.59 50.0513 102.59 50.5622V85.1953H93.4492C91.3492 85.1953 89.6406 86.9038 89.6406 89.0039V89.4762C89.2433 89.3353 88.8162 89.2578 88.3711 89.2578H82.6662V75.2732C82.6662 71.7731 79.8186 68.9255 76.3185 68.9255H74.8175V67.3786C75.3514 67.6179 75.9423 67.7522 76.5642 67.7522H83.1507C85.2242 67.7522 86.9111 66.0654 86.9111 63.9919C86.9111 61.9183 85.2242 60.2314 83.1507 60.2314H79.8864V58.8029C79.8864 54.9631 77.2891 51.7204 73.7597 50.734C74.5643 49.7251 75.047 48.4486 75.047 47.0608V45.9026C75.0471 42.6477 72.3992 40 69.1447 40C65.8901 40 63.2422 42.6477 63.2422 45.9024V47.0606C63.2422 48.4238 63.708 49.6795 64.4871 50.6799C60.8578 51.5989 58.1641 54.8919 58.1641 58.8029V65.3815C58.1641 68.4447 60.349 71.007 63.2422 71.5925V78.7842C63.2422 79.4852 63.8106 80.0537 64.5118 80.0537C65.2129 80.0537 65.7813 79.4852 65.7813 78.7842V71.4646H73.5479H76.3185C78.4186 71.4646 80.1271 73.1731 80.1271 75.2732V89.2578H77.0803V76.8059C77.0803 76.1048 76.5119 75.5363 75.8107 75.5363H70.0898C69.3887 75.5363 68.8203 76.1048 68.8203 76.8059V93.0664V95.3516H67.5508H65.7813V89.1309C65.7813 88.4298 65.2129 87.8613 64.5118 87.8613C63.8106 87.8613 63.2422 88.4298 63.2422 89.1309V95.3516H51.8086C49.7085 95.3516 48 97.0601 48 99.1602V103.73C48 104.432 48.5684 105 49.2695 105H111.73C112.432 105 113 104.432 113 103.73V89.0039C113 86.9038 111.291 85.1953 109.191 85.1953ZM65.7813 45.9024C65.7813 44.0479 67.2901 42.5391 69.1447 42.5391C70.9992 42.5391 72.508 44.0479 72.508 45.9024V47.0606C72.508 48.915 70.9992 50.4239 69.1447 50.4239C67.2901 50.4239 65.7813 48.915 65.7813 47.0606V45.9024ZM73.5479 58.8225C72.8468 58.8225 72.2784 59.3909 72.2784 60.092V68.9255H65.7813V60.092C65.7813 59.3908 65.2129 58.8225 64.5118 58.8225C63.8106 58.8225 63.2422 59.3909 63.2422 60.092V68.9641C61.7651 68.4435 60.7032 67.0345 60.7032 65.3815V58.8029C60.7032 55.5829 63.323 52.9631 66.543 52.9631H71.5075C74.7277 52.9631 77.3474 55.5829 77.3474 58.8029V61.5009C77.3474 62.2019 77.9157 62.7704 78.6169 62.7704H83.1507C83.8241 62.7704 84.3721 63.3184 84.3721 63.9919C84.3721 64.6653 83.8241 65.2131 83.1507 65.2131H76.5642C75.6011 65.2131 74.8175 64.4296 74.8175 63.4665V60.092C74.8175 59.3909 74.2491 58.8225 73.5479 58.8225ZM68.8203 102.461H50.5391V99.1602C50.5391 98.4601 51.1086 97.8906 51.8086 97.8906H67.5508C68.2508 97.8906 68.8203 98.4601 68.8203 99.1602V102.461ZM71.3594 78.0754H74.5412V89.2578H72.6289C72.1838 89.2578 71.7567 89.3353 71.3594 89.4762V78.0754ZM89.6406 102.461H71.3594V93.0664C71.3594 92.3664 71.9289 91.7969 72.6289 91.7969H88.3711C89.0711 91.7969 89.6406 92.3664 89.6406 93.0664V102.461ZM110.461 102.461H92.1797V93.0664V89.0039C92.1797 88.3039 92.7492 87.7344 93.4492 87.7344H109.191C109.891 87.7344 110.461 88.3039 110.461 89.0039V102.461Z" fill="white"/>
<path d="M65.409 82.8236C65.1729 82.5876 64.8454 82.4517 64.5115 82.4517C64.1776 82.4517 63.8513 82.5875 63.6139 82.8236C63.3778 83.0598 63.2419 83.3873 63.2419 83.7212C63.2419 84.0551 63.3778 84.3826 63.6139 84.6187C63.85 84.8548 64.1776 84.9907 64.5115 84.9907C64.8454 84.9907 65.1729 84.8549 65.409 84.6187C65.6452 84.3826 65.781 84.0551 65.781 83.7212C65.781 83.3873 65.6452 83.0598 65.409 82.8236Z" fill="white"/>
<path d="M99.6788 80.3622C99.4427 80.1261 99.1151 79.9902 98.7812 79.9902C98.4474 79.9902 98.1198 80.1259 97.8837 80.3622C97.6476 80.5983 97.5117 80.9259 97.5117 81.2598C97.5117 81.5937 97.6476 81.9212 97.8837 82.1572C98.1198 82.3933 98.4474 82.5293 98.7812 82.5293C99.1151 82.5293 99.4427 82.3935 99.6788 82.1572C99.9149 81.9212 100.051 81.5937 100.051 81.2598C100.051 80.9259 99.9149 80.5983 99.6788 80.3622Z" fill="white"/>
<defs>
<linearGradient id="paint0_linear" x1="160.866" y1="94.5" x2="1.52588e-05" y2="94.5" gradientUnits="userSpaceOnUse">
<stop stop-color="#0A5190"/>
<stop offset="1" stop-color="#073866"/>
</linearGradient>
</defs>
</svg>
