<svg width="161" height="189" viewBox="0 0 161 189" fill="none" xmlns="http://www.w3.org/2000/svg">
<path d="M155.931 44.351L85.4981 2.9755C82.3711 1.13859 78.4947 1.13858 75.3678 2.97549L4.93488 44.351C1.87762 46.147 1.52588e-05 49.4276 1.52588e-05 52.9733V135.344C1.52588e-05 138.866 1.85265 142.128 4.87729 143.932L75.3102 185.944C78.466 187.827 82.3999 187.827 85.5557 185.944L155.989 143.932C159.013 142.128 160.866 138.866 160.866 135.344V52.9734C160.866 49.4276 158.988 46.147 155.931 44.351Z" fill="url(#paint0_linear)"/>
<path d="M75.0024 153.179C73.4434 153.179 72.0534 152.788 70.8324 152.006C69.6303 151.205 68.6817 150.05 67.9867 148.542C67.2917 147.033 66.9442 145.246 66.9442 143.179C66.9442 141.112 67.2917 139.324 67.9867 137.816C68.6817 136.307 69.6303 135.162 70.8324 134.38C72.0534 133.579 73.4434 133.179 75.0024 133.179C76.5427 133.179 77.9139 133.579 79.1161 134.38C80.337 135.162 81.295 136.307 81.99 137.816C82.685 139.324 83.0325 141.112 83.0325 143.179C83.0325 145.246 82.685 147.033 81.99 148.542C81.295 150.05 80.337 151.205 79.1161 152.006C77.9139 152.788 76.5427 153.179 75.0024 153.179ZM75.0024 150.693C76.5803 150.693 77.8388 150.05 78.778 148.765C79.7359 147.48 80.2149 145.618 80.2149 143.179C80.2149 140.739 79.7359 138.877 78.778 137.592C77.8388 136.307 76.5803 135.665 75.0024 135.665C73.4058 135.665 72.1285 136.307 71.1706 137.592C70.2314 138.877 69.7618 140.739 69.7618 143.179C69.7618 145.618 70.2314 147.48 71.1706 148.765C72.1285 150.05 73.4058 150.693 75.0024 150.693Z" fill="white"/>
<path d="M92.9762 133.402V152.955H90.1868V135.832H85.7351V133.402H92.9762Z" fill="white"/>
<g clip-path="url(#clip0)">
<path d="M105.634 47.3053C96.3521 38.015 81.4596 37.5274 71.5905 46.1906C61.7214 54.8538 60.2621 69.6951 68.2549 80.1174L66.3415 82.0323C65.5983 81.8313 64.8042 82.0417 64.2579 82.5846L50.4687 96.3851C49.9261 96.9318 49.7158 97.7266 49.9169 98.4705L48.9364 99.4518C48.3275 100.061 47.9854 100.888 47.9854 101.749C47.9854 102.611 48.3275 103.438 48.9364 104.047L49.7015 103.281L48.9391 104.05C49.5478 104.659 50.3736 105.002 51.2346 105.002C52.0957 105.002 52.9215 104.659 53.5302 104.05L54.5109 103.068C55.2542 103.281 56.0542 103.069 56.5947 102.516L70.3832 88.7156C70.926 88.1689 71.1363 87.3741 70.9351 86.6303L72.8486 84.7152C83.2619 92.7149 98.091 91.2549 106.747 81.3777C115.404 71.5005 114.917 56.5955 105.634 47.3053ZM51.9994 102.518C51.5716 102.928 50.8977 102.928 50.4697 102.518L50.4665 102.515V102.515C50.2635 102.312 50.1495 102.036 50.1495 101.749C50.1495 101.462 50.2635 101.187 50.4665 100.984L51.2349 100.215L52.7683 101.749L51.9994 102.518ZM55.0646 100.984L53.5318 99.4505L52.0001 97.9172L51.9989 97.9166L62.724 87.1826L65.7895 90.2504L55.0646 100.984ZM67.3197 88.7189L64.2542 85.6511L65.7879 84.1162L65.7882 84.1168L67.3205 85.6501L68.853 87.1841L67.3197 88.7189ZM69.6177 84.8859L68.8507 84.1186L68.084 83.3511L69.6564 81.7775C69.9015 82.045 70.1256 82.3248 70.3844 82.584C70.6432 82.8431 70.9227 83.0673 71.1899 83.3125L69.6177 84.8859ZM96.7063 85.9881C88.2055 89.5122 78.4208 87.5642 71.9146 81.0525C63.0452 72.155 63.0452 57.7512 71.9146 48.8537C78.4208 42.3421 88.2055 40.3942 96.7063 43.9181C105.207 47.4422 110.75 55.7443 110.75 64.9531C110.75 74.1619 105.207 82.464 96.7063 85.9881Z" fill="white"/>
<path d="M96.6816 61.6779C95.4868 61.6791 94.5186 62.6482 94.5174 63.844V69.2592H92.3531V59.5119C92.3519 58.3161 91.3836 57.3471 90.1888 57.3459H86.9424C85.7476 57.347 84.7794 58.3161 84.7782 59.5119V69.2592H82.6139V55.1798C82.6127 53.984 81.6444 53.0149 80.4496 53.0137H77.2032C76.0084 53.0148 75.0402 53.984 75.0389 55.1798V70.3422C75.0389 70.9403 75.5234 71.4251 76.121 71.4251H101.01C101.607 71.4251 102.092 70.9403 102.092 70.3422V63.844C102.091 62.6482 101.122 61.6792 99.9276 61.6779H96.6816ZM80.4498 69.2592H77.2035L77.202 55.1799H80.4498V69.2592ZM90.1889 69.2592H86.9426L86.941 59.5119H90.1889V69.2592ZM99.928 69.2592H96.6816L96.6801 63.844H99.928V69.2592Z" fill="white"/>
<path d="M98.8458 73.5908H97.7637C97.1661 73.5908 96.6816 74.0758 96.6816 74.6738C96.6816 75.272 97.1661 75.7568 97.7637 75.7568H98.8458C99.4435 75.7568 99.9279 75.2718 99.9279 74.6738C99.9279 74.0758 99.4435 73.5908 98.8458 73.5908Z" fill="white"/>
<path d="M89.1068 73.5908H88.0247C87.427 73.5908 86.9426 74.0758 86.9426 74.6738C86.9426 75.272 87.427 75.7568 88.0247 75.7568H89.1068C89.7045 75.7568 90.1889 75.2718 90.1889 74.6738C90.1889 74.0758 89.7045 73.5908 89.1068 73.5908Z" fill="white"/>
<path d="M79.3678 73.5908H78.2857C77.688 73.5908 77.2036 74.0758 77.2036 74.6738C77.2036 75.272 77.688 75.7568 78.2857 75.7568H79.3678C79.9654 75.7568 80.4498 75.2718 80.4498 74.6738C80.4498 74.0758 79.9654 73.5908 79.3678 73.5908Z" fill="white"/>
</g>
<defs>
<linearGradient id="paint0_linear" x1="160.866" y1="94.5" x2="1.52588e-05" y2="94.5" gradientUnits="userSpaceOnUse">
<stop stop-color="#6AA4D9"/>
<stop offset="1" stop-color="#0B4E8C"/>
</linearGradient>
<clipPath id="clip0">
<rect width="64.9458" height="65" fill="white" transform="translate(47.96 40)"/>
</clipPath>
</defs>
</svg>
