<svg height="512pt" viewBox="0 0 512 512" width="512pt" xmlns="http://www.w3.org/2000/svg"><path d="m187.734375 401.066406c0 4.714844 3.820313 8.535156 8.53125 8.535156h136.535156c4.710938 0 8.53125-3.820312 8.53125-8.535156 0-4.710937-3.820312-8.53125-8.53125-8.53125h-136.535156c-4.710937 0-8.53125 3.820313-8.53125 8.53125zm0 0"/><path d="m187.734375 435.199219c0 4.714843 3.820313 8.535156 8.53125 8.535156h221.867187c4.714844 0 8.535157-3.820313 8.535157-8.535156 0-4.710938-3.820313-8.53125-8.535157-8.53125h-221.867187c-4.710937 0-8.53125 3.820312-8.53125 8.53125zm0 0"/><path d="m273.066406 460.800781h-76.800781c-4.710937 0-8.53125 3.820313-8.53125 8.53125 0 4.714844 3.820313 8.535157 8.53125 8.535157h76.800781c4.714844 0 8.535156-3.820313 8.535156-8.535157 0-4.710937-3.820312-8.53125-8.535156-8.53125zm0 0"/><path d="m503.464844 254.78125c-4.710938 0-8.53125 3.824219-8.53125 8.535156v17.066406c0 4.714844 3.820312 8.535157 8.53125 8.535157 4.714844 0 8.535156-3.820313 8.535156-8.535157v-17.066406c0-4.710937-3.820312-8.535156-8.535156-8.535156zm0 0"/><path d="m443.734375 221.867188h-17.066406c-4.714844 0-8.535157 3.820312-8.535157 8.53125 0 4.714843 3.820313 8.535156 8.535157 8.535156h17.066406c4.710937 0 8.53125-3.820313 8.53125-8.535156 0-4.710938-3.820313-8.53125-8.53125-8.53125zm0 0"/><path d="m469.332031 230.398438c0 4.714843 3.820313 8.535156 8.535157 8.535156h8.53125c1.433593-.003906 2.84375.355468 4.097656 1.042968 4.125 2.164063 9.230468.621094 11.460937-3.472656s.761719-9.21875-3.292969-11.511718c-3.765624-2.046876-7.980468-3.121094-12.265624-3.125h-8.53125c-4.714844 0-8.535157 3.820312-8.535157 8.53125zm0 0"/><path d="m503.464844 408.382812c-4.710938 0-8.53125 3.820313-8.53125 8.535157v1.214843c.015625 2.691407-1.253906 5.226563-3.414063 6.828126-3.773437 2.824218-4.542969 8.175781-1.714843 11.949218 2.824218 3.773438 8.175781 4.542969 11.949218 1.71875 6.4375-4.851562 10.230469-12.4375 10.246094-20.496094v-1.214843c0-4.714844-3.820312-8.535157-8.535156-8.535157zm0 0"/><path d="m503.464844 305.984375c-4.710938 0-8.53125 3.820313-8.53125 8.53125v17.066406c0 4.714844 3.820312 8.535157 8.53125 8.535157 4.714844 0 8.535156-3.820313 8.535156-8.535157v-17.066406c0-4.710937-3.820312-8.53125-8.535156-8.53125zm0 0"/><path d="m503.464844 357.183594c-4.710938 0-8.53125 3.820312-8.53125 8.53125v17.066406c0 4.714844 3.820312 8.535156 8.53125 8.535156 4.714844 0 8.535156-3.820312 8.535156-8.535156v-17.066406c0-4.710938-3.820312-8.53125-8.535156-8.53125zm0 0"/><path d="m443.734375 93.867188c-21.902344 0-40.246094 16.585937-42.449219 38.378906-2.199218 21.789062 12.457032 41.710937 33.914063 46.089844v17.929687c0 4.714844 3.820312 8.535156 8.535156 8.535156 4.710937 0 8.53125-3.820312 8.53125-8.535156v-17.929687c21.460937-4.378907 36.117187-24.300782 33.914063-46.089844-2.199219-21.792969-20.542969-38.378906-42.445313-38.378906zm0 68.265624c-14.140625 0-25.601563-11.460937-25.601563-25.597656 0-14.140625 11.460938-25.601562 25.601563-25.601562 14.136719 0 25.597656 11.460937 25.597656 25.601562-.015625 14.128906-11.464843 25.582032-25.597656 25.597656zm0 0"/><path d="m51.199219 42.667969c0 4.710937-3.820313 8.53125-8.53125 8.53125-4.714844 0-8.535157-3.820313-8.535157-8.53125 0-4.714844 3.820313-8.535157 8.535157-8.535157 4.710937 0 8.53125 3.820313 8.53125 8.535157zm0 0"/><path d="m85.332031 42.667969c0 4.710937-3.820312 8.53125-8.53125 8.53125-4.714843 0-8.535156-3.820313-8.535156-8.53125 0-4.714844 3.820313-8.535157 8.535156-8.535157 4.710938 0 8.53125 3.820313 8.53125 8.535157zm0 0"/><path d="m119.464844 42.667969c0 4.710937-3.820313 8.53125-8.53125 8.53125-4.714844 0-8.535156-3.820313-8.535156-8.53125 0-4.714844 3.820312-8.535157 8.535156-8.535157 4.710937 0 8.53125 3.820313 8.53125 8.535157zm0 0"/><path d="m25.601562 443.734375h128v51.199219c.011719 9.421875 7.644532 17.054687 17.066407 17.066406h273.066406c9.417969-.011719 17.054687-7.644531 17.066406-17.066406v-51.199219h2.433594c4.710937 0 8.53125-3.820313 8.53125-8.535156 0-4.710938-3.820313-8.53125-8.53125-8.53125h-2.433594v-51.203125c-.011719-9.417969-7.648437-17.050782-17.066406-17.066406h-128v-47.957032l63.558594-71.507812h13.242187c4.710938 0 8.53125-3.820313 8.53125-8.535156 0-4.710938-3.820312-8.53125-8.53125-8.53125h-13.242187l-63.558594-71.503907v-124.761719c-.015625-14.132812-11.46875-25.585937-25.601563-25.601562h-264.53125c-14.132812.015625-25.585937 11.46875-25.601562 25.601562v392.53125c.015625 14.132813 11.46875 25.585938 25.601562 25.601563zm418.140626-8.574219-.007813.039063.007813.042969.007812 59.691406h-273.082031v-119.46875h273.066406zm-273.074219-76.761718c-9.421875.015624-17.054688 7.648437-17.066407 17.066406v51.203125h-128c-4.714843-.003907-8.53125-3.824219-8.535156-8.535157v-332.800781h281.601563v65.023438l-60.097657 67.613281-16.703124-16.703125v-64.730469c-.011719-9.421875-7.648438-17.054687-17.066407-17.070312h-17.066406c-9.421875.015625-17.054687 7.648437-17.066406 17.070312v59.730469h-17.066407v-25.597656c-.015624-9.421875-7.648437-17.054688-17.066406-17.066407h-17.070312c-9.417969.011719-17.050782 7.644532-17.066406 17.066407v25.597656h-17.066407v-76.800781c-.011719-9.417969-7.644531-17.050782-17.066406-17.066406h-17.066406c-9.417969.015624-17.054688 7.648437-17.066407 17.066406v85.335937c0 4.710938 3.820313 8.53125 8.535157 8.53125h167.132812l22.957031 22.957031 65.910157 74.152344v47.957032zm34.132812-162.132813h-17.066406v-59.730469h17.066406zm-68.265625 0h-17.070312v-25.597656h17.070312zm-68.269531 0h-17.066406v-76.800781h17.066406zm238.933594 98.09375-56.847657-63.960937 56.847657-63.957032 56.851562 63.957032zm-290.132813-268.757813c.003906-4.714843 3.820313-8.53125 8.535156-8.535156h264.53125c4.710938.003906 8.53125 3.820313 8.535157 8.535156v42.664063h-281.601563zm0 0"/><path d="m128 392.535156h-85.332031c-4.714844 0-8.535157 3.820313-8.535157 8.53125 0 4.714844 3.820313 8.535156 8.535157 8.535156h85.332031c4.710938 0 8.535156-3.820312 8.535156-8.535156 0-4.710937-3.824218-8.53125-8.535156-8.53125zm0 0"/><path d="m42.667969 375.464844h42.664062c4.714844 0 8.535157-3.820313 8.535157-8.53125 0-4.714844-3.820313-8.535156-8.535157-8.535156h-42.664062c-4.714844 0-8.535157 3.820312-8.535157 8.535156 0 4.710937 3.820313 8.53125 8.535157 8.53125zm0 0"/><path d="m170.667969 324.265625h-128c-4.714844 0-8.535157 3.820313-8.535157 8.535156 0 4.710938 3.820313 8.53125 8.535157 8.53125h128c4.710937 0 8.53125-3.820312 8.53125-8.53125 0-4.714843-3.820313-8.535156-8.53125-8.535156zm0 0"/><path d="m204.800781 290.132812h-162.132812c-4.714844 0-8.535157 3.820313-8.535157 8.535157 0 4.710937 3.820313 8.53125 8.535157 8.53125h162.132812c4.710938 0 8.53125-3.820313 8.53125-8.53125 0-4.714844-3.820312-8.535157-8.53125-8.535157zm0 0"/><path d="m221.867188 256h-179.199219c-4.714844 0-8.535157 3.820312-8.535157 8.535156 0 4.710938 3.820313 8.53125 8.535157 8.53125h179.199219c4.710937 0 8.53125-3.820312 8.53125-8.53125 0-4.714844-3.820313-8.535156-8.53125-8.535156zm0 0"/></svg>