<svg id="Layer_1" enable-background="new 0 0 512 512" height="512" viewBox="0 0 512 512" width="512" xmlns="http://www.w3.org/2000/svg"><path d="m93 328.667c4.418 0 8-3.582 8-8v-1.167c0-4.418-3.582-8-8-8s-8 3.582-8 8v1.167c0 4.418 3.582 8 8 8z"/><path d="m141 143h-9c-4.418 0-8 3.582-8 8s3.582 8 8 8h9c4.418 0 8-3.582 8-8s-3.582-8-8-8z"/><path d="m181 143h-9c-4.418 0-8 3.582-8 8s3.582 8 8 8h9c4.418 0 8-3.582 8-8s-3.582-8-8-8z"/><path d="m221 143h-9c-4.418 0-8 3.582-8 8s3.582 8 8 8h9c4.418 0 8-3.582 8-8s-3.582-8-8-8z"/><path d="m512 256c0-10.581-7.509-19.439-17.478-21.531l-23.265-139.588c19.079-11.419 11.055-40.881-11.257-40.881-8.413 0-15.601 4.673-19.32 11.473l-163.34-20.818c-2.395-9.556-11.052-16.655-21.34-16.655s-18.945 7.099-21.34 16.655l-163.34 20.818c-3.718-6.801-10.909-11.473-19.32-11.473-22.293 0-30.359 29.448-11.257 40.881l-23.266 139.589c-9.968 2.091-17.477 10.949-17.477 21.53s7.509 19.439 17.478 21.531l23.265 139.588c-19.079 11.419-11.055 40.881 11.257 40.881 8.413 0 15.601-4.673 19.32-11.473l163.34 20.818c2.395 9.556 11.052 16.655 21.34 16.655s18.945-7.099 21.34-16.655l163.34-20.818c3.718 6.801 10.909 11.473 19.32 11.473 22.293 0 30.359-29.448 11.257-40.881l23.265-139.588c9.969-2.092 17.478-10.95 17.478-21.531zm-275.313 195.474-163.365-20.822c-.297-1.195-.685-2.359-1.178-3.482l31.226-31.226c9.158 4.33 4.31 3.056 144.63 3.056v42.512c-4.834 1.895-8.843 5.448-11.313 9.962zm38.626-390.948 163.365 20.821c.297 1.195.685 2.359 1.178 3.482l-31.226 31.226c-9.158-4.33-4.31-3.056-144.63-3.056v-42.511c4.834-1.895 8.843-5.448 11.313-9.962zm194.199 187.474h-42.512v-103c0-6.96-2.24-13.402-6.028-18.659l30.198-30.197c1.381.606 2.82 1.075 4.307 1.384l23.264 139.581c-4.166 2.492-7.438 6.322-9.229 10.891zm-221.512-177.512v42.512c-141.865 0-135.687-1.173-144.63 3.056l-31.226-31.226c.493-1.123.881-2.288 1.178-3.482l163.365-20.821c2.47 4.513 6.479 8.066 11.313 9.961zm-187.17 25.656 30.198 30.197c-3.788 5.257-6.028 11.699-6.028 18.659v103h-42.512c-1.791-4.57-5.063-8.4-9.229-10.892l23.264-139.58c1.487-.309 2.926-.778 4.307-1.384zm-18.342 167.856h42.512v28.5c0 4.418 3.582 8 8 8s8-3.582 8-8v-105.5h275c4.418 0 8-3.582 8-8s-3.582-8-8-8h-275v-26c0-8.908 7.325-16 16-16h278c8.674 0 16 7.092 16 16v222c0 8.914-7.329 16-16 16h-278c-8.674 0-16-7.092-16-16v-14c0-4.418-3.582-8-8-8s-8 3.582-8 8c0 13.706-1.276 22.522 6.028 32.659l-30.198 30.197c-1.381-.606-2.82-1.075-4.307-1.384l-23.263-139.581c4.164-2.492 7.437-6.321 9.228-10.891zm221.512 177.512v-42.512c141.865 0 135.687 1.173 144.63-3.056l31.226 31.226c-.493 1.123-.881 2.288-1.178 3.482l-163.365 20.821c-2.47-4.513-6.479-8.066-11.313-9.961zm187.17-25.656-30.198-30.197c3.788-5.257 6.028-11.699 6.028-18.659v-103h42.512c1.791 4.569 5.063 8.399 9.229 10.891l-23.264 139.581c-1.487.309-2.926.778-4.307 1.384zm38.83-153.856c-3.309 0-6-2.691-6-6s2.691-6 6-6 6 2.691 6 6-2.691 6-6 6zm-25.757-190.242c2.344 2.345 2.345 6.139-.001 8.485-3.798 3.799-10.242 1.046-10.242-4.243 0-5.312 6.468-8.018 10.243-4.242zm-208.243-27.758c3.309 0 6 2.691 6 6s-2.691 6-6 6-6-2.691-6-6 2.691-6 6-6zm-199.757 27.758c2.343 2.344 2.345 6.136.002 8.482-3.738 3.743-10.245 1.135-10.245-4.24 0-5.312 6.468-8.018 10.243-4.242zm-34.243 178.242c3.309 0 6 2.691 6 6s-2.691 6-6 6-6-2.691-6-6 2.691-6 6-6zm25.757 190.242c-2.344-2.345-2.345-6.139.001-8.485 3.798-3.799 10.242-1.046 10.242 4.243 0 5.312-6.468 8.018-10.243 4.242zm208.243 27.758c-3.309 0-6-2.691-6-6s2.691-6 6-6 6 2.691 6 6-2.691 6-6 6zm199.757-27.758c-2.343-2.344-2.345-6.136-.002-8.482 3.738-3.743 10.245-1.135 10.245 4.24 0 5.312-6.468 8.018-10.243 4.242z"/></svg>