<svg id="Layer_1" enable-background="new 0 0 512.057 512.057" height="512" viewBox="0 0 512.057 512.057" width="512" xmlns="http://www.w3.org/2000/svg"><path d="m399.741 338.173v-7.837c0-4.418-3.582-8-8-8s-8 3.582-8 8v6.253h-9.655v-6.253c0-4.418-3.582-8-8-8s-8 3.582-8 8v6.253h-9.104c-4.418 0-8 3.582-8 8s3.582 8 8 8h3.402v57.165h-3.402c-4.418 0-8 3.582-8 8s3.582 8 8 8h9.104v6.253c0 4.418 3.582 8 8 8s8-3.582 8-8v-6.253h9.655v6.253c0 4.418 3.582 8 8 8s8-3.582 8-8v-7.837c17.846-6.548 23.004-29.51 9.344-42.999 13.684-13.511 8.466-36.464-9.344-42.998zm-31.356 14.416h22.406c5.544 0 10.054 4.51 10.054 10.054s-4.51 10.054-10.054 10.054h-22.406zm22.406 57.165h-22.406v-20.107h22.406c5.544 0 10.054 4.51 10.054 10.054s-4.51 10.053-10.054 10.053z"/><path d="m321.22 261.836c-3.954 1.972-5.561 6.775-3.589 10.729 1.973 3.955 6.777 5.559 10.729 3.589 76.26-38.031 167.696 17.339 167.696 103.874 0 63.963-52.037 116-116 116-90.114 0-144.788-98.241-100.21-174.469 2.229-3.813.946-8.714-2.868-10.944-3.815-2.231-8.714-.947-10.944 2.868-50.681 86.666 11.393 198.545 114.022 198.545 72.785 0 132-59.215 132-132 .001-98.527-104.104-161.445-190.836-118.192z"/><path d="m297.537 295.474c6.666 0 11.194-8.172 6.368-13.633-2.926-3.311-7.981-3.622-11.292-.696-6.317 5.612-2.05 14.329 4.924 14.329z"/><path d="m464.12 395.82c4.428.406 8.292-2.843 8.691-7.242 4.997-54.783-38.253-101.692-92.755-101.692-51.359 0-93.143 41.783-93.143 93.143s41.783 93.143 93.143 93.143c35.678 0 67.68-19.874 83.519-51.865 1.96-3.96.339-8.759-3.62-10.72-3.962-1.959-8.759-.34-10.72 3.62-13.12 26.502-39.628 42.965-69.179 42.965-42.536 0-77.143-34.606-77.143-77.143s34.606-77.143 77.143-77.143c45.234 0 80.934 38.912 76.821 84.243-.399 4.4 2.843 8.292 7.243 8.691z"/><path d="m264.057 132.028c0-72.785-59.215-132-132-132-39.294 0-76.271 17.329-101.448 47.544-2.829 3.394-2.37 8.438 1.024 11.267 3.391 2.829 8.437 2.369 11.267-1.024 22.13-26.556 54.626-41.786 89.157-41.786 63.963 0 116 52.037 116 116s-52.037 116-116 116c-73.598 0-129.274-68.247-113.299-141.012.948-4.315-1.782-8.582-6.098-9.529-4.32-.95-8.583 1.782-9.529 6.098-18.179 82.758 45.162 160.443 128.926 160.443 72.785-.001 132-59.215 132-132.001z"/><path d="m16.422 86.404c3.978 1.887 8.757.208 10.657-3.798 4.81-10.138-9.646-16.995-14.455-6.859-1.894 3.992-.193 8.764 3.798 10.657z"/><path d="m216.519 145.502c4.396.272 8.211-3.067 8.491-7.478 3.417-53.844-39.416-99.139-92.953-99.139-51.359 0-93.143 41.783-93.143 93.143s41.783 93.143 93.143 93.143c33.119 0 64.019-17.818 80.641-46.503 2.215-3.822.912-8.717-2.911-10.933-3.823-2.215-8.719-.912-10.933 2.911-13.771 23.763-39.365 38.524-66.797 38.524-42.536 0-77.143-34.606-77.143-77.143s34.606-77.143 77.143-77.143c44.326 0 79.837 37.518 76.984 82.125-.279 4.411 3.068 8.213 7.478 8.493z"/><path d="m132.057 186.159c4.418 0 8-3.582 8-8v-5.192c12.34-1.256 22-11.708 22-24.374 0-13.51-10.99-24.5-24.5-24.5h-11.448c-4.687 0-8.5-3.813-8.5-8.528 0-4.687 3.813-8.5 8.5-8.5h18.948c4.418 0 8-3.582 8-8s-3.582-8-8-8h-5v-5.037c0-4.418-3.582-8-8-8s-8 3.582-8 8v5.129c-12.552 1.047-22.448 11.591-22.448 24.436 0 13.51 10.99 24.5 24.5 24.5h11.448c4.687 0 8.5 3.813 8.5 8.5s-3.813 8.5-8.5 8.5h-18.948c-4.418 0-8 3.582-8 8s3.582 8 8 8h5.448v5.065c0 4.419 3.582 8.001 8 8.001z"/><path d="m291.074 94.216c66.533 0 121.702 49.553 130.561 113.689l-5.25-4.375c-3.393-2.829-8.438-2.371-11.267 1.024-2.829 3.394-2.37 8.438 1.024 11.267 21.234 17.695 20.889 18.207 24.742 18.207 4.471 0 5.2-1.883 22.829-19.513 3.124-3.125 3.124-8.189 0-11.314-3.125-3.123-8.189-3.123-11.314 0l-4.633 4.633c-8.995-72.951-71.348-129.618-146.692-129.618-4.418 0-8 3.582-8 8s3.582 8 8 8z"/><path d="m221.039 417.841c-66.533 0-121.702-49.553-130.561-113.689l5.25 4.375c3.391 2.829 8.437 2.369 11.267-1.024 2.829-3.394 2.37-8.438-1.024-11.267-21.441-17.867-20.956-18.128-24.581-18.199-4.47-.079-5.051 1.565-22.991 19.504-5.055 5.057-1.406 13.657 5.657 13.657 4.222 0 5.986-2.671 10.29-6.976 8.995 72.951 71.348 129.618 146.692 129.618 4.418 0 8-3.582 8-8s-3.581-7.999-7.999-7.999z"/></svg>