<svg width="50" height="50" viewBox="0 0 50 50" fill="none" xmlns="http://www.w3.org/2000/svg">
<g clip-path="url(#clip0)">
<path d="M5.75807 18.315C5.90074 18.4577 6.08804 18.5294 6.27534 18.5294C6.46264 18.5294 6.64995 18.458 6.793 18.315C7.07872 18.0293 7.07872 17.5658 6.793 17.28L5.01611 15.5032L6.793 13.7266C7.07872 13.4405 7.07872 12.9774 6.793 12.6917C6.50728 12.406 6.04379 12.406 5.75807 12.6917L3.4639 14.9859C3.32657 15.1232 3.24951 15.3094 3.24951 15.5032C3.24951 15.6973 3.32657 15.8835 3.4639 16.0208L5.75807 18.315Z" fill="#071D49"/>
<path d="M13.0198 15.5032L11.2429 17.2801C10.9571 17.5658 10.9571 18.0293 11.2433 18.315C11.3859 18.4577 11.5732 18.5294 11.7605 18.5294C11.9478 18.5294 12.1351 18.4577 12.2778 18.315L14.5724 16.0204C14.8581 15.7347 14.8581 15.2712 14.5724 14.9859L12.2778 12.6913C11.9921 12.4056 11.529 12.4056 11.2433 12.6913C10.9571 12.9774 10.9571 13.4406 11.2433 13.7263L13.0198 15.5032Z" fill="#071D49"/>
<path d="M7.92734 18.4787C8.01507 18.513 8.10586 18.5294 8.19475 18.5294C8.48695 18.5294 8.76276 18.3532 8.87606 18.0652L10.6785 13.4765C10.8265 13.1003 10.6411 12.6757 10.265 12.5277C9.88925 12.3801 9.46429 12.5651 9.31666 12.9413L7.51382 17.53C7.36619 17.9061 7.5512 18.3311 7.92734 18.4787Z" fill="#071D49"/>
<path d="M4.39554 22.8226H9.32529C9.72927 22.8226 10.057 22.4949 10.057 22.0906C10.057 21.6866 9.72927 21.3589 9.32529 21.3589H4.39554C3.99118 21.3589 3.66388 21.6866 3.66388 22.0906C3.66388 22.4949 3.99118 22.8226 4.39554 22.8226Z" fill="#071D49"/>
<path d="M20.679 21.3589H12.012C11.608 21.3589 11.2803 21.6866 11.2803 22.0906C11.2803 22.4949 11.608 22.8226 12.012 22.8226H20.679C21.0834 22.8226 21.4111 22.4949 21.4111 22.0906C21.4111 21.6866 21.0834 21.3589 20.679 21.3589Z" fill="#071D49"/>
<path d="M4.39554 25.909H6.49554C6.89951 25.909 7.2272 25.5814 7.2272 25.177C7.2272 24.773 6.89951 24.4453 6.49554 24.4453H4.39554C3.99118 24.4453 3.66388 24.773 3.66388 25.177C3.66388 25.5814 3.99118 25.909 4.39554 25.909Z" fill="#071D49"/>
<path d="M16.0763 25.177C16.0763 24.773 15.7486 24.4453 15.3446 24.4453H9.06333C8.65897 24.4453 8.33167 24.773 8.33167 25.177C8.33167 25.5814 8.65897 25.909 9.06333 25.909H15.3446C15.7486 25.909 16.0763 25.5814 16.0763 25.177Z" fill="#071D49"/>
<path d="M16.884 16.0904H19.4105C19.8149 16.0904 20.1425 15.7627 20.1425 15.3584C20.1425 14.9544 19.8149 14.6267 19.4105 14.6267H16.884C16.4797 14.6267 16.152 14.9544 16.152 15.3584C16.152 15.7627 16.4797 16.0904 16.884 16.0904Z" fill="#071D49"/>
<path d="M22.2404 16.0904H37.656C38.0604 16.0904 38.3877 15.7627 38.3877 15.3584C38.3877 14.9544 38.0604 14.6267 37.656 14.6267H22.2404C21.836 14.6267 21.5084 14.9544 21.5084 15.3584C21.5084 15.7627 21.836 16.0904 22.2404 16.0904Z" fill="#071D49"/>
<path d="M16.884 19.3099H22.1426C22.5466 19.3099 22.8743 18.9822 22.8743 18.5782C22.8743 18.1739 22.5466 17.8462 22.1426 17.8462H16.884C16.4797 17.8462 16.152 18.1739 16.152 18.5782C16.152 18.9822 16.4797 19.3099 16.884 19.3099Z" fill="#071D49"/>
<path d="M15.3534 27.5059H10.424C10.0196 27.5059 9.69196 27.8335 9.69196 28.2375C9.69196 28.6415 10.0196 28.9692 10.424 28.9692H15.3534C15.7573 28.9692 16.085 28.6415 16.085 28.2375C16.085 27.8335 15.7573 27.5059 15.3534 27.5059Z" fill="#071D49"/>
<path d="M8.18278 27.5059H4.39554C3.99118 27.5059 3.66388 27.8335 3.66388 28.2375C3.66388 28.6415 3.99118 28.9692 4.39554 28.9692H8.18278C8.58714 28.9692 8.91444 28.6415 8.91444 28.2375C8.91444 27.8335 8.58714 27.5059 8.18278 27.5059Z" fill="#071D49"/>
<path d="M46.7798 0.0975342H3.22076C1.44501 0.0975342 0 1.54217 0 3.3183V38.7253C0 40.5011 1.44501 41.9457 3.22076 41.9457H5.9746C6.37858 41.9457 6.70626 41.6184 6.70626 41.2141C6.70626 40.8101 6.37858 40.4824 5.9746 40.4824H3.22076C2.25182 40.4824 1.46371 39.6943 1.46371 38.7253V35.9494H28.1236V37.2105H27.5434C26.7495 37.2105 26.1041 37.856 26.1041 38.6498V40.4824H10.4237C10.0197 40.4824 9.69204 40.8101 9.69204 41.2141C9.69204 41.6184 10.0197 41.9457 10.4237 41.9457H17.4596V44.5702H15.2501C13.7761 44.5702 12.5771 45.7696 12.5771 47.2432V48.824C12.5771 49.4966 13.1241 50.0436 13.7967 50.0436H36.1478C36.8204 50.0436 37.3674 49.4966 37.3674 48.824V47.2432C37.3674 45.7696 36.1684 44.5702 34.6944 44.5702H32.4849V43.6452H46.0131C46.8065 43.6452 47.452 42.9997 47.452 42.2059V41.8614C48.8783 41.5303 49.9445 40.2505 49.9445 38.7253L49.9998 3.31792C50.0002 1.54217 48.5556 0.0975342 46.7798 0.0975342ZM27.5678 34.2072V30.6996H45.9886V34.2072H27.5678ZM29.5869 29.2359V27.6962H43.9691V29.2359H29.5869ZM43.9691 35.6705V37.2105H29.5869V35.6705H43.9691ZM18.9229 41.9457H26.1041V42.2063C26.1041 42.9997 26.7495 43.6452 27.5434 43.6452H31.0216V44.5702H18.9229V41.9457ZM34.6948 46.034C35.3616 46.034 35.9041 46.5764 35.9041 47.2432V48.5803H14.0404V47.2432C14.0404 46.5764 14.5833 46.034 15.2501 46.034H34.6948ZM45.9886 42.1815H27.5678V38.6742H45.9886V42.1815ZM48.4812 38.7253C48.4812 39.4341 48.0585 40.0449 47.4523 40.3222V38.6494C47.4523 37.856 46.8065 37.2105 46.0131 37.2105H45.4328V35.9494H48.4812V38.7253ZM48.4812 34.486H47.4283C47.4432 34.4033 47.4523 30.6751 47.4523 30.6751C47.4523 29.8813 46.8065 29.2359 46.0131 29.2359H45.4328V27.6962H46.0131C46.8065 27.6962 47.4523 27.0504 47.4523 26.2569V22.7005C47.4523 21.907 46.8065 21.2612 46.0131 21.2612H41.8798C41.4755 21.2612 41.1482 21.5889 41.1482 21.9932C41.1482 22.3972 41.4755 22.7249 41.8798 22.7249H45.9886V26.2325H27.5678V22.7249H37.3266C37.7309 22.7249 38.0582 22.3972 38.0582 21.9932C38.0582 21.5889 37.7309 21.2612 37.3266 21.2612H27.5434C26.7495 21.2612 26.1041 21.907 26.1041 22.7005V26.2569C26.1041 27.0504 26.7495 27.6962 27.5434 27.6962H28.1236V29.2359H27.5434C26.7495 29.2359 26.1041 29.8817 26.1041 30.6751C26.1041 30.6751 26.1132 34.4033 26.1281 34.486H1.46371V10.0517H48.4812V34.486ZM48.4812 8.58795H1.51749V3.31792C1.51749 2.34936 2.30561 1.56124 3.27455 1.56124H46.7241C47.6931 1.56124 48.4812 2.34936 48.4812 3.3183V8.58795Z" fill="#071D49"/>
<path d="M5.39681 2.90637C4.21273 2.90637 3.24951 3.86959 3.24951 5.05368C3.24951 6.23777 4.21273 7.20136 5.39681 7.20136C6.58089 7.20136 7.54449 6.23777 7.54449 5.05368C7.54449 3.86959 6.58089 2.90637 5.39681 2.90637ZM5.39681 5.73766C5.01992 5.73766 4.71283 5.43095 4.71283 5.05368C4.71283 4.67678 5.01992 4.3697 5.39681 4.3697C5.77408 4.3697 6.08079 4.67678 6.08079 5.05368C6.08079 5.43095 5.77408 5.73766 5.39681 5.73766Z" fill="#071D49"/>
<path d="M10.8641 2.90637C9.67997 2.90637 8.71637 3.86959 8.71637 5.05368C8.71637 6.23777 9.67997 7.20136 10.8641 7.20136C12.0482 7.20136 13.0114 6.23777 13.0114 5.05368C13.0114 3.86959 12.0478 2.90637 10.8641 2.90637ZM10.8641 5.73766C10.4868 5.73766 10.1801 5.43095 10.1801 5.05368C10.1801 4.67678 10.4868 4.3697 10.8641 4.3697C11.241 4.3697 11.548 4.67678 11.548 5.05368C11.548 5.43095 11.241 5.73766 10.8641 5.73766Z" fill="#071D49"/>
<path d="M16.3317 2.90637C15.1476 2.90637 14.1844 3.86959 14.1844 5.05368C14.1844 6.23777 15.1476 7.20136 16.3317 7.20136C17.5158 7.20136 18.4794 6.23777 18.4794 5.05368C18.4794 3.86959 17.5158 2.90637 16.3317 2.90637ZM16.3317 5.73766C15.9548 5.73766 15.6477 5.43095 15.6477 5.05368C15.6477 4.67678 15.9548 4.3697 16.3317 4.3697C16.709 4.3697 17.0157 4.67678 17.0157 5.05368C17.0157 5.43095 16.709 5.73766 16.3317 5.73766Z" fill="#071D49"/>
</g>
<defs>
<clipPath id="clip0">
<rect width="50" height="50" fill="white"/>
</clipPath>
</defs>
</svg>
